<svg xmlns="http://www.w3.org/2000/svg" width="436.8423156738281" height="329.98272705078125" viewBox="-342.4974060058594 -54.77507781982422 436.8423156738281 329.98272705078125"><title>Neo4j Graph Visualization</title><desc>Created using Neo4j (http://www.neo4j.com/)</desc><g class="layer relationships"><g class="relationship" transform="translate(-313.4974149220018 52.68632240374606) rotate(399.61171798838205)"><path class="outline" fill="#A5ABB6" stroke="none" d="M 25 0.5 L 101.64297140568955 0.5 L 101.64297140568955 -0.5 L 25 -0.5 Z M 147.20547140568954 0.5 L 223.8484428113791 0.5 L 223.8484428113791 3.5 L 230.8484428113791 0 L 223.8484428113791 -3.5 L 223.8484428113791 -0.5 L 147.20547140568954 -0.5 Z"/><text text-anchor="middle" pointer-events="none" font-size="8px" fill="#000000" x="124.42422140568955" y="3" font-family="sans-serif">ACTED_IN</text></g><g class="relationship" transform="translate(-29.00793323515334 246.2076169430078) rotate(199.17967513995956)"><path class="outline" fill="#A5ABB6" stroke="none" d="M 25 0.5 L 26.205337296420332 0.5 L 26.205337296420332 -0.5 L 25 -0.5 Z M 59.31861854642033 0.5 L 60.523955842840664 0.5 L 60.523955842840664 3.5 L 67.52395584284066 0 L 60.523955842840664 -3.5 L 60.523955842840664 -0.5 L 59.31861854642033 -0.5 Z"/><text text-anchor="middle" pointer-events="none" font-size="8px" fill="#000000" x="42.76197792142033" y="3" transform="rotate(180 42.76197792142033 0)" font-family="sans-serif">DIRE…</text></g><g class="relationship" transform="translate(-28.351905756359734 83.23450263822694) rotate(483.5882824576586)"><path class="outline" fill="#A5ABB6" stroke="none" d="M 25 0.5 L 52.62887402682563 0.5 L 52.62887402682563 -0.5 L 25 -0.5 Z M 99.51949902682563 0.5 L 127.14837305365126 0.5 L 127.14837305365126 3.5 L 134.14837305365126 0 L 127.14837305365126 -3.5 L 127.14837305365126 -0.5 L 99.51949902682563 -0.5 Z"/><text text-anchor="middle" pointer-events="none" font-size="8px" fill="#000000" x="76.07418652682563" y="3" transform="rotate(180 76.07418652682563 0)" font-family="sans-serif">DIRECTED</text></g><g class="relationship" transform="translate(-32.35360549353476 174.68494113025577) rotate(513.9255116111202)"><path class="outline" fill="#A5ABB6" stroke="none" d="M 25 0.5 L 26.726017285291903 0.5 L 26.726017285291903 -0.5 L 25 -0.5 Z M 59.8392985352919 0.5 L 61.565315820583805 0.5 L 61.565315820583805 3.5 L 68.5653158205838 0 L 61.565315820583805 -3.5 L 61.565315820583805 -0.5 L 59.8392985352919 -0.5 Z"/><text text-anchor="middle" pointer-events="none" font-size="8px" fill="#000000" x="43.2826579102919" y="3" transform="rotate(180 43.2826579102919 0)" font-family="sans-serif">DIRE…</text></g><g class="relationship" transform="translate(-313.4974149220018 52.68632240374606) rotate(353.0505356606717)"><path class="outline" fill="#A5ABB6" stroke="none" d="M 25 0.5 L 79.22726786567104 0.5 L 79.22726786567104 -0.5 L 25 -0.5 Z M 124.78976786567104 0.5 L 179.01703573134208 0.5 L 179.01703573134208 3.5 L 186.01703573134208 0 L 179.01703573134208 -3.5 L 179.01703573134208 -0.5 L 124.78976786567104 -0.5 Z"/><text text-anchor="middle" pointer-events="none" font-size="8px" fill="#000000" x="102.00851786567104" y="3" font-family="sans-serif">ACTED_IN</text></g><g class="relationship" transform="translate(65.3449085266376 -25.775080228598682) rotate(522.6460461952158)"><path class="outline" fill="#A5ABB6" stroke="none" d="M 25 0.5 L 61.781279113532705 0.5 L 61.781279113532705 -0.5 L 25 -0.5 Z M 108.6719041135327 0.5 L 145.4531832270654 0.5 L 145.4531832270654 3.5 L 152.4531832270654 0 L 145.4531832270654 -3.5 L 145.4531832270654 -0.5 L 108.6719041135327 -0.5 Z"/><text text-anchor="middle" pointer-events="none" font-size="8px" fill="#000000" x="85.2265916135327" y="3" transform="rotate(180 85.2265916135327 0)" font-family="sans-serif">DIRECTED</text></g><g class="relationship" transform="translate(-313.4974149220018 52.68632240374606) rotate(360.2008918309068)"><path class="outline" fill="#A5ABB6" stroke="none" d="M 25 0.5 L 51.44883459330464 0.5 L 51.44883459330464 -0.5 L 25 -0.5 Z M 97.01133459330464 0.5 L 123.46016918660928 0.5 L 123.46016918660928 3.5 L 130.46016918660928 0 L 123.46016918660928 -3.5 L 123.46016918660928 -0.5 L 97.01133459330464 -0.5 Z"/><text text-anchor="middle" pointer-events="none" font-size="8px" fill="#000000" x="74.23008459330464" y="3" font-family="sans-serif">ACTED_IN</text></g><g class="relationship" transform="translate(-28.351905756359734 83.23450263822694) rotate(193.0262808645512)"><path class="outline" fill="#A5ABB6" stroke="none" d="M 25 0.5 L 39.61053145362999 0.5 L 39.61053145362999 -0.5 L 25 -0.5 Z M 86.50115645362999 0.5 L 101.11168790725998 0.5 L 101.11168790725998 3.5 L 108.11168790725998 0 L 101.11168790725998 -3.5 L 101.11168790725998 -0.5 L 86.50115645362999 -0.5 Z"/><text text-anchor="middle" pointer-events="none" font-size="8px" fill="#000000" x="63.05584395362999" y="3" transform="rotate(180 63.05584395362999 0)" font-family="sans-serif">DIRECTED</text></g><g class="relationship" transform="translate(-32.35360549353476 174.68494113025577) rotate(224.0191806613937)"><path class="outline" fill="#A5ABB6" stroke="none" d="M 25 0.5 L 60.444018106009366 0.5 L 60.444018106009366 -0.5 L 25 -0.5 Z M 107.33464310600937 0.5 L 142.77866121201873 0.5 L 142.77866121201873 3.5 L 149.77866121201873 0 L 142.77866121201873 -3.5 L 142.77866121201873 -0.5 L 107.33464310600937 -0.5 Z"/><text text-anchor="middle" pointer-events="none" font-size="8px" fill="#000000" x="83.88933060600937" y="3" transform="rotate(180 83.88933060600937 0)" font-family="sans-serif">DIRECTED</text></g><g class="relationship" transform="translate(-313.4974149220018 52.68632240374606) rotate(390.75351871110206)"><path class="outline" fill="#A5ABB6" stroke="none" d="M 25 0.5 L 56.89523537145975 0.5 L 56.89523537145975 -0.5 L 25 -0.5 Z M 102.45773537145975 0.5 L 134.3529707429195 0.5 L 134.3529707429195 3.5 L 141.3529707429195 0 L 134.3529707429195 -3.5 L 134.3529707429195 -0.5 L 102.45773537145975 -0.5 Z"/><text text-anchor="middle" pointer-events="none" font-size="8px" fill="#000000" x="79.67648537145975" y="3" font-family="sans-serif">ACTED_IN</text></g><g class="relationship" transform="translate(-28.351905756359734 83.23450263822694) rotate(519.0226000360991)"><path class="outline" fill="#A5ABB6" stroke="none" d="M 25 0.5 L 49.19403487304791 0.5 L 49.19403487304791 -0.5 L 25 -0.5 Z M 96.08465987304791 0.5 L 120.27869474609582 0.5 L 120.27869474609582 3.5 L 127.27869474609582 0 L 120.27869474609582 -3.5 L 120.27869474609582 -0.5 L 96.08465987304791 -0.5 Z"/><text text-anchor="middle" pointer-events="none" font-size="8px" fill="#000000" x="72.63934737304791" y="3" transform="rotate(180 72.63934737304791 0)" font-family="sans-serif">DIRECTED</text></g><g class="relationship" transform="translate(-32.35360549353476 174.68494113025577) rotate(194.96454402390737)"><path class="outline" fill="#A5ABB6" stroke="none" d="M 25 0.5 L 44.57226021622385 0.5 L 44.57226021622385 -0.5 L 25 -0.5 Z M 91.46288521622385 0.5 L 111.0351454324477 0.5 L 111.0351454324477 3.5 L 118.0351454324477 0 L 111.0351454324477 -3.5 L 111.0351454324477 -0.5 L 91.46288521622385 -0.5 Z"/><text text-anchor="middle" pointer-events="none" font-size="8px" fill="#000000" x="68.01757271622385" y="3" transform="rotate(180 68.01757271622385 0)" font-family="sans-serif">DIRECTED</text></g><g class="relationship" transform="translate(-313.4974149220018 52.68632240374606) rotate(374.3924549436752)"><path class="outline" fill="#A5ABB6" stroke="none" d="M 25 0.5 L 72.11346955570374 0.5 L 72.11346955570374 -0.5 L 25 -0.5 Z M 117.67596955570374 0.5 L 164.7894391114075 0.5 L 164.7894391114075 3.5 L 171.7894391114075 0 L 164.7894391114075 -3.5 L 164.7894391114075 -0.5 L 117.67596955570374 -0.5 Z"/><text text-anchor="middle" pointer-events="none" font-size="8px" fill="#000000" x="94.89471955570374" y="3" font-family="sans-serif">ACTED_IN</text></g><g class="relationship" transform="translate(-28.351905756359734 83.23450263822694) rotate(529.005210832591)"><path class="outline" fill="#A5ABB6" stroke="none" d="M 25 0.5 L 25.204565586212446 0.5 L 25.204565586212446 -0.5 L 25 -0.5 Z M 64.09519058621245 0.5 L 64.29975617242489 0.5 L 64.29975617242489 3.5 L 71.29975617242489 0 L 64.29975617242489 -3.5 L 64.29975617242489 -0.5 L 64.09519058621245 -0.5 Z"/><text text-anchor="middle" pointer-events="none" font-size="8px" fill="#000000" x="44.649878086212446" y="3" transform="rotate(180 44.649878086212446 0)" font-family="sans-serif">DIREC…</text></g><g class="relationship" transform="translate(-32.35360549353476 174.68494113025577) rotate(218.9135393653321)"><path class="outline" fill="#A5ABB6" stroke="none" d="M 25 0.5 L 31.229113656734157 0.5 L 31.229113656734157 -0.5 L 25 -0.5 Z M 78.11973865673416 0.5 L 84.34885231346831 0.5 L 84.34885231346831 3.5 L 91.34885231346831 0 L 84.34885231346831 -3.5 L 84.34885231346831 -0.5 L 78.11973865673416 -0.5 Z"/><text text-anchor="middle" pointer-events="none" font-size="8px" fill="#000000" x="54.67442615673416" y="3" transform="rotate(180 54.67442615673416 0)" font-family="sans-serif">DIRECTED</text></g><g class="relationship" transform="translate(-28.351905756359734 83.23450263822694) rotate(216.5394148760355)"><path class="outline" fill="#A5ABB6" stroke="none" d="M 24.018736134675446,6.953439040707552 L 24.277555179777966,5.987513214418485 A 79.98141871481994 79.98141871481994 0 0 0 25.951656675773716,6.416756426137255 L 25.713768760962406,7.388049039095236 A 80.98141871481994 80.98141871481994 0 0 1 24.018736134675446,6.953439040707552 Z M 61.408110656212926,8.02862408284922 L 61.20522657095654,7.049421321440903 A 79.98141871481994 79.98141871481994 0 0 0 62.89365162327098,6.680522424155189 L 62.221668718479414,3.7567510624259777 L 69.82778195143774,5.599857539929734 L 63.78962882965974,10.578884239794139 L 63.11764592486817,7.6551128780649265 A 80.98141871481994 80.98141871481994 0 0 1 61.408110656212926,8.02862408284922"/><text text-anchor="middle" pointer-events="none" font-size="8px" fill="#000000" x="43.53417269883515" y="12.199857042351653" transform="rotate(180 43.53417269883515 9.199857042351653)" font-family="sans-serif">WROTE</text></g><g class="relationship" transform="translate(-28.351905756359734 83.23450263822694) rotate(216.5394148760355)"><path class="outline" fill="#A5ABB6" stroke="none" d="M 24.018736134675446,-6.953439040707552 L 24.277555179777966,-5.987513214418485 A 79.98141871481994 79.98141871481994 0 0 1 25.3056756144379,-6.255690708367325 L 25.059711060430686,-7.22496953211828 A 80.98141871481994 80.98141871481994 0 0 0 24.018736134675446,-6.953439040707552 Z M 62.0675986015915,-7.889117627367995 L 61.85657082169696,-6.911637563063465 A 79.98141871481994 79.98141871481994 0 0 1 62.89365162327098,-6.680522424155189 L 62.221668718479414,-3.7567510624259777 L 69.82778195143774,-5.599857539929734 L 63.78962882965974,-10.578884239794139 L 63.11764592486817,-7.6551128780649265 A 80.98141871481994 80.98141871481994 0 0 0 62.0675986015915,-7.889117627367995"/><text text-anchor="middle" pointer-events="none" font-size="8px" fill="#000000" x="43.53417269883512" y="-6.199857042351653" transform="rotate(180 43.53417269883512 -9.199857042351653)" font-family="sans-serif">PROD…</text></g><g class="relationship" transform="translate(-32.35360549353476 174.68494113025577) rotate(244.08738147034393)"><path class="outline" fill="#A5ABB6" stroke="none" d="M 24.018736134675446,6.953439040707552 L 24.277555179777966,5.987513214418485 A 218.36308076615316 218.36308076615316 0 0 0 60.66045525544378,12.497888309000558 L 60.56825274619526,13.493628585020502 A 219.36308076615316 219.36308076615316 0 0 1 24.018736134675446,6.953439040707552 Z M 96.38150082387021,13.873551274239873 L 96.31044318946742,12.87607906280084 A 218.36308076615316 218.36308076615316 0 0 0 132.82326949882284,7.139013899245744 L 132.108461985296,4.225416429002886 L 139.74079818164398,5.95672927939027 L 133.77634618352528,11.023810526236222 L 133.06153866999844,8.110213055993363 A 219.36308076615316 219.36308076615316 0 0 1 96.38150082387021,13.873551274239873"/><text text-anchor="middle" pointer-events="none" font-size="8px" fill="#000000" x="78.47241402983202" y="16.91574048410024" transform="rotate(180 78.47241402983202 13.91574048410024)" font-family="sans-serif">WROTE</text></g><g class="relationship" transform="translate(-32.35360549353476 174.68494113025577) rotate(244.08738147034393)"><path class="outline" fill="#A5ABB6" stroke="none" d="M 24.018736134675446,-6.953439040707552 L 24.277555179777966,-5.987513214418485 A 218.36308076615316 218.36308076615316 0 0 1 52.72408480313349,-11.61637771780201 L 52.59553745745721,-12.608081090751597 A 219.36308076615316 219.36308076615316 0 0 0 24.018736134675446,-6.953439040707552 Z M 104.37120827227956,-13.157340181952748 L 104.2637283401022,-12.163132927815468 A 218.36308076615316 218.36308076615316 0 0 1 132.82326949882284,-7.139013899245744 L 132.108461985296,-4.225416429002886 L 139.74079818164398,-5.95672927939027 L 133.77634618352528,-11.023810526236222 L 133.06153866999844,-8.110213055993363 A 219.36308076615316 219.36308076615316 0 0 0 104.37120827227956,-13.157340181952748"/><text text-anchor="middle" pointer-events="none" font-size="8px" fill="#000000" x="78.472414029832" y="-10.91574048410024" transform="rotate(180 78.472414029832 -13.91574048410024)" font-family="sans-serif">PRODUCED</text></g></g><g class="layer nodes"><g class="node" transform="translate(-313.4974149220018,52.68632240374606)"><circle class="outline" cx="0" cy="0" r="25" fill="#57C7E3" stroke="#23b3d7" stroke-width="2px"/><text text-anchor="middle" pointer-events="none" font-family="sans-serif" dy="1.5625" font-size="25" fill="#2A2C34"/><text text-anchor="middle" pointer-events="none" font-family="sans-serif" dy="1.5625" font-size="25" fill="#2A2C34"/><text text-anchor="middle" pointer-events="none" x="0" y="0" font-size="10px" fill="#2A2C34" font-family="sans-serif"> Hugo</text><text text-anchor="middle" pointer-events="none" x="0" y="10" font-size="10px" fill="#2A2C34" font-family="sans-serif"> Weaving</text></g><g class="node" transform="translate(-116.3961592301378,215.8105716547326)"><circle class="outline" cx="0" cy="0" r="25" fill="#F79767" stroke="#f36924" stroke-width="2px"/><text text-anchor="middle" pointer-events="none" font-family="sans-serif" dy="1.5625" font-size="25" fill="#FFFFFF"/><text text-anchor="middle" pointer-events="none" font-family="sans-serif" dy="1.5625" font-size="25" fill="#FFFFFF"/><text text-anchor="middle" pointer-events="none" x="0" y="0" font-size="10px" fill="#FFFFFF" font-family="sans-serif"> Cloud</text><text text-anchor="middle" pointer-events="none" x="0" y="10" font-size="10px" fill="#FFFFFF" font-family="sans-serif"> Atlas</text></g><g class="node" transform="translate(-29.00793323515334,246.2076169430078)"><circle class="outline" cx="0" cy="0" r="25" fill="#57C7E3" stroke="#23b3d7" stroke-width="2px"/><text text-anchor="middle" pointer-events="none" font-family="sans-serif" dy="1.5625" font-size="25" fill="#2A2C34"/><text text-anchor="middle" pointer-events="none" font-family="sans-serif" dy="1.5625" font-size="25" fill="#2A2C34"/><text text-anchor="middle" pointer-events="none" x="0" y="0" font-size="10px" fill="#2A2C34" font-family="sans-serif"> Tom</text><text text-anchor="middle" pointer-events="none" x="0" y="10" font-size="10px" fill="#2A2C34" font-family="sans-serif"> Tykwer</text></g><g class="node" transform="translate(-28.351905756359734,83.23450263822694)"><circle class="outline" cx="0" cy="0" r="25" fill="#57C7E3" stroke="#23b3d7" stroke-width="2px"/><text text-anchor="middle" pointer-events="none" font-family="sans-serif" dy="1.5625" font-size="25" fill="#2A2C34"/><text text-anchor="middle" pointer-events="none" font-family="sans-serif" dy="1.5625" font-size="25" fill="#2A2C34"/><text text-anchor="middle" pointer-events="none" x="0" y="0" font-size="10px" fill="#2A2C34" font-family="sans-serif"> Lana</text><text text-anchor="middle" pointer-events="none" x="0" y="10" font-size="10px" fill="#2A2C34" font-family="sans-serif"> Wacho…</text></g><g class="node" transform="translate(-32.35360549353476,174.68494113025577)"><circle class="outline" cx="0" cy="0" r="25" fill="#57C7E3" stroke="#23b3d7" stroke-width="2px"/><text text-anchor="middle" pointer-events="none" font-family="sans-serif" dy="1.5625" font-size="25" fill="#2A2C34"/><text text-anchor="middle" pointer-events="none" font-family="sans-serif" dy="1.5625" font-size="25" fill="#2A2C34"/><text text-anchor="middle" pointer-events="none" x="0" y="0" font-size="10px" fill="#2A2C34" font-family="sans-serif"> Andy</text><text text-anchor="middle" pointer-events="none" x="0" y="10" font-size="10px" fill="#2A2C34" font-family="sans-serif"> Wacho…</text></g><g class="node" transform="translate(-104.03066733617436,27.154557391162943)"><circle class="outline" cx="0" cy="0" r="25" fill="#F79767" stroke="#f36924" stroke-width="2px"/><text text-anchor="middle" pointer-events="none" font-family="sans-serif" dy="1.5625" font-size="25" fill="#FFFFFF"/><text text-anchor="middle" pointer-events="none" font-family="sans-serif" dy="1.5625" font-size="25" fill="#FFFFFF"/><text text-anchor="middle" pointer-events="none" x="0" y="0" font-size="10px" fill="#FFFFFF" font-family="sans-serif"> V for</text><text text-anchor="middle" pointer-events="none" x="0" y="10" font-size="10px" fill="#FFFFFF" font-family="sans-serif"> Vendetta</text></g><g class="node" transform="translate(65.3449085266376,-25.775080228598682)"><circle class="outline" cx="0" cy="0" r="25" fill="#57C7E3" stroke="#23b3d7" stroke-width="2px"/><text text-anchor="middle" pointer-events="none" font-family="sans-serif" dy="1.5625" font-size="25" fill="#2A2C34"/><text text-anchor="middle" pointer-events="none" font-family="sans-serif" dy="1.5625" font-size="25" fill="#2A2C34"/><text text-anchor="middle" pointer-events="none" x="0" y="0" font-size="10px" fill="#2A2C34" font-family="sans-serif"> James</text><text text-anchor="middle" pointer-events="none" x="0" y="10" font-size="10px" fill="#2A2C34" font-family="sans-serif"> Marshall</text></g><g class="node" transform="translate(-158.0382013174451,53.23139944601371)"><circle class="outline" cx="0" cy="0" r="25" fill="#F79767" stroke="#f36924" stroke-width="2px"/><text text-anchor="middle" pointer-events="none" font-family="sans-serif" dy="1.5625" font-size="25" fill="#FFFFFF"/><text text-anchor="middle" pointer-events="none" font-family="sans-serif" dy="1.5625" font-size="25" fill="#FFFFFF"/><text text-anchor="middle" pointer-events="none" font-family="sans-serif" dy="1.5625" font-size="25" fill="#FFFFFF"/><text text-anchor="middle" pointer-events="none" x="0" y="-5" font-size="10px" fill="#FFFFFF" font-family="sans-serif"> The</text><text text-anchor="middle" pointer-events="none" x="0" y="5" font-size="10px" fill="#FFFFFF" font-family="sans-serif"> Matrix</text><text text-anchor="middle" pointer-events="none" x="0" y="15" font-size="10px" fill="#FFFFFF" font-family="sans-serif"> Revol…</text></g><g class="node" transform="translate(-170.53782906114654,137.7502259438928)"><circle class="outline" cx="0" cy="0" r="25" fill="#F79767" stroke="#f36924" stroke-width="2px"/><text text-anchor="middle" pointer-events="none" font-family="sans-serif" dy="1.5625" font-size="25" fill="#FFFFFF"/><text text-anchor="middle" pointer-events="none" font-family="sans-serif" dy="1.5625" font-size="25" fill="#FFFFFF"/><text text-anchor="middle" pointer-events="none" font-family="sans-serif" dy="1.5625" font-size="25" fill="#FFFFFF"/><text text-anchor="middle" pointer-events="none" x="0" y="-5" font-size="10px" fill="#FFFFFF" font-family="sans-serif"> The</text><text text-anchor="middle" pointer-events="none" x="0" y="5" font-size="10px" fill="#FFFFFF" font-family="sans-serif"> Matrix</text><text text-anchor="middle" pointer-events="none" x="0" y="15" font-size="10px" fill="#FFFFFF" font-family="sans-serif"> Reloa…</text></g><g class="node" transform="translate(-122.88403490705237,101.60076510790898)"><circle class="outline" cx="0" cy="0" r="25" fill="#F79767" stroke="#f36924" stroke-width="2px"/><text text-anchor="middle" pointer-events="none" font-family="sans-serif" dy="1.5625" font-size="25" fill="#FFFFFF"/><text text-anchor="middle" pointer-events="none" font-family="sans-serif" dy="1.5625" font-size="25" fill="#FFFFFF"/><text text-anchor="middle" pointer-events="none" x="0" y="0" font-size="10px" fill="#FFFFFF" font-family="sans-serif"> The</text><text text-anchor="middle" pointer-events="none" x="0" y="10" font-size="10px" fill="#FFFFFF" font-family="sans-serif"> Matrix</text></g></g></svg>