<svg xmlns="http://www.w3.org/2000/svg" width="512.0841674804688" height="499.1136474609375" viewBox="-186.15452575683594 -107.30348205566406 512.0841674804688 499.1136474609375"><title>Neo4j Graph Visualization</title><desc>Created using Neo4j (http://www.neo4j.com/)</desc><g class="layer relationships"><g class="relationship" transform="translate(85.9887410404483 179.0936156687636) rotate(314.33226459803143)"><path class="outline" fill="#A5ABB6" stroke="none" d="M 25 0.5 L 38.708565816200405 0.5 L 38.708565816200405 -0.5 L 25 -0.5 Z M 84.2710658162004 0.5 L 97.97963163240081 0.5 L 97.97963163240081 3.5 L 104.97963163240081 0 L 97.97963163240081 -3.5 L 97.97963163240081 -0.5 L 84.2710658162004 -0.5 Z"/><text text-anchor="middle" pointer-events="none" font-size="8px" fill="#000000" x="61.489815816200405" y="3" font-family="sans-serif">ACTED_IN</text></g><g class="relationship" transform="translate(293.76747695781853 132.20342290308795) rotate(201.50748866595302)"><path class="outline" fill="#A5ABB6" stroke="none" d="M 25 0.5 L 36.5682867391284 0.5 L 36.5682867391284 -0.5 L 25 -0.5 Z M 82.13078673912841 0.5 L 93.6990734782568 0.5 L 93.6990734782568 3.5 L 100.6990734782568 0 L 93.6990734782568 -3.5 L 93.6990734782568 -0.5 L 82.13078673912841 -0.5 Z"/><text text-anchor="middle" pointer-events="none" font-size="8px" fill="#000000" x="59.3495367391284" y="3" transform="rotate(180 59.3495367391284 0)" font-family="sans-serif">ACTED_IN</text></g><g class="relationship" transform="translate(296.9296508844247 41.51422582466774) rotate(519.62640905527)"><path class="outline" fill="#A5ABB6" stroke="none" d="M 25 0.5 L 37.78069021246645 0.5 L 37.78069021246645 -0.5 L 25 -0.5 Z M 83.34319021246645 0.5 L 96.1238804249329 0.5 L 96.1238804249329 3.5 L 103.1238804249329 0 L 96.1238804249329 -3.5 L 96.1238804249329 -0.5 L 83.34319021246645 -0.5 Z"/><text text-anchor="middle" pointer-events="none" font-size="8px" fill="#000000" x="60.56194021246645" y="3" transform="rotate(180 60.56194021246645 0)" font-family="sans-serif">ACTED_IN</text></g><g class="relationship" transform="translate(239.5017130097696 -24.910781064668434) rotate(479.4464398495539)"><path class="outline" fill="#A5ABB6" stroke="none" d="M 25 0.5 L 37.46935892321703 0.5 L 37.46935892321703 -0.5 L 25 -0.5 Z M 83.03185892321703 0.5 L 95.50121784643406 0.5 L 95.50121784643406 3.5 L 102.50121784643406 0 L 95.50121784643406 -3.5 L 95.50121784643406 -0.5 L 83.03185892321703 -0.5 Z"/><text text-anchor="middle" pointer-events="none" font-size="8px" fill="#000000" x="60.25060892321703" y="3" transform="rotate(180 60.25060892321703 0)" font-family="sans-serif">ACTED_IN</text></g><g class="relationship" transform="translate(85.9887410404483 179.0936156687636) rotate(249.90514742712304)"><path class="outline" fill="#A5ABB6" stroke="none" d="M 25 0.5 L 41.92925319432537 0.5 L 41.92925319432537 -0.5 L 25 -0.5 Z M 87.49175319432537 0.5 L 104.42100638865074 0.5 L 104.42100638865074 3.5 L 111.42100638865074 0 L 104.42100638865074 -3.5 L 104.42100638865074 -0.5 L 87.49175319432537 -0.5 Z"/><text text-anchor="middle" pointer-events="none" font-size="8px" fill="#000000" x="64.71050319432537" y="3" transform="rotate(180 64.71050319432537 0)" font-family="sans-serif">ACTED_IN</text></g><g class="relationship" transform="translate(109.81360813756264 -51.11046071667791) rotate(484.70261608412363)"><path class="outline" fill="#A5ABB6" stroke="none" d="M 25 0.5 L 35.80696371929498 0.5 L 35.80696371929498 -0.5 L 25 -0.5 Z M 81.36946371929497 0.5 L 92.17642743858995 0.5 L 92.17642743858995 3.5 L 99.17642743858995 0 L 92.17642743858995 -3.5 L 92.17642743858995 -0.5 L 81.36946371929497 -0.5 Z"/><text text-anchor="middle" pointer-events="none" font-size="8px" fill="#000000" x="58.58821371929498" y="3" transform="rotate(180 58.58821371929498 0)" font-family="sans-serif">ACTED_IN</text></g><g class="relationship" transform="translate(37.5624760979413 -78.30348074012481) rotate(449.31070899302904)"><path class="outline" fill="#A5ABB6" stroke="none" d="M 25 0.5 L 38.363779029880476 0.5 L 38.363779029880476 -0.5 L 25 -0.5 Z M 83.92627902988048 0.5 L 97.29005805976095 0.5 L 97.29005805976095 3.5 L 104.29005805976095 0 L 97.29005805976095 -3.5 L 97.29005805976095 -0.5 L 83.92627902988048 -0.5 Z"/><text text-anchor="middle" pointer-events="none" font-size="8px" fill="#000000" x="61.145029029880476" y="3" font-family="sans-serif">ACTED_IN</text></g><g class="relationship" transform="translate(-36.07047747725872 -51.35715619398704) rotate(413.69408980520626)"><path class="outline" fill="#A5ABB6" stroke="none" d="M 25 0.5 L 37.21207507885699 0.5 L 37.21207507885699 -0.5 L 25 -0.5 Z M 82.774575078857 0.5 L 94.98665015771398 0.5 L 94.98665015771398 3.5 L 101.98665015771398 0 L 94.98665015771398 -3.5 L 94.98665015771398 -0.5 L 82.774575078857 -0.5 Z"/><text text-anchor="middle" pointer-events="none" font-size="8px" fill="#000000" x="59.99332507885699" y="3" font-family="sans-serif">ACTED_IN</text></g><g class="relationship" transform="translate(-76.67244960628204 19.31983788222456) rotate(375.291133897719)"><path class="outline" fill="#A5ABB6" stroke="none" d="M 25 0.5 L 33.73871181675732 0.5 L 33.73871181675732 -0.5 L 25 -0.5 Z M 79.30121181675733 0.5 L 88.03992363351465 0.5 L 88.03992363351465 3.5 L 95.03992363351465 0 L 88.03992363351465 -3.5 L 88.03992363351465 -0.5 L 79.30121181675733 -0.5 Z"/><text text-anchor="middle" pointer-events="none" font-size="8px" fill="#000000" x="56.51996181675732" y="3" font-family="sans-serif">ACTED_IN</text></g><g class="relationship" transform="translate(85.9887410404483 179.0936156687636) rotate(433.9125317526044)"><path class="outline" fill="#A5ABB6" stroke="none" d="M 25 0.5 L 52.18295518541771 0.5 L 52.18295518541771 -0.5 L 25 -0.5 Z M 97.74545518541771 0.5 L 124.92841037083542 0.5 L 124.92841037083542 3.5 L 131.92841037083542 0 L 124.92841037083542 -3.5 L 124.92841037083542 -0.5 L 97.74545518541771 -0.5 Z"/><text text-anchor="middle" pointer-events="none" font-size="8px" fill="#000000" x="74.96420518541771" y="3" font-family="sans-serif">ACTED_IN</text></g><g class="relationship" transform="translate(34.822586549955176 362.81015099277096) rotate(340.8149785175899)"><path class="outline" fill="#A5ABB6" stroke="none" d="M 25 0.5 L 26.052147595588274 0.5 L 26.052147595588274 -0.5 L 25 -0.5 Z M 67.16542884558828 0.5 L 68.21757644117655 0.5 L 68.21757644117655 3.5 L 75.21757644117655 0 L 68.21757644117655 -3.5 L 68.21757644117655 -0.5 L 67.16542884558828 -0.5 Z"/><text text-anchor="middle" pointer-events="none" font-size="8px" fill="#000000" x="46.60878822058827" y="3" font-family="sans-serif">ACTED…</text></g><g class="relationship" transform="translate(56.67728739026582 249.38595326584158) rotate(407.87333409235396)"><path class="outline" fill="#A5ABB6" stroke="none" d="M 25 0.5 L 27.982372688702227 0.5 L 27.982372688702227 -0.5 L 25 -0.5 Z M 73.54487268870223 0.5 L 76.52724537740445 0.5 L 76.52724537740445 3.5 L 83.52724537740445 0 L 76.52724537740445 -3.5 L 76.52724537740445 -0.5 L 73.54487268870223 -0.5 Z"/><text text-anchor="middle" pointer-events="none" font-size="8px" fill="#000000" x="50.76362268870223" y="3" font-family="sans-serif">ACTED_IN</text></g><g class="relationship" transform="translate(29.885925424363126 303.1249953599281) rotate(375.03598714235915)"><path class="outline" fill="#A5ABB6" stroke="none" d="M 25 0.5 L 25.278178926288845 0.5 L 25.278178926288845 -0.5 L 25 -0.5 Z M 70.84067892628885 0.5 L 71.11885785257769 0.5 L 71.11885785257769 3.5 L 78.11885785257769 0 L 71.11885785257769 -3.5 L 71.11885785257769 -0.5 L 70.84067892628885 -0.5 Z"/><text text-anchor="middle" pointer-events="none" font-size="8px" fill="#000000" x="48.059428926288845" y="3" font-family="sans-serif">ACTED_IN</text></g><g class="relationship" transform="translate(85.9887410404483 179.0936156687636) rotate(415.87457878001044)"><path class="outline" fill="#A5ABB6" stroke="none" d="M 25 0.5 L 30.798093847994018 0.5 L 30.798093847994018 -0.5 L 25 -0.5 Z M 76.36059384799401 0.5 L 82.15868769598804 0.5 L 82.15868769598804 3.5 L 89.15868769598804 0 L 82.15868769598804 -3.5 L 82.15868769598804 -0.5 L 76.36059384799401 -0.5 Z"/><text text-anchor="middle" pointer-events="none" font-size="8px" fill="#000000" x="53.57934384799402" y="3" font-family="sans-serif">ACTED_IN</text></g><g class="relationship" transform="translate(34.822586549955176 362.81015099277096) rotate(322.24700811824073)"><path class="outline" fill="#A5ABB6" stroke="none" d="M 25 0.5 L 46.57576237815152 0.5 L 46.57576237815152 -0.5 L 25 -0.5 Z M 92.13826237815152 0.5 L 113.71402475630305 0.5 L 113.71402475630305 3.5 L 120.71402475630305 0 L 113.71402475630305 -3.5 L 113.71402475630305 -0.5 L 92.13826237815152 -0.5 Z"/><text text-anchor="middle" pointer-events="none" font-size="8px" fill="#000000" x="69.35701237815152" y="3" font-family="sans-serif">ACTED_IN</text></g><g class="relationship" transform="translate(56.67728739026582 249.38595326584158) rotate(374.5380995891)"><path class="outline" fill="#A5ABB6" stroke="none" d="M 25 0.5 L 27.05364267075899 0.5 L 27.05364267075899 -0.5 L 25 -0.5 Z M 62.38958017075899 0.5 L 64.44322284151798 0.5 L 64.44322284151798 3.5 L 71.44322284151798 0 L 64.44322284151798 -3.5 L 64.44322284151798 -0.5 L 62.38958017075899 -0.5 Z"/><text text-anchor="middle" pointer-events="none" font-size="8px" fill="#000000" x="44.72161142075899" y="3" font-family="sans-serif">ACTE…</text></g><g class="relationship" transform="translate(29.885925424363126 303.1249953599281) rotate(346.1915998286413)"><path class="outline" fill="#A5ABB6" stroke="none" d="M 25 0.5 L 35.57986092565209 0.5 L 35.57986092565209 -0.5 L 25 -0.5 Z M 81.1423609256521 0.5 L 91.72222185130418 0.5 L 91.72222185130418 3.5 L 98.72222185130418 0 L 91.72222185130418 -3.5 L 91.72222185130418 -0.5 L 81.1423609256521 -0.5 Z"/><text text-anchor="middle" pointer-events="none" font-size="8px" fill="#000000" x="58.36111092565209" y="3" font-family="sans-serif">ACTED_IN</text></g><g class="relationship" transform="translate(85.9887410404483 179.0936156687636) rotate(516.0912686504994)"><path class="outline" fill="#A5ABB6" stroke="none" d="M 25 0.5 L 45.05227795284512 0.5 L 45.05227795284512 -0.5 L 25 -0.5 Z M 90.61477795284512 0.5 L 110.66705590569023 0.5 L 110.66705590569023 3.5 L 117.66705590569023 0 L 110.66705590569023 -3.5 L 110.66705590569023 -0.5 L 90.61477795284512 -0.5 Z"/><text text-anchor="middle" pointer-events="none" font-size="8px" fill="#000000" x="67.83352795284512" y="3" transform="rotate(180 67.83352795284512 0)" font-family="sans-serif">ACTED_IN</text></g><g class="relationship" transform="translate(-157.15450517295926 116.39401384986857) rotate(406.915802386171)"><path class="outline" fill="#A5ABB6" stroke="none" d="M 25 0.5 L 56.22694488127598 0.5 L 56.22694488127598 -0.5 L 25 -0.5 Z M 101.78944488127598 0.5 L 133.01638976255197 0.5 L 133.01638976255197 3.5 L 140.01638976255197 0 L 133.01638976255197 -3.5 L 133.01638976255197 -0.5 L 101.78944488127598 -0.5 Z"/><text text-anchor="middle" pointer-events="none" font-size="8px" fill="#000000" x="79.00819488127598" y="3" font-family="sans-serif">ACTED_IN</text></g><g class="relationship" transform="translate(34.822586549955176 362.81015099277096) rotate(237.80722728668343)"><path class="outline" fill="#A5ABB6" stroke="none" d="M 25 0.5 L 48.10265427404558 0.5 L 48.10265427404558 -0.5 L 25 -0.5 Z M 93.66515427404558 0.5 L 116.76780854809115 0.5 L 116.76780854809115 3.5 L 123.76780854809115 0 L 116.76780854809115 -3.5 L 116.76780854809115 -0.5 L 93.66515427404558 -0.5 Z"/><text text-anchor="middle" pointer-events="none" font-size="8px" fill="#000000" x="70.88390427404558" y="3" transform="rotate(180 70.88390427404558 0)" font-family="sans-serif">ACTED_IN</text></g><g class="relationship" transform="translate(56.67728739026582 249.38595326584158) rotate(187.03176565629332)"><path class="outline" fill="#A5ABB6" stroke="none" d="M 25 0.5 L 26.88333619813706 0.5 L 26.88333619813706 -0.5 L 25 -0.5 Z M 67.99661744813706 0.5 L 69.87995364627412 0.5 L 69.87995364627412 3.5 L 76.87995364627412 0 L 69.87995364627412 -3.5 L 69.87995364627412 -0.5 L 67.99661744813706 -0.5 Z"/><text text-anchor="middle" pointer-events="none" font-size="8px" fill="#000000" x="47.43997682313706" y="3" transform="rotate(180 47.43997682313706 0)" font-family="sans-serif">ACTED…</text></g><g class="relationship" transform="translate(29.885925424363126 303.1249953599281) rotate(221.69673232366233)"><path class="outline" fill="#A5ABB6" stroke="none" d="M 25 0.5 L 25.712123066538012 0.5 L 25.712123066538012 -0.5 L 25 -0.5 Z M 66.82540431653801 0.5 L 67.53752738307602 0.5 L 67.53752738307602 3.5 L 74.53752738307602 0 L 67.53752738307602 -3.5 L 67.53752738307602 -0.5 L 66.82540431653801 -0.5 Z"/><text text-anchor="middle" pointer-events="none" font-size="8px" fill="#000000" x="46.26876369153801" y="3" transform="rotate(180 46.26876369153801 0)" font-family="sans-serif">ACTED…</text></g></g><g class="layer nodes"><g class="node" transform="translate(293.76747695781853,132.20342290308795)"><circle class="outline" cx="0" cy="0" r="25" fill="#57C7E3" stroke="#23b3d7" stroke-width="2px"/><text text-anchor="middle" pointer-events="none" font-family="sans-serif" dy="1.5625" font-size="25" fill="#2A2C34"/><text text-anchor="middle" pointer-events="none" font-family="sans-serif" dy="1.5625" font-size="25" fill="#2A2C34"/><text text-anchor="middle" pointer-events="none" x="0" y="0" font-size="10px" fill="#2A2C34" font-family="sans-serif"> Tom</text><text text-anchor="middle" pointer-events="none" x="0" y="10" font-size="10px" fill="#2A2C34" font-family="sans-serif"> Hanks</text></g><g class="node" transform="translate(85.9887410404483,179.0936156687636)"><circle class="outline" cx="0" cy="0" r="25" fill="#57C7E3" stroke="#23b3d7" stroke-width="2px"/><text text-anchor="middle" pointer-events="none" font-family="sans-serif" dy="1.5625" font-size="25" fill="#2A2C34"/><text text-anchor="middle" pointer-events="none" font-family="sans-serif" dy="1.5625" font-size="25" fill="#2A2C34"/><text text-anchor="middle" pointer-events="none" x="0" y="0" font-size="10px" fill="#2A2C34" font-family="sans-serif"> Hugo</text><text text-anchor="middle" pointer-events="none" x="0" y="10" font-size="10px" fill="#2A2C34" font-family="sans-serif"> Weaving</text></g><g class="node" transform="translate(176.820873000617,86.11927274091545)"><circle class="outline" cx="0" cy="0" r="25" fill="#F79767" stroke="#f36924" stroke-width="2px"/><text text-anchor="middle" pointer-events="none" font-family="sans-serif" dy="1.5625" font-size="25" fill="#FFFFFF"/><text text-anchor="middle" pointer-events="none" font-family="sans-serif" dy="1.5625" font-size="25" fill="#FFFFFF"/><text text-anchor="middle" pointer-events="none" x="0" y="0" font-size="10px" fill="#FFFFFF" font-family="sans-serif"> Cloud</text><text text-anchor="middle" pointer-events="none" x="0" y="10" font-size="10px" fill="#FFFFFF" font-family="sans-serif"> Atlas</text></g><g class="node" transform="translate(296.9296508844247,41.51422582466774)"><circle class="outline" cx="0" cy="0" r="25" fill="#57C7E3" stroke="#23b3d7" stroke-width="2px"/><text text-anchor="middle" pointer-events="none" font-family="sans-serif" dy="1.5625" font-size="25" fill="#2A2C34"/><text text-anchor="middle" pointer-events="none" font-family="sans-serif" dy="1.5625" font-size="25" fill="#2A2C34"/><text text-anchor="middle" pointer-events="none" x="0" y="0" font-size="10px" fill="#2A2C34" font-family="sans-serif"> Jim</text><text text-anchor="middle" pointer-events="none" x="0" y="10" font-size="10px" fill="#2A2C34" font-family="sans-serif"> Broadb…</text></g><g class="node" transform="translate(239.5017130097696,-24.910781064668434)"><circle class="outline" cx="0" cy="0" r="25" fill="#57C7E3" stroke="#23b3d7" stroke-width="2px"/><text text-anchor="middle" pointer-events="none" font-family="sans-serif" dy="1.5625" font-size="25" fill="#2A2C34"/><text text-anchor="middle" pointer-events="none" font-family="sans-serif" dy="1.5625" font-size="25" fill="#2A2C34"/><text text-anchor="middle" pointer-events="none" x="0" y="0" font-size="10px" fill="#2A2C34" font-family="sans-serif"> Halle</text><text text-anchor="middle" pointer-events="none" x="0" y="10" font-size="10px" fill="#2A2C34" font-family="sans-serif"> Berry</text></g><g class="node" transform="translate(109.81360813756264,-51.11046071667791)"><circle class="outline" cx="0" cy="0" r="25" fill="#57C7E3" stroke="#23b3d7" stroke-width="2px"/><text text-anchor="middle" pointer-events="none" font-family="sans-serif" dy="1.5625" font-size="25" fill="#2A2C34"/><text text-anchor="middle" pointer-events="none" x="0" y="5" font-size="10px" fill="#2A2C34" font-family="sans-serif"> Ben Miles</text></g><g class="node" transform="translate(39.11784938007812,50.977221327312805)"><circle class="outline" cx="0" cy="0" r="25" fill="#F79767" stroke="#f36924" stroke-width="2px"/><text text-anchor="middle" pointer-events="none" font-family="sans-serif" dy="1.5625" font-size="25" fill="#FFFFFF"/><text text-anchor="middle" pointer-events="none" font-family="sans-serif" dy="1.5625" font-size="25" fill="#FFFFFF"/><text text-anchor="middle" pointer-events="none" x="0" y="0" font-size="10px" fill="#FFFFFF" font-family="sans-serif"> V for</text><text text-anchor="middle" pointer-events="none" x="0" y="10" font-size="10px" fill="#FFFFFF" font-family="sans-serif"> Vendetta</text></g><g class="node" transform="translate(37.5624760979413,-78.30348074012481)"><circle class="outline" cx="0" cy="0" r="25" fill="#57C7E3" stroke="#23b3d7" stroke-width="2px"/><text text-anchor="middle" pointer-events="none" font-family="sans-serif" dy="1.5625" font-size="25" fill="#2A2C34"/><text text-anchor="middle" pointer-events="none" font-family="sans-serif" dy="1.5625" font-size="25" fill="#2A2C34"/><text text-anchor="middle" pointer-events="none" x="0" y="0" font-size="10px" fill="#2A2C34" font-family="sans-serif"> Natalie</text><text text-anchor="middle" pointer-events="none" x="0" y="10" font-size="10px" fill="#2A2C34" font-family="sans-serif"> Portman</text></g><g class="node" transform="translate(-36.07047747725872,-51.35715619398704)"><circle class="outline" cx="0" cy="0" r="25" fill="#57C7E3" stroke="#23b3d7" stroke-width="2px"/><text text-anchor="middle" pointer-events="none" font-family="sans-serif" dy="1.5625" font-size="25" fill="#2A2C34"/><text text-anchor="middle" pointer-events="none" x="0" y="5" font-size="10px" fill="#2A2C34" font-family="sans-serif"> John Hurt</text></g><g class="node" transform="translate(-76.67244960628204,19.31983788222456)"><circle class="outline" cx="0" cy="0" r="25" fill="#57C7E3" stroke="#23b3d7" stroke-width="2px"/><text text-anchor="middle" pointer-events="none" font-family="sans-serif" dy="1.5625" font-size="25" fill="#2A2C34"/><text text-anchor="middle" pointer-events="none" font-family="sans-serif" dy="1.5625" font-size="25" fill="#2A2C34"/><text text-anchor="middle" pointer-events="none" x="0" y="0" font-size="10px" fill="#2A2C34" font-family="sans-serif"> Stephen</text><text text-anchor="middle" pointer-events="none" x="0" y="10" font-size="10px" fill="#2A2C34" font-family="sans-serif"> Rea</text></g><g class="node" transform="translate(34.822586549955176,362.81015099277096)"><circle class="outline" cx="0" cy="0" r="25" fill="#57C7E3" stroke="#23b3d7" stroke-width="2px"/><text text-anchor="middle" pointer-events="none" font-family="sans-serif" dy="1.5625" font-size="25" fill="#2A2C34"/><text text-anchor="middle" pointer-events="none" font-family="sans-serif" dy="1.5625" font-size="25" fill="#2A2C34"/><text text-anchor="middle" pointer-events="none" x="0" y="0" font-size="10px" fill="#2A2C34" font-family="sans-serif"> Laurence</text><text text-anchor="middle" pointer-events="none" x="0" y="10" font-size="10px" fill="#2A2C34" font-family="sans-serif"> Fishbur…</text></g><g class="node" transform="translate(129.47431047334942,329.8766758334043)"><circle class="outline" cx="0" cy="0" r="25" fill="#F79767" stroke="#f36924" stroke-width="2px"/><text text-anchor="middle" pointer-events="none" font-family="sans-serif" dy="1.5625" font-size="25" fill="#FFFFFF"/><text text-anchor="middle" pointer-events="none" font-family="sans-serif" dy="1.5625" font-size="25" fill="#FFFFFF"/><text text-anchor="middle" pointer-events="none" font-family="sans-serif" dy="1.5625" font-size="25" fill="#FFFFFF"/><text text-anchor="middle" pointer-events="none" x="0" y="-5" font-size="10px" fill="#FFFFFF" font-family="sans-serif"> The</text><text text-anchor="middle" pointer-events="none" x="0" y="5" font-size="10px" fill="#FFFFFF" font-family="sans-serif"> Matrix</text><text text-anchor="middle" pointer-events="none" x="0" y="15" font-size="10px" fill="#FFFFFF" font-family="sans-serif"> Revol…</text></g><g class="node" transform="translate(56.67728739026582,249.38595326584158)"><circle class="outline" cx="0" cy="0" r="25" fill="#57C7E3" stroke="#23b3d7" stroke-width="2px"/><text text-anchor="middle" pointer-events="none" font-family="sans-serif" dy="1.5625" font-size="25" fill="#2A2C34"/><text text-anchor="middle" pointer-events="none" x="0" y="5" font-size="10px" fill="#2A2C34" font-family="sans-serif"> Carrie-A…</text></g><g class="node" transform="translate(29.885925424363126,303.1249953599281)"><circle class="outline" cx="0" cy="0" r="25" fill="#57C7E3" stroke="#23b3d7" stroke-width="2px"/><text text-anchor="middle" pointer-events="none" font-family="sans-serif" dy="1.5625" font-size="25" fill="#2A2C34"/><text text-anchor="middle" pointer-events="none" font-family="sans-serif" dy="1.5625" font-size="25" fill="#2A2C34"/><text text-anchor="middle" pointer-events="none" x="0" y="0" font-size="10px" fill="#2A2C34" font-family="sans-serif"> Keanu</text><text text-anchor="middle" pointer-events="none" x="0" y="10" font-size="10px" fill="#2A2C34" font-family="sans-serif"> Reeves</text></g><g class="node" transform="translate(150.0324882022419,273.595490919715)"><circle class="outline" cx="0" cy="0" r="25" fill="#F79767" stroke="#f36924" stroke-width="2px"/><text text-anchor="middle" pointer-events="none" font-family="sans-serif" dy="1.5625" font-size="25" fill="#FFFFFF"/><text text-anchor="middle" pointer-events="none" font-family="sans-serif" dy="1.5625" font-size="25" fill="#FFFFFF"/><text text-anchor="middle" pointer-events="none" font-family="sans-serif" dy="1.5625" font-size="25" fill="#FFFFFF"/><text text-anchor="middle" pointer-events="none" x="0" y="-5" font-size="10px" fill="#FFFFFF" font-family="sans-serif"> The</text><text text-anchor="middle" pointer-events="none" x="0" y="5" font-size="10px" fill="#FFFFFF" font-family="sans-serif"> Matrix</text><text text-anchor="middle" pointer-events="none" x="0" y="15" font-size="10px" fill="#FFFFFF" font-family="sans-serif"> Reloa…</text></g><g class="node" transform="translate(-157.15450517295926,116.39401384986857)"><circle class="outline" cx="0" cy="0" r="25" fill="#57C7E3" stroke="#23b3d7" stroke-width="2px"/><text text-anchor="middle" pointer-events="none" font-family="sans-serif" dy="1.5625" font-size="25" fill="#2A2C34"/><text text-anchor="middle" pointer-events="none" font-family="sans-serif" dy="1.5625" font-size="25" fill="#2A2C34"/><text text-anchor="middle" pointer-events="none" x="0" y="0" font-size="10px" fill="#2A2C34" font-family="sans-serif"> Emil</text><text text-anchor="middle" pointer-events="none" x="0" y="10" font-size="10px" fill="#2A2C34" font-family="sans-serif"> Eifrem</text></g><g class="node" transform="translate(-44.43636934593175,236.9138493374191)"><circle class="outline" cx="0" cy="0" r="25" fill="#F79767" stroke="#f36924" stroke-width="2px"/><text text-anchor="middle" pointer-events="none" font-family="sans-serif" dy="1.5625" font-size="25" fill="#FFFFFF"/><text text-anchor="middle" pointer-events="none" font-family="sans-serif" dy="1.5625" font-size="25" fill="#FFFFFF"/><text text-anchor="middle" pointer-events="none" x="0" y="0" font-size="10px" fill="#FFFFFF" font-family="sans-serif"> The</text><text text-anchor="middle" pointer-events="none" x="0" y="10" font-size="10px" fill="#FFFFFF" font-family="sans-serif"> Matrix</text></g></g></svg>