<svg xmlns="http://www.w3.org/2000/svg" width="467.9309387207031" height="360.7550048828125" viewBox="-105.34537506103516 -108.48208618164062 467.9309387207031 360.7550048828125"><title>Neo4j Graph Visualization</title><desc>Created using Neo4j (http://www.neo4j.com/)</desc><g class="layer relationships"><g class="relationship" transform="translate(222.56463370843016 105.61468051287517) rotate(223.40269122273594)"><path class="outline" fill="#A5ABB6" stroke="none" d="M 25 0.5 L 47.05659369828925 0.5 L 47.05659369828925 -0.5 L 25 -0.5 Z M 92.61909369828925 0.5 L 114.6756873965785 0.5 L 114.6756873965785 3.5 L 121.6756873965785 0 L 114.6756873965785 -3.5 L 114.6756873965785 -0.5 L 92.61909369828925 -0.5 Z"/><text text-anchor="middle" pointer-events="none" font-size="8px" fill="#000000" x="69.83784369828925" y="3" transform="rotate(180 69.83784369828925 0)" font-family="sans-serif">ACTED_IN</text></g><g class="relationship" transform="translate(222.56463370843016 105.61468051287517) rotate(435.83288050573935)"><path class="outline" fill="#A5ABB6" stroke="none" d="M 25 0.5 L 34.39320511887373 0.5 L 34.39320511887373 -0.5 L 25 -0.5 Z M 79.95570511887374 0.5 L 89.34891023774746 0.5 L 89.34891023774746 3.5 L 96.34891023774746 0 L 89.34891023774746 -3.5 L 89.34891023774746 -0.5 L 79.95570511887374 -0.5 Z"/><text text-anchor="middle" pointer-events="none" font-size="8px" fill="#000000" x="57.17445511887373" y="3" font-family="sans-serif">ACTED_IN</text></g><g class="relationship" transform="translate(222.56463370843016 105.61468051287517) rotate(376.11132268145354)"><path class="outline" fill="#A5ABB6" stroke="none" d="M 25 0.5 L 31.498558278462788 0.5 L 31.498558278462788 -0.5 L 25 -0.5 Z M 77.06105827846278 0.5 L 83.55961655692558 0.5 L 83.55961655692558 3.5 L 90.55961655692558 0 L 83.55961655692558 -3.5 L 83.55961655692558 -0.5 L 77.06105827846278 -0.5 Z"/><text text-anchor="middle" pointer-events="none" font-size="8px" fill="#000000" x="54.27980827846279" y="3" font-family="sans-serif">ACTED_IN</text></g><g class="relationship" transform="translate(222.56463370843016 105.61468051287517) rotate(208.2855255441524)"><path class="outline" fill="#A5ABB6" stroke="none" d="M 25 0.5 L 26.605242525765867 0.5 L 26.605242525765867 -0.5 L 25 -0.5 Z M 61.94118002576587 0.5 L 63.546422551531734 0.5 L 63.546422551531734 3.5 L 70.54642255153173 0 L 63.546422551531734 -3.5 L 63.546422551531734 -0.5 L 61.94118002576587 -0.5 Z"/><text text-anchor="middle" pointer-events="none" font-size="8px" fill="#000000" x="44.27321127576587" y="3" transform="rotate(180 44.27321127576587 0)" font-family="sans-serif">ACTE…</text></g><g class="relationship" transform="translate(222.56463370843016 105.61468051287517) rotate(242.90649208292353)"><path class="outline" fill="#A5ABB6" stroke="none" d="M 25 0.5 L 25.550690700060493 0.5 L 25.550690700060493 -0.5 L 25 -0.5 Z M 71.1131907000605 0.5 L 71.66388140012099 0.5 L 71.66388140012099 3.5 L 78.66388140012099 0 L 71.66388140012099 -3.5 L 71.66388140012099 -0.5 L 71.1131907000605 -0.5 Z"/><text text-anchor="middle" pointer-events="none" font-size="8px" fill="#000000" x="48.33194070006049" y="3" transform="rotate(180 48.33194070006049 0)" font-family="sans-serif">ACTED_IN</text></g><g class="relationship" transform="translate(210.083952107955 -63.232454040390735) rotate(504.11734306556554)"><path class="outline" fill="#A5ABB6" stroke="none" d="M 25 0.5 L 31.780467237834735 0.5 L 31.780467237834735 -0.5 L 25 -0.5 Z M 77.34296723783473 0.5 L 84.12343447566947 0.5 L 84.12343447566947 3.5 L 91.12343447566947 0 L 84.12343447566947 -3.5 L 84.12343447566947 -0.5 L 77.34296723783473 -0.5 Z"/><text text-anchor="middle" pointer-events="none" font-size="8px" fill="#000000" x="54.561717237834735" y="3" transform="rotate(180 54.561717237834735 0)" font-family="sans-serif">ACTED_IN</text></g><g class="relationship" transform="translate(210.083952107955 -63.232454040390735) rotate(480.1088983774368)"><path class="outline" fill="#A5ABB6" stroke="none" d="M 25 0.5 L 45.14097773081305 0.5 L 45.14097773081305 -0.5 L 25 -0.5 Z M 90.70347773081305 0.5 L 110.8444554616261 0.5 L 110.8444554616261 3.5 L 117.8444554616261 0 L 110.8444554616261 -3.5 L 110.8444554616261 -0.5 L 90.70347773081305 -0.5 Z"/><text text-anchor="middle" pointer-events="none" font-size="8px" fill="#000000" x="67.92222773081305" y="3" transform="rotate(180 67.92222773081305 0)" font-family="sans-serif">ACTED_IN</text></g><g class="relationship" transform="translate(210.083952107955 -63.232454040390735) rotate(474.40234075033106)"><path class="outline" fill="#A5ABB6" stroke="none" d="M 25 0.5 L 25.9778725176903 0.5 L 25.9778725176903 -0.5 L 25 -0.5 Z M 51.0911537676903 0.5 L 52.0690262853806 0.5 L 52.0690262853806 3.5 L 59.0690262853806 0 L 52.0690262853806 -3.5 L 52.0690262853806 -0.5 L 51.0911537676903 -0.5 Z"/><text text-anchor="middle" pointer-events="none" font-size="8px" fill="#000000" x="38.5345131426903" y="3" transform="rotate(180 38.5345131426903 0)" font-family="sans-serif">AC…</text></g><g class="relationship" transform="translate(107.73045135450998 -79.48208603694867) rotate(444.3992316248695)"><path class="outline" fill="#A5ABB6" stroke="none" d="M 25 0.5 L 26.30193937387245 0.5 L 26.30193937387245 -0.5 L 25 -0.5 Z M 51.41522062387245 0.5 L 52.7171599977449 0.5 L 52.7171599977449 3.5 L 59.7171599977449 0 L 52.7171599977449 -3.5 L 52.7171599977449 -0.5 L 51.41522062387245 -0.5 Z"/><text text-anchor="middle" pointer-events="none" font-size="8px" fill="#000000" x="38.85857999887245" y="3" font-family="sans-serif">AC…</text></g><g class="relationship" transform="translate(107.73045135450998 -79.48208603694867) rotate(437.61769644321873)"><path class="outline" fill="#A5ABB6" stroke="none" d="M 25 0.5 L 45.29398756809938 0.5 L 45.29398756809938 -0.5 L 25 -0.5 Z M 90.85648756809938 0.5 L 111.15047513619876 0.5 L 111.15047513619876 3.5 L 118.15047513619876 0 L 111.15047513619876 -3.5 L 111.15047513619876 -0.5 L 90.85648756809938 -0.5 Z"/><text text-anchor="middle" pointer-events="none" font-size="8px" fill="#000000" x="68.07523756809938" y="3" font-family="sans-serif">ACTED_IN</text></g><g class="relationship" transform="translate(107.73045135450998 -79.48208603694867) rotate(413.9225918340525)"><path class="outline" fill="#A5ABB6" stroke="none" d="M 25 0.5 L 31.13396845786044 0.5 L 31.13396845786044 -0.5 L 25 -0.5 Z M 76.69646845786045 0.5 L 82.83043691572088 0.5 L 82.83043691572088 3.5 L 89.83043691572088 0 L 82.83043691572088 -3.5 L 82.83043691572088 -0.5 L 76.69646845786045 -0.5 Z"/><text text-anchor="middle" pointer-events="none" font-size="8px" fill="#000000" x="53.91521845786044" y="3" font-family="sans-serif">ACTED_IN</text></g><g class="relationship" transform="translate(44.901230184491354 82.88451763533511) rotate(312.3295959881567)"><path class="outline" fill="#A5ABB6" stroke="none" d="M 25 0.5 L 26.508979419294057 0.5 L 26.508979419294057 -0.5 L 25 -0.5 Z M 72.07147941929406 0.5 L 73.58045883858811 0.5 L 73.58045883858811 3.5 L 80.58045883858811 0 L 73.58045883858811 -3.5 L 73.58045883858811 -0.5 L 72.07147941929406 -0.5 Z"/><text text-anchor="middle" pointer-events="none" font-size="8px" fill="#000000" x="49.29022941929406" y="3" font-family="sans-serif">ACTED_IN</text></g><g class="relationship" transform="translate(44.901230184491354 82.88451763533511) rotate(214.61201093795495)"><path class="outline" fill="#A5ABB6" stroke="none" d="M 25 0.5 L 34.91653304955913 0.5 L 34.91653304955913 -0.5 L 25 -0.5 Z M 80.47903304955912 0.5 L 90.39556609911826 0.5 L 90.39556609911826 3.5 L 97.39556609911826 0 L 90.39556609911826 -3.5 L 90.39556609911826 -0.5 L 80.47903304955912 -0.5 Z"/><text text-anchor="middle" pointer-events="none" font-size="8px" fill="#000000" x="57.69778304955913" y="3" transform="rotate(180 57.69778304955913 0)" font-family="sans-serif">ACTED_IN</text></g><g class="relationship" transform="translate(44.901230184491354 82.88451763533511) rotate(528.0855764415637)"><path class="outline" fill="#A5ABB6" stroke="none" d="M 25 0.5 L 35.67681256636799 0.5 L 35.67681256636799 -0.5 L 25 -0.5 Z M 81.239312566368 0.5 L 91.91612513273598 0.5 L 91.91612513273598 3.5 L 98.91612513273598 0 L 91.91612513273598 -3.5 L 91.91612513273598 -0.5 L 81.239312566368 -0.5 Z"/><text text-anchor="middle" pointer-events="none" font-size="8px" fill="#000000" x="58.45806256636799" y="3" transform="rotate(180 58.45806256636799 0)" font-family="sans-serif">ACTED_IN</text></g><g class="relationship" transform="translate(44.901230184491354 82.88451763533511) rotate(485.92634624906736)"><path class="outline" fill="#A5ABB6" stroke="none" d="M 25 0.5 L 36.76579377022715 0.5 L 36.76579377022715 -0.5 L 25 -0.5 Z M 82.32829377022715 0.5 L 94.0940875404543 0.5 L 94.0940875404543 3.5 L 101.0940875404543 0 L 94.0940875404543 -3.5 L 94.0940875404543 -0.5 L 82.32829377022715 -0.5 Z"/><text text-anchor="middle" pointer-events="none" font-size="8px" fill="#000000" x="59.54704377022715" y="3" transform="rotate(180 59.54704377022715 0)" font-family="sans-serif">ACTED_IN</text></g><g class="relationship" transform="translate(44.901230184491354 82.88451763533511) rotate(446.17989299647803)"><path class="outline" fill="#A5ABB6" stroke="none" d="M 25 0.5 L 36.67149591859144 0.5 L 36.67149591859144 -0.5 L 25 -0.5 Z M 82.23399591859143 0.5 L 93.90549183718288 0.5 L 93.90549183718288 3.5 L 100.90549183718288 0 L 93.90549183718288 -3.5 L 93.90549183718288 -0.5 L 82.23399591859143 -0.5 Z"/><text text-anchor="middle" pointer-events="none" font-size="8px" fill="#000000" x="59.45274591859144" y="3" font-family="sans-serif">ACTED_IN</text></g><g class="relationship" transform="translate(44.901230184491354 82.88451763533511) rotate(346.4464158820973)"><path class="outline" fill="#A5ABB6" stroke="none" d="M 25 0.5 L 26.934375941710854 0.5 L 26.934375941710854 -0.5 L 25 -0.5 Z M 62.270313441710854 0.5 L 64.20468938342171 0.5 L 64.20468938342171 3.5 L 71.20468938342171 0 L 64.20468938342171 -3.5 L 64.20468938342171 -0.5 L 62.270313441710854 -0.5 Z"/><text text-anchor="middle" pointer-events="none" font-size="8px" fill="#000000" x="44.602344691710854" y="3" font-family="sans-serif">ACTE…</text></g><g class="relationship" transform="translate(44.901230184491354 82.88451763533511) rotate(331.9327776798124)"><path class="outline" fill="#A5ABB6" stroke="none" d="M 25 0.5 L 47.63696856564836 0.5 L 47.63696856564836 -0.5 L 25 -0.5 Z M 93.19946856564836 0.5 L 115.83643713129672 0.5 L 115.83643713129672 3.5 L 122.83643713129672 0 L 115.83643713129672 -3.5 L 115.83643713129672 -0.5 L 93.19946856564836 -0.5 Z"/><text text-anchor="middle" pointer-events="none" font-size="8px" fill="#000000" x="70.41821856564836" y="3" font-family="sans-serif">ACTED_IN</text></g></g><g class="layer nodes"><g class="node" transform="translate(222.56463370843016,105.61468051287517)"><circle class="outline" cx="0" cy="0" r="25" fill="#57C7E3" stroke="#23b3d7" stroke-width="2px"/><text text-anchor="middle" pointer-events="none" font-family="sans-serif" dy="1.5625" font-size="25" fill="#2A2C34"/><text text-anchor="middle" pointer-events="none" font-family="sans-serif" dy="1.5625" font-size="25" fill="#2A2C34"/><text text-anchor="middle" pointer-events="none" x="0" y="0" font-size="10px" fill="#2A2C34" font-family="sans-serif"> Hugo</text><text text-anchor="middle" pointer-events="none" x="0" y="10" font-size="10px" fill="#2A2C34" font-family="sans-serif"> Weaving</text></g><g class="node" transform="translate(252.2649016780307,223.27288081537347)"><circle class="outline" cx="0" cy="0" r="25" fill="#F79767" stroke="#f36924" stroke-width="2px"/><text text-anchor="middle" pointer-events="none" font-family="sans-serif" dy="1.5625" font-size="25" fill="#FFFFFF"/><text text-anchor="middle" pointer-events="none" font-family="sans-serif" dy="1.5625" font-size="25" fill="#FFFFFF"/><text text-anchor="middle" pointer-events="none" x="0" y="0" font-size="10px" fill="#FFFFFF" font-family="sans-serif"> Cloud</text><text text-anchor="middle" pointer-events="none" x="0" y="10" font-size="10px" fill="#FFFFFF" font-family="sans-serif"> Atlas</text></g><g class="node" transform="translate(115.99852817786423,4.830641968534701)"><circle class="outline" cx="0" cy="0" r="25" fill="#F79767" stroke="#f36924" stroke-width="2px"/><text text-anchor="middle" pointer-events="none" font-family="sans-serif" dy="1.5625" font-size="25" fill="#FFFFFF"/><text text-anchor="middle" pointer-events="none" font-family="sans-serif" dy="1.5625" font-size="25" fill="#FFFFFF"/><text text-anchor="middle" pointer-events="none" x="0" y="0" font-size="10px" fill="#FFFFFF" font-family="sans-serif"> The</text><text text-anchor="middle" pointer-events="none" x="0" y="10" font-size="10px" fill="#FFFFFF" font-family="sans-serif"> Matrix</text></g><g class="node" transform="translate(333.5855692480148,137.68299588333178)"><circle class="outline" cx="0" cy="0" r="25" fill="#F79767" stroke="#f36924" stroke-width="2px"/><text text-anchor="middle" pointer-events="none" font-family="sans-serif" dy="1.5625" font-size="25" fill="#FFFFFF"/><text text-anchor="middle" pointer-events="none" font-family="sans-serif" dy="1.5625" font-size="25" fill="#FFFFFF"/><text text-anchor="middle" pointer-events="none" x="0" y="0" font-size="10px" fill="#FFFFFF" font-family="sans-serif"> V for</text><text text-anchor="middle" pointer-events="none" x="0" y="10" font-size="10px" fill="#FFFFFF" font-family="sans-serif"> Vendetta</text></g><g class="node" transform="translate(138.4267317771469,60.3385022179085)"><circle class="outline" cx="0" cy="0" r="25" fill="#F79767" stroke="#f36924" stroke-width="2px"/><text text-anchor="middle" pointer-events="none" font-family="sans-serif" dy="1.5625" font-size="25" fill="#FFFFFF"/><text text-anchor="middle" pointer-events="none" font-family="sans-serif" dy="1.5625" font-size="25" fill="#FFFFFF"/><text text-anchor="middle" pointer-events="none" font-family="sans-serif" dy="1.5625" font-size="25" fill="#FFFFFF"/><text text-anchor="middle" pointer-events="none" x="0" y="-5" font-size="10px" fill="#FFFFFF" font-family="sans-serif"> The</text><text text-anchor="middle" pointer-events="none" x="0" y="5" font-size="10px" fill="#FFFFFF" font-family="sans-serif"> Matrix</text><text text-anchor="middle" pointer-events="none" x="0" y="15" font-size="10px" fill="#FFFFFF" font-family="sans-serif"> Revol…</text></g><g class="node" transform="translate(175.35153718867366,13.326415690339331)"><circle class="outline" cx="0" cy="0" r="25" fill="#F79767" stroke="#f36924" stroke-width="2px"/><text text-anchor="middle" pointer-events="none" font-family="sans-serif" dy="1.5625" font-size="25" fill="#FFFFFF"/><text text-anchor="middle" pointer-events="none" font-family="sans-serif" dy="1.5625" font-size="25" fill="#FFFFFF"/><text text-anchor="middle" pointer-events="none" font-family="sans-serif" dy="1.5625" font-size="25" fill="#FFFFFF"/><text text-anchor="middle" pointer-events="none" x="0" y="-5" font-size="10px" fill="#FFFFFF" font-family="sans-serif"> The</text><text text-anchor="middle" pointer-events="none" x="0" y="5" font-size="10px" fill="#FFFFFF" font-family="sans-serif"> Matrix</text><text text-anchor="middle" pointer-events="none" x="0" y="15" font-size="10px" fill="#FFFFFF" font-family="sans-serif"> Reloa…</text></g><g class="node" transform="translate(210.083952107955,-63.232454040390735)"><circle class="outline" cx="0" cy="0" r="25" fill="#57C7E3" stroke="#23b3d7" stroke-width="2px"/><text text-anchor="middle" pointer-events="none" font-family="sans-serif" dy="1.5625" font-size="25" fill="#2A2C34"/><text text-anchor="middle" pointer-events="none" font-family="sans-serif" dy="1.5625" font-size="25" fill="#2A2C34"/><text text-anchor="middle" pointer-events="none" x="0" y="0" font-size="10px" fill="#2A2C34" font-family="sans-serif"> Laurence</text><text text-anchor="middle" pointer-events="none" x="0" y="10" font-size="10px" fill="#2A2C34" font-family="sans-serif"> Fishbur…</text></g><g class="node" transform="translate(107.73045135450998,-79.48208603694867)"><circle class="outline" cx="0" cy="0" r="25" fill="#57C7E3" stroke="#23b3d7" stroke-width="2px"/><text text-anchor="middle" pointer-events="none" font-family="sans-serif" dy="1.5625" font-size="25" fill="#2A2C34"/><text text-anchor="middle" pointer-events="none" x="0" y="5" font-size="10px" fill="#2A2C34" font-family="sans-serif"> Carrie-A…</text></g><g class="node" transform="translate(44.901230184491354,82.88451763533511)"><circle class="outline" cx="0" cy="0" r="25" fill="#57C7E3" stroke="#23b3d7" stroke-width="2px"/><text text-anchor="middle" pointer-events="none" font-family="sans-serif" dy="1.5625" font-size="25" fill="#2A2C34"/><text text-anchor="middle" pointer-events="none" font-family="sans-serif" dy="1.5625" font-size="25" fill="#2A2C34"/><text text-anchor="middle" pointer-events="none" x="0" y="0" font-size="10px" fill="#2A2C34" font-family="sans-serif"> Keanu</text><text text-anchor="middle" pointer-events="none" x="0" y="10" font-size="10px" fill="#2A2C34" font-family="sans-serif"> Reeves</text></g><g class="node" transform="translate(-55.832439765414414,13.361842635396574)"><circle class="outline" cx="0" cy="0" r="25" fill="#F79767" stroke="#f36924" stroke-width="2px"/><text text-anchor="middle" pointer-events="none" font-family="sans-serif" dy="1.5625" font-size="25" fill="#FFFFFF"/><text text-anchor="middle" pointer-events="none" font-family="sans-serif" dy="1.5625" font-size="25" fill="#FFFFFF"/><text text-anchor="middle" pointer-events="none" x="0" y="0" font-size="10px" fill="#FFFFFF" font-family="sans-serif"> The</text><text text-anchor="middle" pointer-events="none" x="0" y="10" font-size="10px" fill="#FFFFFF" font-family="sans-serif"> Replac…</text></g><g class="node" transform="translate(-76.34537538464805,108.46706453499736)"><circle class="outline" cx="0" cy="0" r="25" fill="#F79767" stroke="#f36924" stroke-width="2px"/><text text-anchor="middle" pointer-events="none" font-family="sans-serif" dy="1.5625" font-size="25" fill="#FFFFFF"/><text text-anchor="middle" pointer-events="none" font-family="sans-serif" dy="1.5625" font-size="25" fill="#FFFFFF"/><text text-anchor="middle" pointer-events="none" x="0" y="0" font-size="10px" fill="#FFFFFF" font-family="sans-serif"> Johnny</text><text text-anchor="middle" pointer-events="none" x="0" y="10" font-size="10px" fill="#FFFFFF" font-family="sans-serif"> Mnemo…</text></g><g class="node" transform="translate(-29.08381686341292,184.991969498454)"><circle class="outline" cx="0" cy="0" r="25" fill="#F79767" stroke="#f36924" stroke-width="2px"/><text text-anchor="middle" pointer-events="none" font-family="sans-serif" dy="1.5625" font-size="25" fill="#FFFFFF"/><text text-anchor="middle" pointer-events="none" x="0" y="5" font-size="10px" fill="#FFFFFF" font-family="sans-serif"> Somethi…</text></g><g class="node" transform="translate(53.28956499881371,208.5102662452668)"><circle class="outline" cx="0" cy="0" r="25" fill="#F79767" stroke="#f36924" stroke-width="2px"/><text text-anchor="middle" pointer-events="none" font-family="sans-serif" dy="1.5625" font-size="25" fill="#FFFFFF"/><text text-anchor="middle" pointer-events="none" font-family="sans-serif" dy="1.5625" font-size="25" fill="#FFFFFF"/><text text-anchor="middle" pointer-events="none" font-family="sans-serif" dy="1.5625" font-size="25" fill="#FFFFFF"/><text text-anchor="middle" pointer-events="none" x="0" y="-5" font-size="10px" fill="#FFFFFF" font-family="sans-serif"> The</text><text text-anchor="middle" pointer-events="none" x="0" y="5" font-size="10px" fill="#FFFFFF" font-family="sans-serif"> Devil's</text><text text-anchor="middle" pointer-events="none" x="0" y="15" font-size="10px" fill="#FFFFFF" font-family="sans-serif"> Advoc…</text></g></g></svg>