<svg xmlns="http://www.w3.org/2000/svg" width="359.6874694824219" height="370.31201171875" viewBox="-92.82794952392578 -78.4981689453125 359.6874694824219 370.31201171875"><title>Neo4j Graph Visualization</title><desc>Created using Neo4j (http://www.neo4j.com/)</desc><g class="layer relationships"><g class="relationship" transform="translate(130.88789611470844 262.8138290768554) rotate(334.2665016051849)"><path class="outline" fill="#A5ABB6" stroke="none" d="M 21.40063509461097,12.933012701892217 L 21.90063509461097,12.06698729810778 A 58.14705211507806 58.14705211507806 0 0 0 26.67783045775684,14.537882860441584 L 26.259987595382515,15.44640217358954 A 59.14705211507806 59.14705211507806 0 0 1 21.40063509461097,12.933012701892217 Z M 72.2782331506163,16.887244215228222 L 71.91804492082902,15.954364566440283 A 58.14705211507806 58.14705211507806 0 0 0 76.84046009443892,13.787166080782416 L 75.50593161871686,11.100340119264452 L 83.33214208393453,11.121070631017247 L 78.61983139540169,17.369600696139702 L 77.28530291967962,14.682774734621738 A 59.14705211507806 59.14705211507806 0 0 1 72.2782331506163,16.887244215228222"/><text text-anchor="middle" pointer-events="none" font-size="8px" fill="#000000" x="49.13880762698328" y="23.328489490508836" font-family="sans-serif">DIRECTED</text></g><g class="relationship" transform="translate(130.88789611470844 262.8138290768554) rotate(334.2665016051849)"><path class="outline" fill="#A5ABB6" stroke="none" d="M 25 0.5 L 31.474460464958774 0.5 L 31.474460464958774 -0.5 L 25 -0.5 Z M 67.24789796495878 0.5 L 73.72235842991755 0.5 L 73.72235842991755 3.5 L 80.72235842991755 0 L 73.72235842991755 -3.5 L 73.72235842991755 -0.5 L 67.24789796495878 -0.5 Z"/><text text-anchor="middle" pointer-events="none" font-size="8px" fill="#000000" x="49.361179214958774" y="3" font-family="sans-serif">WROTE</text></g><g class="relationship" transform="translate(237.85951641035794 2.6395550140986948) rotate(525.2457034103919)"><path class="outline" fill="#A5ABB6" stroke="none" d="M 24.018736134675446,6.953439040707552 L 24.277555179777966,5.987513214418485 A 101.58293019464824 101.58293019464824 0 0 0 25.8421460380286,6.393430417831112 L 25.598729096953324,7.363352163539275 A 102.58293019464824 102.58293019464824 0 0 1 24.018736134675446,6.953439040707552 Z M 72.2997221693195,8.12081209824754 L 72.08788799811174,7.143506473630197 A 101.58293019464824 101.58293019464824 0 0 0 73.66481985358278,6.788542738935734 L 72.98274656712053,3.8671088389656223 L 80.59517783459009,5.683944053852151 L 74.57425090219914,10.683787938895883 L 73.89217761573688,7.762354038925771 A 102.58293019464824 102.58293019464824 0 0 1 72.2997221693195,8.12081209824754"/><text text-anchor="middle" pointer-events="none" font-size="8px" fill="#000000" x="48.91365073815963" y="12.93544292495379" transform="rotate(180 48.91365073815963 9.93544292495379)" font-family="sans-serif">DIRECTED</text></g><g class="relationship" transform="translate(237.85951641035794 2.6395550140986948) rotate(525.2457034103919)"><path class="outline" fill="#A5ABB6" stroke="none" d="M 24.018736134675446,-6.953439040707552 L 24.277555179777966,-5.987513214418485 A 101.58293019464824 101.58293019464824 0 0 1 31.241137862607907,-7.593163249557932 L 31.05086953433829,-8.574895373539562 A 102.58293019464824 102.58293019464824 0 0 0 24.018736134675446,-6.953439040707552 Z M 66.8111589786377,-9.1549041640519 L 66.6528284769027,-8.167517992272934 A 101.58293019464824 101.58293019464824 0 0 1 73.66481985358278,-6.788542738935734 L 72.98274656712053,-3.8671088389656223 L 80.59517783459009,-5.683944053852151 L 74.57425090219914,-10.683787938895883 L 73.89217761573688,-7.762354038925771 A 102.58293019464824 102.58293019464824 0 0 0 66.8111589786377,-9.1549041640519"/><text text-anchor="middle" pointer-events="none" font-size="8px" fill="#000000" x="48.91365073815961" y="-6.93544292495379" transform="rotate(180 48.91365073815961 -9.93544292495379)" font-family="sans-serif">WROTE</text></g><g class="relationship" transform="translate(66.3010290608553 -49.498166712311516) rotate(408.3756076451349)"><path class="outline" fill="#A5ABB6" stroke="none" d="M 24.018736134675446,6.953439040707552 L 24.277555179777966,5.987513214418485 A 102.70418834241222 102.70418834241222 0 0 0 26.116121785224408,6.461983870487131 L 25.875204313905,7.432529475810796 A 103.70418834241222 103.70418834241222 0 0 1 24.018736134675446,6.953439040707552 Z M 72.58268954875443,8.186314269476028 L 72.37321551726751,7.2085000590389825 A 102.70418834241222 102.70418834241222 0 0 0 74.22613508984523,6.793604139932284 L 73.5435890223757,3.872280661475666 L 81.15631421748893,5.6878838955794695 L 75.13619651313795,10.688702111207775 L 74.45365044566842,7.767378632751156 A 103.70418834241222 103.70418834241222 0 0 1 72.58268954875443,8.186314269476028"/><text text-anchor="middle" pointer-events="none" font-size="8px" fill="#000000" x="49.19401993677412" y="12.97363650819048" font-family="sans-serif">DIRECTED</text></g><g class="relationship" transform="translate(66.3010290608553 -49.498166712311516) rotate(408.3756076451349)"><path class="outline" fill="#A5ABB6" stroke="none" d="M 24.018736134675446,-6.953439040707552 L 24.277555179777966,-5.987513214418485 A 102.70418834241222 102.70418834241222 0 0 1 31.518138672782726,-7.6494686366473985 L 31.3298190260968,-8.631576426389486 A 103.70418834241222 103.70418834241222 0 0 0 24.018736134675446,-6.953439040707552 Z M 67.09222403045041,-9.208724969960954 L 66.9356935261832,-8.22105184527149 A 102.70418834241222 102.70418834241222 0 0 1 74.22613508984523,-6.793604139932284 L 73.5435890223757,-3.872280661475666 L 81.15631421748893,-5.6878838955794695 L 75.13619651313795,-10.688702111207775 L 74.45365044566842,-7.767378632751156 A 103.70418834241222 103.70418834241222 0 0 0 67.09222403045041,-9.208724969960954"/><text text-anchor="middle" pointer-events="none" font-size="8px" fill="#000000" x="49.19401993677411" y="-6.973636508190481" font-family="sans-serif">WROTE</text></g><g class="relationship" transform="translate(-63.82794825216298 85.63434721623663) rotate(434.44485901746964)"><path class="outline" fill="#A5ABB6" stroke="none" d="M 21.40063509461097,12.933012701892217 L 21.90063509461097,12.06698729810778 A 57.58556820513224 57.58556820513224 0 0 0 26.421746802470786,14.416950724793871 L 26.00025799631287,15.323784329312126 A 58.58556820513224 58.58556820513224 0 0 1 21.40063509461097,12.933012701892217 Z M 71.99797633175366,16.77100110464118 L 71.63432777823992,15.839464884450372 A 57.58556820513224 57.58556820513224 0 0 0 76.29422397226674,13.778361625852277 L 74.96051456001118,11.091128996610635 L 82.78671834253983,11.114245102129594 L 78.07250318860747,17.361338464841133 L 76.73879377635191,14.67410583559949 A 58.58556820513224 58.58556820513224 0 0 1 71.99797633175366,16.77100110464118"/><text text-anchor="middle" pointer-events="none" font-size="8px" fill="#000000" x="48.866788755197526" y="23.25326220464848" font-family="sans-serif">DIRECTED</text></g><g class="relationship" transform="translate(-63.82794825216298 85.63434721623663) rotate(434.44485901746964)"><path class="outline" fill="#A5ABB6" stroke="none" d="M 25 0.5 L 31.20344304311007 0.5 L 31.20344304311007 -0.5 L 25 -0.5 Z M 66.97688054311007 0.5 L 73.18032358622014 0.5 L 73.18032358622014 3.5 L 80.18032358622014 0 L 73.18032358622014 -3.5 L 73.18032358622014 -0.5 L 66.97688054311007 -0.5 Z"/><text text-anchor="middle" pointer-events="none" font-size="8px" fill="#000000" x="49.09016179311007" y="3" font-family="sans-serif">WROTE</text></g><g class="relationship" transform="translate(130.88789611470844 262.8138290768554) rotate(334.2665016051849)"><path class="outline" fill="#A5ABB6" stroke="none" d="M 21.40063509461097,-12.933012701892217 L 21.90063509461097,-12.06698729810778 A 58.14705211507806 58.14705211507806 0 0 1 24.496912142925407,-13.47921703563265 L 24.041562335048237,-14.369529650654037 A 59.14705211507806 59.14705211507806 0 0 0 21.40063509461097,-12.933012701892217 Z M 74.5596813082211,-15.951263782471116 L 74.16092060396517,-15.034208767359537 A 58.14705211507806 58.14705211507806 0 0 1 76.84046009443892,-13.787166080782416 L 75.50593161871686,-11.100340119264452 L 83.33214208393453,-11.121070631017247 L 78.61983139540169,-17.369600696139702 L 77.28530291967962,-14.682774734621738 A 59.14705211507806 59.14705211507806 0 0 0 74.5596813082211,-15.951263782471116"/><text text-anchor="middle" pointer-events="none" font-size="8px" fill="#000000" x="49.13880762698326" y="-17.328489490508836" font-family="sans-serif">PRODUCED</text></g><g class="relationship" transform="translate(-63.82794825216298 85.63434721623663) rotate(434.44485901746964)"><path class="outline" fill="#A5ABB6" stroke="none" d="M 21.40063509461097,-12.933012701892217 L 21.90063509461097,-12.06698729810778 A 57.58556820513224 57.58556820513224 0 0 1 24.24549762532865,-13.349184827963555 L 23.78621724664705,-14.237476184309031 A 58.58556820513224 58.58556820513224 0 0 0 21.40063509461097,-12.933012701892217 Z M 74.27592700621041,-15.826023564261035 L 73.87339599846356,-14.910617213069223 A 57.58556820513224 57.58556820513224 0 0 1 76.29422397226674,-13.778361625852277 L 74.96051456001118,-11.091128996610635 L 82.78671834253983,-11.114245102129594 L 78.07250318860747,-17.361338464841133 L 76.73879377635191,-14.67410583559949 A 58.58556820513224 58.58556820513224 0 0 0 74.27592700621041,-15.826023564261035"/><text text-anchor="middle" pointer-events="none" font-size="8px" fill="#000000" x="48.866788755197526" y="-17.25326220464848" font-family="sans-serif">PRODUCED</text></g></g><g class="layer nodes"><g class="node" transform="translate(130.88789611470844,262.8138290768554)"><circle class="outline" cx="0" cy="0" r="25" fill="#57C7E3" stroke="#23b3d7" stroke-width="2px"/><text text-anchor="middle" pointer-events="none" font-family="sans-serif" dy="1.5625" font-size="25" fill="#2A2C34"/><text text-anchor="middle" pointer-events="none" font-family="sans-serif" dy="1.5625" font-size="25" fill="#2A2C34"/><text text-anchor="middle" pointer-events="none" x="0" y="0" font-size="10px" fill="#2A2C34" font-family="sans-serif"> Cameron</text><text text-anchor="middle" pointer-events="none" x="0" y="10" font-size="10px" fill="#2A2C34" font-family="sans-serif"> Crowe</text></g><g class="node" transform="translate(226.12506260353288,216.91067895440855)"><circle class="outline" cx="0" cy="0" r="25" fill="#F79767" stroke="#f36924" stroke-width="2px"/><text text-anchor="middle" pointer-events="none" font-family="sans-serif" dy="1.5625" font-size="25" fill="#FFFFFF"/><text text-anchor="middle" pointer-events="none" font-family="sans-serif" dy="1.5625" font-size="25" fill="#FFFFFF"/><text text-anchor="middle" pointer-events="none" x="0" y="0" font-size="10px" fill="#FFFFFF" font-family="sans-serif"> Jerry</text><text text-anchor="middle" pointer-events="none" x="0" y="10" font-size="10px" fill="#FFFFFF" font-family="sans-serif"> Maguire</text></g><g class="node" transform="translate(237.85951641035794,2.6395550140986948)"><circle class="outline" cx="0" cy="0" r="25" fill="#57C7E3" stroke="#23b3d7" stroke-width="2px"/><text text-anchor="middle" pointer-events="none" font-family="sans-serif" dy="1.5625" font-size="25" fill="#2A2C34"/><text text-anchor="middle" pointer-events="none" font-family="sans-serif" dy="1.5625" font-size="25" fill="#2A2C34"/><text text-anchor="middle" pointer-events="none" x="0" y="0" font-size="10px" fill="#2A2C34" font-family="sans-serif"> Lana</text><text text-anchor="middle" pointer-events="none" x="0" y="10" font-size="10px" fill="#2A2C34" font-family="sans-serif"> Wacho…</text></g><g class="node" transform="translate(136.3792742781099,29.36521070228922)"><circle class="outline" cx="0" cy="0" r="25" fill="#F79767" stroke="#f36924" stroke-width="2px"/><text text-anchor="middle" pointer-events="none" font-family="sans-serif" dy="1.5625" font-size="25" fill="#FFFFFF"/><text text-anchor="middle" pointer-events="none" font-family="sans-serif" dy="1.5625" font-size="25" fill="#FFFFFF"/><text text-anchor="middle" pointer-events="none" x="0" y="0" font-size="10px" fill="#FFFFFF" font-family="sans-serif"> Speed</text><text text-anchor="middle" pointer-events="none" x="0" y="10" font-size="10px" fill="#FFFFFF" font-family="sans-serif"> Racer</text></g><g class="node" transform="translate(66.3010290608553,-49.498166712311516)"><circle class="outline" cx="0" cy="0" r="25" fill="#57C7E3" stroke="#23b3d7" stroke-width="2px"/><text text-anchor="middle" pointer-events="none" font-family="sans-serif" dy="1.5625" font-size="25" fill="#2A2C34"/><text text-anchor="middle" pointer-events="none" font-family="sans-serif" dy="1.5625" font-size="25" fill="#2A2C34"/><text text-anchor="middle" pointer-events="none" x="0" y="0" font-size="10px" fill="#2A2C34" font-family="sans-serif"> Andy</text><text text-anchor="middle" pointer-events="none" x="0" y="10" font-size="10px" fill="#2A2C34" font-family="sans-serif"> Wacho…</text></g><g class="node" transform="translate(-63.82794825216298,85.63434721623663)"><circle class="outline" cx="0" cy="0" r="25" fill="#57C7E3" stroke="#23b3d7" stroke-width="2px"/><text text-anchor="middle" pointer-events="none" font-family="sans-serif" dy="1.5625" font-size="25" fill="#2A2C34"/><text text-anchor="middle" pointer-events="none" font-family="sans-serif" dy="1.5625" font-size="25" fill="#2A2C34"/><text text-anchor="middle" pointer-events="none" x="0" y="0" font-size="10px" fill="#2A2C34" font-family="sans-serif"> Nancy</text><text text-anchor="middle" pointer-events="none" x="0" y="10" font-size="10px" fill="#2A2C34" font-family="sans-serif"> Meyers</text></g><g class="node" transform="translate(-35.62219923871081,186.96221205257925)"><circle class="outline" cx="0" cy="0" r="25" fill="#F79767" stroke="#f36924" stroke-width="2px"/><text text-anchor="middle" pointer-events="none" font-family="sans-serif" dy="1.5625" font-size="25" fill="#FFFFFF"/><text text-anchor="middle" pointer-events="none" x="0" y="5" font-size="10px" fill="#FFFFFF" font-family="sans-serif"> Somethi…</text></g></g></svg>