<svg xmlns="http://www.w3.org/2000/svg" width="189.0975341796875" height="213.1857452392578" viewBox="-5.09918212890625 4.965900421142578 189.0975341796875 213.1857452392578"><title>Neo4j Graph Visualization</title><desc>Created using Neo4j (http://www.neo4j.com/)</desc><g class="layer relationships"><g class="relationship" transform="translate(23.90081839500953 82.19735076573328) rotate(351.9323788354807)"><path class="outline" fill="#A5ABB6" stroke="none" d="M 25 0.5 L 39.92272660450742 0.5 L 39.92272660450742 -0.5 L 25 -0.5 Z M 85.48522660450742 0.5 L 100.40795320901483 0.5 L 100.40795320901483 3.5 L 107.40795320901483 0 L 100.40795320901483 -3.5 L 100.40795320901483 -0.5 L 85.48522660450742 -0.5 Z"/><text text-anchor="middle" pointer-events="none" font-size="8px" fill="#000000" x="62.70397660450742" y="3" font-family="sans-serif">ACTED_IN</text></g><g class="relationship" transform="translate(154.4195691388599 156.02395259751972) rotate(270.35885130786414)"><path class="outline" fill="#A5ABB6" stroke="none" d="M 25 0.5 L 25.037419018155234 0.5 L 25.037419018155234 -0.5 L 25 -0.5 Z M 60.373356518155234 0.5 L 60.41077553631047 0.5 L 60.41077553631047 3.5 L 67.41077553631047 0 L 60.41077553631047 -3.5 L 60.41077553631047 -0.5 L 60.373356518155234 -0.5 Z"/><text text-anchor="middle" pointer-events="none" font-size="8px" fill="#000000" x="42.705387768155234" y="3" font-family="sans-serif">ACTE…</text></g><g class="relationship" transform="translate(23.90081839500953 82.19735076573328) rotate(328.5944077414916)"><path class="outline" fill="#A5ABB6" stroke="none" d="M 25 0.5 L 25.11115610688961 0.5 L 25.11115610688961 -0.5 L 25 -0.5 Z M 60.44709360688961 0.5 L 60.55824971377922 0.5 L 60.55824971377922 3.5 L 67.55824971377922 0 L 60.55824971377922 -3.5 L 60.55824971377922 -0.5 L 60.44709360688961 -0.5 Z"/><text text-anchor="middle" pointer-events="none" font-size="8px" fill="#000000" x="42.77912485688961" y="3" font-family="sans-serif">ACTE…</text></g><g class="relationship" transform="translate(154.4195691388599 156.02395259751972) rotate(247.11555674825394)"><path class="outline" fill="#A5ABB6" stroke="none" d="M 25 0.5 L 39.961689986331336 0.5 L 39.961689986331336 -0.5 L 25 -0.5 Z M 85.52418998633134 0.5 L 100.48587997266267 0.5 L 100.48587997266267 3.5 L 107.48587997266267 0 L 100.48587997266267 -3.5 L 100.48587997266267 -0.5 L 85.52418998633134 -0.5 Z"/><text text-anchor="middle" pointer-events="none" font-size="8px" fill="#000000" x="62.742939986331336" y="3" transform="rotate(180 62.742939986331336 0)" font-family="sans-serif">ACTED_IN</text></g><g class="relationship" transform="translate(23.90081839500953 82.19735076573328) rotate(436.5196706893711)"><path class="outline" fill="#A5ABB6" stroke="none" d="M 25 0.5 L 28.710932046114124 0.5 L 28.710932046114124 -0.5 L 25 -0.5 Z M 74.27343204611412 0.5 L 77.98436409222825 0.5 L 77.98436409222825 3.5 L 84.98436409222825 0 L 77.98436409222825 -3.5 L 77.98436409222825 -0.5 L 74.27343204611412 -0.5 Z"/><text text-anchor="middle" pointer-events="none" font-size="8px" fill="#000000" x="51.492182046114124" y="3" font-family="sans-serif">ACTED_IN</text></g><g class="relationship" transform="translate(154.4195691388599 156.02395259751972) rotate(522.4706298108292)"><path class="outline" fill="#A5ABB6" stroke="none" d="M 25 0.5 L 28.712580356934858 0.5 L 28.712580356934858 -0.5 L 25 -0.5 Z M 74.27508035693486 0.5 L 77.98766071386972 0.5 L 77.98766071386972 3.5 L 84.98766071386972 0 L 77.98766071386972 -3.5 L 77.98766071386972 -0.5 L 74.27508035693486 -0.5 Z"/><text text-anchor="middle" pointer-events="none" font-size="8px" fill="#000000" x="51.49383035693486" y="3" transform="rotate(180 51.49383035693486 0)" font-family="sans-serif">ACTED_IN</text></g></g><g class="layer nodes"><g class="node" transform="translate(23.90081839500953,82.19735076573328)"><circle class="outline" cx="0" cy="0" r="25" fill="#57C7E3" stroke="#23b3d7" stroke-width="2px"/><text text-anchor="middle" pointer-events="none" font-family="sans-serif" dy="1.5625" font-size="25" fill="#2A2C34"/><text text-anchor="middle" pointer-events="none" font-family="sans-serif" dy="1.5625" font-size="25" fill="#2A2C34"/><text text-anchor="middle" pointer-events="none" x="0" y="0" font-size="10px" fill="#2A2C34" font-family="sans-serif"> Hugo</text><text text-anchor="middle" pointer-events="none" x="0" y="10" font-size="10px" fill="#2A2C34" font-family="sans-serif"> Weaving</text></g><g class="node" transform="translate(154.4195691388599,156.02395259751972)"><circle class="outline" cx="0" cy="0" r="25" fill="#57C7E3" stroke="#23b3d7" stroke-width="2px"/><text text-anchor="middle" pointer-events="none" font-family="sans-serif" dy="1.5625" font-size="25" fill="#2A2C34"/><text text-anchor="middle" pointer-events="none" font-family="sans-serif" dy="1.5625" font-size="25" fill="#2A2C34"/><text text-anchor="middle" pointer-events="none" x="0" y="0" font-size="10px" fill="#2A2C34" font-family="sans-serif"> Keanu</text><text text-anchor="middle" pointer-events="none" x="0" y="10" font-size="10px" fill="#2A2C34" font-family="sans-serif"> Reeves</text></g><g class="node" transform="translate(154.99834668825326,63.61498954863211)"><circle class="outline" cx="0" cy="0" r="25" fill="#F79767" stroke="#f36924" stroke-width="2px"/><text text-anchor="middle" pointer-events="none" font-family="sans-serif" dy="1.5625" font-size="25" fill="#FFFFFF"/><text text-anchor="middle" pointer-events="none" font-family="sans-serif" dy="1.5625" font-size="25" fill="#FFFFFF"/><text text-anchor="middle" pointer-events="none" font-family="sans-serif" dy="1.5625" font-size="25" fill="#FFFFFF"/><text text-anchor="middle" pointer-events="none" x="0" y="-5" font-size="10px" fill="#FFFFFF" font-family="sans-serif"> The</text><text text-anchor="middle" pointer-events="none" x="0" y="5" font-size="10px" fill="#FFFFFF" font-family="sans-serif"> Matrix</text><text text-anchor="middle" pointer-events="none" x="0" y="15" font-size="10px" fill="#FFFFFF" font-family="sans-serif"> Revol…</text></g><g class="node" transform="translate(102.89927905905205,33.96590041650534)"><circle class="outline" cx="0" cy="0" r="25" fill="#F79767" stroke="#f36924" stroke-width="2px"/><text text-anchor="middle" pointer-events="none" font-family="sans-serif" dy="1.5625" font-size="25" fill="#FFFFFF"/><text text-anchor="middle" pointer-events="none" font-family="sans-serif" dy="1.5625" font-size="25" fill="#FFFFFF"/><text text-anchor="middle" pointer-events="none" font-family="sans-serif" dy="1.5625" font-size="25" fill="#FFFFFF"/><text text-anchor="middle" pointer-events="none" x="0" y="-5" font-size="10px" fill="#FFFFFF" font-family="sans-serif"> The</text><text text-anchor="middle" pointer-events="none" x="0" y="5" font-size="10px" fill="#FFFFFF" font-family="sans-serif"> Matrix</text><text text-anchor="middle" pointer-events="none" x="0" y="15" font-size="10px" fill="#FFFFFF" font-family="sans-serif"> Reloa…</text></g><g class="node" transform="translate(49.53944043410963,189.15164663414615)"><circle class="outline" cx="0" cy="0" r="25" fill="#F79767" stroke="#f36924" stroke-width="2px"/><text text-anchor="middle" pointer-events="none" font-family="sans-serif" dy="1.5625" font-size="25" fill="#FFFFFF"/><text text-anchor="middle" pointer-events="none" font-family="sans-serif" dy="1.5625" font-size="25" fill="#FFFFFF"/><text text-anchor="middle" pointer-events="none" x="0" y="0" font-size="10px" fill="#FFFFFF" font-family="sans-serif"> The</text><text text-anchor="middle" pointer-events="none" x="0" y="10" font-size="10px" fill="#FFFFFF" font-family="sans-serif"> Matrix</text></g></g></svg>