<svg xmlns="http://www.w3.org/2000/svg" width="162.34078979492188" height="243.46470642089844" viewBox="-0.8634147644042969 -21.006561279296875 162.34078979492188 243.46470642089844"><title>Neo4j Graph Visualization</title><desc>Created using Neo4j (http://www.neo4j.com/)</desc><g class="layer relationships"><g class="relationship" transform="translate(132.47736446934093 7.993437625845872) rotate(521.434182355674)"><path class="outline" fill="#A5ABB6" stroke="none" d="M 21.40063509461097,12.933012701892217 L 21.90063509461097,12.06698729810778 A 59.9458377295149 59.9458377295149 0 0 0 40.50718918537689,19.010751663508962 L 40.31757861015599,19.99261103723027 A 60.9458377295149 60.9458377295149 0 0 1 21.40063509461097,12.933012701892217 Z M 59.721222294994455,20.5908437905493 L 59.59245766351207,19.599168606994112 A 59.9458377295149 59.9458377295149 0 0 0 78.59143160945938,13.814818367250018 L 77.25433071995411,11.129271642412743 L 85.08055744899724,11.142507412543932 L 80.37423279546641,17.395547333699717 L 79.03713190596115,14.710000608862442 A 60.9458377295149 60.9458377295149 0 0 1 59.721222294994455,20.5908437905493"/><text text-anchor="middle" pointer-events="none" font-size="8px" fill="#000000" x="50.01083649555051" y="23.569498849368607" transform="rotate(180 50.01083649555051 20.569498849368607)" font-family="sans-serif">trek</text></g><g class="relationship" transform="translate(30.609633171863003 42.208073550253545) rotate(451.328110934208)"><path class="outline" fill="#A5ABB6" stroke="none" d="M 25 0.5 L 40.1814652214707 0.5 L 40.1814652214707 -0.5 L 25 -0.5 Z M 59.5174027214707 0.5 L 74.6988679429414 0.5 L 74.6988679429414 3.5 L 81.6988679429414 0 L 74.6988679429414 -3.5 L 74.6988679429414 -0.5 L 59.5174027214707 -0.5 Z"/><text text-anchor="middle" pointer-events="none" font-size="8px" fill="#000000" x="49.8494339714707" y="3" transform="rotate(180 49.8494339714707 0)" font-family="sans-serif">trek</text></g><g class="relationship" transform="translate(28.13658464037445 148.87827769023892) rotate(384.535037352781)"><path class="outline" fill="#A5ABB6" stroke="none" d="M 25 0.5 L 40.510435358210586 0.5 L 40.510435358210586 -0.5 L 25 -0.5 Z M 59.846372858210586 0.5 L 75.35680821642117 0.5 L 75.35680821642117 3.5 L 82.35680821642117 0 L 75.35680821642117 -3.5 L 75.35680821642117 -0.5 L 59.846372858210586 -0.5 Z"/><text text-anchor="middle" pointer-events="none" font-size="8px" fill="#000000" x="50.178404108210586" y="3" font-family="sans-serif">trek</text></g><g class="relationship" transform="translate(132.47736446934093 7.993437625845872) rotate(521.434182355674)"><path class="outline" fill="#A5ABB6" stroke="none" d="M 25 0.5 L 39.224197369653936 0.5 L 39.224197369653936 -0.5 L 25 -0.5 Z M 61.235916119653936 0.5 L 75.46011348930787 0.5 L 75.46011348930787 3.5 L 82.46011348930787 0 L 75.46011348930787 -3.5 L 75.46011348930787 -0.5 L 61.235916119653936 -0.5 Z"/><text text-anchor="middle" pointer-events="none" font-size="8px" fill="#000000" x="50.230056744653936" y="3" transform="rotate(180 50.230056744653936 0)" font-family="sans-serif">road</text></g><g class="relationship" transform="translate(132.47736446934093 7.993437625845872) rotate(521.434182355674)"><path class="outline" fill="#A5ABB6" stroke="none" d="M 21.40063509461097,-12.933012701892217 L 21.90063509461097,-12.06698729810778 A 59.9458377295149 59.9458377295149 0 0 1 23.47331456716136,-12.943749553362224 L 22.99954957416296,-13.824400864273201 A 60.9458377295149 60.9458377295149 0 0 0 21.40063509461097,-12.933012701892217 Z M 77.3863417384543,-15.501197292258347 L 76.96772762583328,-14.593033086448344 A 59.9458377295149 59.9458377295149 0 0 1 78.59143160945938,-13.814818367250018 L 77.25433071995411,-11.129271642412743 L 85.08055744899724,-11.142507412543932 L 80.37423279546641,-17.395547333699717 L 79.03713190596115,-14.710000608862442 A 60.9458377295149 60.9458377295149 0 0 0 77.3863417384543,-15.501197292258347"/><text text-anchor="middle" pointer-events="none" font-size="8px" fill="#000000" x="50.0108364955505" y="-17.569498849368607" transform="rotate(180 50.0108364955505 -20.569498849368607)" font-family="sans-serif">PublicTrans…</text></g></g><g class="layer nodes"><g class="node" transform="translate(132.47736446934093,7.993437625845872)"><circle class="outline" cx="0" cy="0" r="25" fill="#8DCC93" stroke="#5db665" stroke-width="2px"/><text text-anchor="middle" pointer-events="none" font-family="sans-serif" dy="1.5625" font-size="25" fill="#2A2C34"/><text text-anchor="middle" pointer-events="none" x="0" y="5" font-size="10px" fill="#2A2C34" font-family="sans-serif"> Darjeeling</text></g><g class="node" transform="translate(125.79987918640636,193.45815172362364)"><circle class="outline" cx="0" cy="0" r="25" fill="#ECB5C9" stroke="#da7298" stroke-width="2px"/><text text-anchor="middle" pointer-events="none" font-family="sans-serif" dy="1.5625" font-size="25" fill="#2A2C34"/><text text-anchor="middle" pointer-events="none" x="0" y="5" font-size="10px" fill="#2A2C34" font-family="sans-serif"> Sandak…</text></g><g class="node" transform="translate(30.609633171863003,42.208073550253545)"><circle class="outline" cx="0" cy="0" r="25" fill="#8DCC93" stroke="#5db665" stroke-width="2px"/><text text-anchor="middle" pointer-events="none" font-family="sans-serif" dy="1.5625" font-size="25" fill="#2A2C34"/><text text-anchor="middle" pointer-events="none" x="0" y="5" font-size="10px" fill="#2A2C34" font-family="sans-serif"> Rimbik</text></g><g class="node" transform="translate(28.13658464037445,148.87827769023892)"><circle class="outline" cx="0" cy="0" r="25" fill="#4C8EDA" stroke="#2870c2" stroke-width="2px"/><text text-anchor="middle" pointer-events="none" font-family="sans-serif" dy="1.5625" font-size="25" fill="#FFFFFF"/><text text-anchor="middle" pointer-events="none" x="0" y="5" font-size="10px" fill="#FFFFFF" font-family="sans-serif"> BhikeBh…</text></g></g></svg>