<svg xmlns="http://www.w3.org/2000/svg" width="268.20501708984375" height="289.42510986328125" viewBox="-30.771759033203125 -40.463104248046875 268.20501708984375 289.42510986328125"><title>Neo4j Graph Visualization</title><desc>Created using Neo4j (http://www.neo4j.com/)</desc><g class="layer relationships"><g class="relationship" transform="translate(115.66613780202402 -11.463106304787452) rotate(391.18100905422773)"><path class="outline" fill="#A5ABB6" stroke="none" d="M 25 0.5 L 33.49312961841937 0.5 L 33.49312961841937 -0.5 L 25 -0.5 Z M 67.93844211841937 0.5 L 76.43157173683873 0.5 L 76.43157173683873 3.5 L 83.43157173683873 0 L 76.43157173683873 -3.5 L 76.43157173683873 -0.5 L 67.93844211841937 -0.5 Z"/><text text-anchor="middle" pointer-events="none" font-size="8px" fill="#000000" x="50.71578586841937" y="3" font-family="sans-serif">ORIGIN</text></g><g class="relationship" transform="translate(115.66613780202402 -11.463106304787452) rotate(509.4322732260337)"><path class="outline" fill="#A5ABB6" stroke="none" d="M 25 0.5 L 26.04667880288291 0.5 L 26.04667880288291 -0.5 L 25 -0.5 Z M 74.71855380288291 0.5 L 75.76523260576582 0.5 L 75.76523260576582 3.5 L 82.76523260576582 0 L 75.76523260576582 -3.5 L 75.76523260576582 -0.5 L 74.71855380288291 -0.5 Z"/><text text-anchor="middle" pointer-events="none" font-size="8px" fill="#000000" x="50.38261630288291" y="3" transform="rotate(180 50.38261630288291 0)" font-family="sans-serif">DESTINA…</text></g><g class="relationship" transform="translate(-1.7717587465086744 148.22211965124382) rotate(283.2255998916439)"><path class="outline" fill="#A5ABB6" stroke="none" d="M 25 0.5 L 33.14638236749439 0.5 L 33.14638236749439 -0.5 L 25 -0.5 Z M 67.5916948674944 0.5 L 75.73807723498878 0.5 L 75.73807723498878 3.5 L 82.73807723498878 0 L 75.73807723498878 -3.5 L 75.73807723498878 -0.5 L 67.5916948674944 -0.5 Z"/><text text-anchor="middle" pointer-events="none" font-size="8px" fill="#000000" x="50.36903861749439" y="3" font-family="sans-serif">ORIGIN</text></g><g class="relationship" transform="translate(-1.7717587465086744 148.22211965124382) rotate(401.4402946157382)"><path class="outline" fill="#A5ABB6" stroke="none" d="M 25 0.5 L 26.361431512366984 0.5 L 26.361431512366984 -0.5 L 25 -0.5 Z M 75.03330651236698 0.5 L 76.39473802473397 0.5 L 76.39473802473397 3.5 L 83.39473802473397 0 L 76.39473802473397 -3.5 L 76.39473802473397 -0.5 L 75.03330651236698 -0.5 Z"/><text text-anchor="middle" pointer-events="none" font-size="8px" fill="#000000" x="50.697369012366984" y="3" font-family="sans-serif">DESTINA…</text></g></g><g class="layer nodes"><g class="node" transform="translate(208.4332418047194,44.676631531029955)"><circle class="outline" cx="0" cy="0" r="25" fill="#F16667" stroke="#eb2728" stroke-width="2px"/><text text-anchor="middle" pointer-events="none" font-family="sans-serif" dy="1.5625" font-size="25" fill="#FFFFFF"/><text text-anchor="middle" pointer-events="none" x="0" y="5" font-size="10px" fill="#FFFFFF" font-family="sans-serif"> MSN</text></g><g class="node" transform="translate(79.48590145512475,219.96201015859396)"><circle class="outline" cx="0" cy="0" r="25" fill="#F16667" stroke="#eb2728" stroke-width="2px"/><text text-anchor="middle" pointer-events="none" font-family="sans-serif" dy="1.5625" font-size="25" fill="#FFFFFF"/><text text-anchor="middle" pointer-events="none" x="0" y="5" font-size="10px" fill="#FFFFFF" font-family="sans-serif"> GRR</text></g><g class="node" transform="translate(115.66613780202402,-11.463106304787452)"><circle class="outline" cx="0" cy="0" r="25" fill="#D9C8AE" stroke="#c0a378" stroke-width="2px"/><text text-anchor="middle" pointer-events="none" font-family="sans-serif" dy="1.5625" font-size="25" fill="#2A2C34"/><text text-anchor="middle" pointer-events="none" x="0" y="5" font-size="10px" fill="#2A2C34" font-family="sans-serif"> 11/30/20…</text></g><g class="node" transform="translate(22.877188259068678,43.341603358613725)"><circle class="outline" cx="0" cy="0" r="25" fill="#F16667" stroke="#eb2728" stroke-width="2px"/><text text-anchor="middle" pointer-events="none" font-family="sans-serif" dy="1.5625" font-size="25" fill="#FFFFFF"/><text text-anchor="middle" pointer-events="none" x="0" y="5" font-size="10px" fill="#FFFFFF" font-family="sans-serif"> ORD</text></g><g class="node" transform="translate(-1.7717587465086744,148.22211965124382)"><circle class="outline" cx="0" cy="0" r="25" fill="#D9C8AE" stroke="#c0a378" stroke-width="2px"/><text text-anchor="middle" pointer-events="none" font-family="sans-serif" dy="1.5625" font-size="25" fill="#2A2C34"/><text text-anchor="middle" pointer-events="none" x="0" y="5" font-size="10px" fill="#2A2C34" font-family="sans-serif"> 11/17/20…</text></g></g></svg>