<svg xmlns="http://www.w3.org/2000/svg" width="276.525390625" height="404.9751281738281" viewBox="-42.3791618347168 -100.03319549560547 276.525390625 404.9751281738281"><title>Neo4j Graph Visualization</title><desc>Created using Neo4j (http://www.neo4j.com/)</desc><g class="layer relationships"><g class="relationship" transform="translate(79.54058405551623 -30.125855650093932) rotate(203.58064448492456)"><path class="outline" fill="#A5ABB6" stroke="none" d="M 24.018736134675446,-6.953439040707552 L 24.277555179777966,-5.987513214418485 A 68.68483344571054 68.68483344571054 0 0 1 29.888119742584614,-7.241768621582949 L 29.71098633725643,-8.225955472092977 A 69.68483344571054 69.68483344571054 0 0 0 24.018736134675446,-6.953439040707552 Z M 51.78441049561472,-8.645267511290697 L 51.64478309278864,-7.655063396787014 A 68.68483344571054 68.68483344571054 0 0 1 57.29893497353692,-6.6147952346029495 L 56.63309204911472,-3.689619479200055 L 64.23531889021405,-5.54869103685164 L 58.18672553943318,-10.515029575140144 L 57.52088261501098,-7.5898538197372485 A 69.68483344571054 69.68483344571054 0 0 0 51.78441049561472,-8.645267511290697"/><text text-anchor="middle" pointer-events="none" font-size="8px" fill="#000000" x="40.740483623477324" y="-5.815412619002572" transform="rotate(180 40.740483623477324 -8.815412619002572)" font-family="sans-serif">road</text></g><g class="relationship" transform="translate(-1.671931418820186 -65.57406447187853) rotate(358.83969691147706)"><path class="outline" fill="#A5ABB6" stroke="none" d="M 21.40063509461097,-12.933012701892217 L 21.90063509461097,-12.06698729810778 A 86.41848463100483 86.41848463100483 0 0 1 40.19846814284796,-19.97646687485596 L 39.91020331879285,-20.93401759999405 A 87.41848463100483 87.41848463100483 0 0 0 21.40063509461097,-12.933012701892217 Z M 86.07329371001694,-22.094085010685745 L 85.83348840581394,-21.12326400963761 A 86.41848463100483 86.41848463100483 0 0 1 104.50550147291798,-14.142827815670506 L 103.13789044973173,-11.472689225773074 L 110.96376001987636,-11.396758526552155 L 106.32898283716632,-17.703012602200417 L 104.96137181398007,-15.032874012302985 A 87.41848463100483 87.41848463100483 0 0 0 86.07329371001694,-22.094085010685745"/><text text-anchor="middle" pointer-events="none" font-size="8px" fill="#000000" x="62.92632605132561" y="-21.117437150775444" font-family="sans-serif">twowheeler</text></g><g class="relationship" transform="translate(131.5156682375713 -68.27162987265713) rotate(443.104411505459)"><path class="outline" fill="#A5ABB6" stroke="none" d="M 21.40063509461097,12.933012701892217 L 21.90063509461097,12.06698729810778 A 77.62845358202567 77.62845358202567 0 0 0 35.99100570319159,18.42483114196085 L 35.672516089633746,19.372757492504903 A 78.62845358202567 78.62845358202567 0 0 1 21.40063509461097,12.933012701892217 Z M 81.73209780402273,20.606244418786645 L 81.46479970821987,19.642630529316307 A 77.62845358202567 77.62845358202567 0 0 0 95.8752592901755,14.048045927507568 L 94.51646380544774,11.373410469976308 L 102.34254127186973,11.32329570606467 L 97.68698660314585,17.614226537549246 L 96.32819111841809,14.939591080017989 A 78.62845358202567 78.62845358202567 0 0 1 81.73209780402273,20.606244418786645"/><text text-anchor="middle" pointer-events="none" font-size="8px" fill="#000000" x="58.6233125595472" y="25.93922693848775" font-family="sans-serif">twowheeler</text></g><g class="relationship" transform="translate(146.478936474341 55.4580317301231) rotate(421.2681571486023)"><path class="outline" fill="#A5ABB6" stroke="none" d="M 25 0.5 L 47.85342232895504 0.5 L 47.85342232895504 -0.5 L 25 -0.5 Z M 67.18935982895505 0.5 L 90.04278215791008 0.5 L 90.04278215791008 3.5 L 97.04278215791008 0 L 90.04278215791008 -3.5 L 90.04278215791008 -0.5 L 67.18935982895505 -0.5 Z"/><text text-anchor="middle" pointer-events="none" font-size="8px" fill="#000000" x="57.52139107895504" y="3" font-family="sans-serif">trek</text></g><g class="relationship" transform="translate(79.54058405551623 -30.125855650093932) rotate(203.58064448492456)"><path class="outline" fill="#A5ABB6" stroke="none" d="M 24.018736134675446,6.953439040707552 L 24.277555179777966,5.987513214418485 A 68.68483344571054 68.68483344571054 0 0 0 31.19753133748133,7.464387338898405 L 31.039461989372292,8.451815352066134 A 69.68483344571054 69.68483344571054 0 0 1 24.018736134675446,6.953439040707552 Z M 50.448315396268164,8.820510568637388 L 50.3278613922045,7.827791659325683 A 68.68483344571054 68.68483344571054 0 0 0 57.29893497353692,6.6147952346029495 L 56.63309204911472,3.689619479200055 L 64.23531889021405,5.54869103685164 L 58.18672553943318,10.515029575140144 L 57.52088261501098,7.5898538197372485 A 69.68483344571054 69.68483344571054 0 0 1 50.448315396268164,8.820510568637388"/><text text-anchor="middle" pointer-events="none" font-size="8px" fill="#000000" x="40.74048362347733" y="11.815412619002572" transform="rotate(180 40.74048362347733 8.815412619002572)" font-family="sans-serif">trek</text></g><g class="relationship" transform="translate(-1.671931418820186 -65.57406447187853) rotate(358.83969691147706)"><path class="outline" fill="#A5ABB6" stroke="none" d="M 25 0.5 L 52.1015980928442 0.5 L 52.1015980928442 -0.5 L 25 -0.5 Z M 74.1133168428442 0.5 L 101.2149149356884 0.5 L 101.2149149356884 3.5 L 108.2149149356884 0 L 101.2149149356884 -3.5 L 101.2149149356884 -0.5 L 74.1133168428442 -0.5 Z"/><text text-anchor="middle" pointer-events="none" font-size="8px" fill="#000000" x="63.1074574678442" y="3" font-family="sans-serif">road</text></g><g class="relationship" transform="translate(-1.671931418820186 -65.57406447187853) rotate(358.83969691147706)"><path class="outline" fill="#A5ABB6" stroke="none" d="M 21.40063509461097,12.933012701892217 L 21.90063509461097,12.06698729810778 A 86.41848463100483 86.41848463100483 0 0 0 53.36278560126005,22.842739697673522 L 53.226852972274344,23.833457780872294 A 87.41848463100483 87.41848463100483 0 0 1 21.40063509461097,12.933012701892217 Z M 72.62781999242006,24.320999437750928 L 72.54182053116149,23.324704254251955 A 86.41848463100483 86.41848463100483 0 0 0 104.50550147291798,14.142827815670506 L 103.13789044973173,11.472689225773074 L 110.96376001987636,11.396758526552155 L 106.32898283716632,17.703012602200417 L 104.96137181398007,15.032874012302985 A 87.41848463100483 87.41848463100483 0 0 1 72.62781999242006,24.320999437750928"/><text text-anchor="middle" pointer-events="none" font-size="8px" fill="#000000" x="62.92632605132561" y="27.117437150775444" font-family="sans-serif">trek</text></g><g class="relationship" transform="translate(131.5156682375713 -68.27162987265713) rotate(443.104411505459)"><path class="outline" fill="#A5ABB6" stroke="none" d="M 25 0.5 L 47.809725667315114 0.5 L 47.809725667315114 -0.5 L 25 -0.5 Z M 69.82144441731512 0.5 L 92.63117008463023 0.5 L 92.63117008463023 3.5 L 99.63117008463023 0 L 92.63117008463023 -3.5 L 92.63117008463023 -0.5 L 69.82144441731512 -0.5 Z"/><text text-anchor="middle" pointer-events="none" font-size="8px" fill="#000000" x="58.815585042315114" y="3" font-family="sans-serif">road</text></g><g class="relationship" transform="translate(131.5156682375713 -68.27162987265713) rotate(443.104411505459)"><path class="outline" fill="#A5ABB6" stroke="none" d="M 21.40063509461097,-12.933012701892217 L 21.90063509461097,-12.06698729810778 A 77.62845358202567 77.62845358202567 0 0 1 49.074423420766536,-21.58952035049232 L 48.92447275283834,-22.578213830387824 A 78.62845358202567 78.62845358202567 0 0 0 21.40063509461097,-12.933012701892217 Z M 68.32757286005211,-23.097833623289844 L 68.23075407972996,-22.102531596879302 A 77.62845358202567 77.62845358202567 0 0 1 95.8752592901755,-14.048045927507568 L 94.51646380544774,-11.373410469976308 L 102.34254127186973,-11.32329570606467 L 97.68698660314585,-17.614226537549246 L 96.32819111841809,-14.939591080017989 A 78.62845358202567 78.62845358202567 0 0 0 68.32757286005211,-23.097833623289844"/><text text-anchor="middle" pointer-events="none" font-size="8px" fill="#000000" x="58.62331255954719" y="-19.93922693848775" font-family="sans-serif">trek</text></g><g class="relationship" transform="translate(79.54058405551623 -30.125855650093932) rotate(488.13497159530664)"><path class="outline" fill="#A5ABB6" stroke="none" d="M 21.40063509461097,12.933012701892217 L 21.90063509461097,12.06698729810778 A 55.07242451119832 55.07242451119832 0 0 0 36.87096616446492,17.992553176447892 L 36.6427960539736,18.966174458404268 A 56.07242451119832 56.07242451119832 0 0 1 21.40063509461097,12.933012701892217 Z M 58.696255398860735,19.675492007409915 L 58.531122392229264,18.689220700861426 A 55.07242451119832 55.07242451119832 0 0 0 73.85129259363607,13.737904883878006 L 72.52134686525463,11.048807570733695 L 80.3475106123697,11.082881069845353 L 75.62455356481132,17.32336796807042 L 74.29460783642988,14.634270654926109 A 56.07242451119832 56.07242451119832 0 0 1 58.696255398860735,19.675492007409915"/><text text-anchor="middle" pointer-events="none" font-size="8px" fill="#000000" x="47.65036469286467" y="22.91657074856326" transform="rotate(180 47.65036469286467 19.91657074856326)" font-family="sans-serif">road</text></g><g class="relationship" transform="translate(16.086697201781025 50.698239563168485) rotate(464.2553628290232)"><path class="outline" fill="#A5ABB6" stroke="none" d="M 24.018736134675446,-6.953439040707552 L 24.277555179777966,-5.987513214418485 A 130.9248557313901 130.9248557313901 0 0 1 46.67089979767995,-9.94329181874059 L 46.58312042638731,-10.939431759700426 A 131.9248557313901 131.9248557313901 0 0 0 24.018736134675446,-6.953439040707552 Z M 65.9731287436484,-11.217305312926271 L 65.91393044185766,-10.219059070226052 A 130.9248557313901 130.9248557313901 0 0 1 88.41143442233415,-6.906600437884069 L 87.71833379755981,-3.9877630796303736 L 95.33757169572183,-5.775838539786212 L 89.33556858869994,-10.798383582222328 L 88.6424679639256,-7.879546223968634 A 131.9248557313901 131.9248557313901 0 0 0 65.9731287436484,-11.217305312926271"/><text text-anchor="middle" pointer-events="none" font-size="8px" fill="#000000" x="56.28017664052047" y="-7.9351761640949405" transform="rotate(180 56.28017664052047 -10.93517616409494)" font-family="sans-serif">trek</text></g><g class="relationship" transform="translate(-13.379160674940465 166.6748316730958) rotate(374.5007848020448)"><path class="outline" fill="#A5ABB6" stroke="none" d="M 24.018736134675446,-6.953439040707552 L 24.277555179777966,-5.987513214418485 A 116.00373082530423 116.00373082530423 0 0 1 42.92622434496689,-9.38116701038902 L 42.828164518835294,-10.376347531952334 A 117.00373082530423 117.00373082530423 0 0 0 24.018736134675446,-6.953439040707552 Z M 62.22255568671572,-10.671814149839548 L 62.15485677138601,-9.674108353092237 A 116.00373082530423 116.00373082530423 0 0 1 80.89824965617304,-6.850109258530018 L 80.2104255806893,-3.9300239787505156 L 87.8264193215725,-5.731867295697866 L 81.81534842348469,-10.74355629823602 L 81.12752434800096,-7.823471018456519 A 117.00373082530423 117.00373082530423 0 0 0 62.22255568671572,-10.671814149839548"/><text text-anchor="middle" pointer-events="none" font-size="8px" fill="#000000" x="52.526843255047254" y="-7.426726914670823" font-family="sans-serif">trek</text></g><g class="relationship" transform="translate(95.20834256167568 194.7590563007316) rotate(343.63464707512003)"><path class="outline" fill="#A5ABB6" stroke="none" d="M 24.018736134675446,6.953439040707552 L 24.277555179777966,5.987513214418485 A 120.82335482725964 120.82335482725964 0 0 0 44.134004451376654,9.56404044913397 L 44.039528213175885,10.559567565999927 A 121.82335482725964 121.82335482725964 0 0 1 24.018736134675446,6.953439040707552 Z M 63.43244975970529,10.849120287020426 L 63.36773713322549,9.851216345764513 A 120.82335482725964 120.82335482725964 0 0 0 83.32211252467926,6.869098394848803 L 82.63251475455938,3.949431476269614 L 90.24960162971735,5.746648084332292 L 84.24157621817243,10.761987619621054 L 83.55197844805255,7.842320701041866 A 121.82335482725964 121.82335482725964 0 0 1 63.43244975970529,10.849120287020426"/><text text-anchor="middle" pointer-events="none" font-size="8px" fill="#000000" x="53.73768208146339" y="13.590948138577957" font-family="sans-serif">trek</text></g><g class="relationship" transform="translate(79.54058405551623 -30.125855650093932) rotate(488.13497159530664)"><path class="outline" fill="#A5ABB6" stroke="none" d="M 25 0.5 L 26.35684306928612 0.5 L 26.35684306928612 -0.5 L 25 -0.5 Z M 69.39981181928613 0.5 L 70.75665488857224 0.5 L 70.75665488857224 3.5 L 77.75665488857224 0 L 70.75665488857224 -3.5 L 70.75665488857224 -0.5 L 69.39981181928613 -0.5 Z"/><text text-anchor="middle" pointer-events="none" font-size="8px" fill="#000000" x="47.87832744428612" y="3" transform="rotate(180 47.87832744428612 0)" font-family="sans-serif">PublicTr…</text></g><g class="relationship" transform="translate(79.54058405551623 -30.125855650093932) rotate(488.13497159530664)"><path class="outline" fill="#A5ABB6" stroke="none" d="M 21.40063509461097,-12.933012701892217 L 21.90063509461097,-12.06698729810778 A 55.07242451119832 55.07242451119832 0 0 1 38.165361793311234,-18.27950601512805 L 37.96069519915017,-19.25833776023775 A 56.07242451119832 56.07242451119832 0 0 0 21.40063509461097,-12.933012701892217 Z M 57.362305557354546,-19.88236243096292 L 57.22096231642581,-18.892401781116796 A 55.07242451119832 55.07242451119832 0 0 1 73.85129259363607,-13.737904883878006 L 72.52134686525463,-11.048807570733695 L 80.3475106123697,-11.082881069845353 L 75.62455356481132,-17.32336796807042 L 74.29460783642988,-14.634270654926109 A 56.07242451119832 56.07242451119832 0 0 0 57.362305557354546,-19.88236243096292"/><text text-anchor="middle" pointer-events="none" font-size="8px" fill="#000000" x="47.65036469286467" y="-16.91657074856326" transform="rotate(180 47.65036469286467 -19.91657074856326)" font-family="sans-serif">trek</text></g><g class="relationship" transform="translate(16.086697201781025 50.698239563168485) rotate(362.09057661692486)"><path class="outline" fill="#A5ABB6" stroke="none" d="M 25 0.5 L 52.07157386792677 0.5 L 52.07157386792677 -0.5 L 25 -0.5 Z M 71.40751136792677 0.5 L 98.47908523585355 0.5 L 98.47908523585355 3.5 L 105.47908523585355 0 L 98.47908523585355 -3.5 L 98.47908523585355 -0.5 L 71.40751136792677 -0.5 Z"/><text text-anchor="middle" pointer-events="none" font-size="8px" fill="#000000" x="61.73954261792677" y="3" font-family="sans-serif">trek</text></g><g class="relationship" transform="translate(16.086697201781025 50.698239563168485) rotate(464.2553628290232)"><path class="outline" fill="#A5ABB6" stroke="none" d="M 24.018736134675446,6.953439040707552 L 24.277555179777966,5.987513214418485 A 130.9248557313901 130.9248557313901 0 0 0 33.2952552519462,8.065220160746946 L 33.1053131211759,9.047015448451276 A 131.9248557313901 131.9248557313901 0 0 1 24.018736134675446,6.953439040707552 Z M 79.49962968323965,9.711881258803118 L 79.33789952068165,8.725046239907385 A 130.9248557313901 130.9248557313901 0 0 0 88.41143442233415,6.906600437884069 L 87.71833379755981,3.9877630796303736 L 95.33757169572183,5.775838539786212 L 89.33556858869994,10.798383582222328 L 88.6424679639256,7.879546223968634 A 131.9248557313901 131.9248557313901 0 0 1 79.49962968323965,9.711881258803118"/><text text-anchor="middle" pointer-events="none" font-size="8px" fill="#000000" x="56.28017664052054" y="13.93517616409494" transform="rotate(180 56.28017664052054 10.93517616409494)" font-family="sans-serif">twowheeler</text></g><g class="relationship" transform="translate(-13.379160674940465 166.6748316730958) rotate(374.5007848020448)"><path class="outline" fill="#A5ABB6" stroke="none" d="M 24.018736134675446,6.953439040707552 L 24.277555179777966,5.987513214418485 A 116.00373082530423 116.00373082530423 0 0 0 29.59243948880006,7.278149484996604 L 29.37943693831551,8.255201128200312 A 117.00373082530423 117.00373082530423 0 0 1 24.018736134675446,6.953439040707552 Z M 75.72965678682638,8.961330162023685 L 75.54651624408159,7.97824342037616 A 116.00373082530423 116.00373082530423 0 0 0 80.89824965617304,6.850109258530018 L 80.2104255806893,3.9300239787505156 L 87.8264193215725,5.731867295697866 L 81.81534842348469,10.74355629823602 L 81.12752434800096,7.823471018456519 A 117.00373082530423 117.00373082530423 0 0 1 75.72965678682638,8.961330162023685"/><text text-anchor="middle" pointer-events="none" font-size="8px" fill="#000000" x="52.52684325504728" y="13.426726914670823" font-family="sans-serif">twowheeler</text></g><g class="relationship" transform="translate(95.20834256167568 194.7590563007316) rotate(343.63464707512003)"><path class="outline" fill="#A5ABB6" stroke="none" d="M 24.018736134675446,-6.953439040707552 L 24.277555179777966,-5.987513214418485 A 120.82335482725964 120.82335482725964 0 0 1 30.78514537231846,-7.539465119430091 L 30.58018669387969,-8.518235746355842 A 121.82335482725964 121.82335482725964 0 0 0 24.018736134675446,-6.953439040707552 Z M 76.94673566524081,-9.210527538841916 L 76.77108958166899,-8.226074160907814 A 120.82335482725964 120.82335482725964 0 0 1 83.32211252467926,-6.869098394848803 L 82.63251475455938,-3.949431476269614 L 90.24960162971735,-5.746648084332292 L 84.24157621817243,-10.761987619621054 L 83.55197844805255,-7.842320701041866 A 121.82335482725964 121.82335482725964 0 0 0 76.94673566524081,-9.210527538841916"/><text text-anchor="middle" pointer-events="none" font-size="8px" fill="#000000" x="53.73768208146334" y="-7.590948138577957" font-family="sans-serif">twowheeler</text></g><g class="relationship" transform="translate(16.086697201781025 50.698239563168485) rotate(261.31614729110925)"><path class="outline" fill="#A5ABB6" stroke="none" d="M 25 0.5 L 45.6423568231994 0.5 L 45.6423568231994 -0.5 L 25 -0.5 Z M 64.9782943231994 0.5 L 85.6206511463988 0.5 L 85.6206511463988 3.5 L 92.6206511463988 0 L 85.6206511463988 -3.5 L 85.6206511463988 -0.5 L 64.9782943231994 -0.5 Z"/><text text-anchor="middle" pointer-events="none" font-size="8px" fill="#000000" x="55.3103255731994" y="3" transform="rotate(180 55.3103255731994 0)" font-family="sans-serif">trek</text></g><g class="relationship" transform="translate(-13.379160674940465 166.6748316730958) rotate(427.6395363843544)"><path class="outline" fill="#A5ABB6" stroke="none" d="M 24.018736134675446,-6.953439040707552 L 24.277555179777966,-5.987513214418485 A 127.92505789872018 127.92505789872018 0 0 1 32.5485050071991,-7.911912647103691 L 32.35434061196173,-8.892881651518266 A 128.92505789872018 128.92505789872018 0 0 0 24.018736134675446,-6.953439040707552 Z M 78.74120463501282,-9.565677583933649 L 78.57557191416518,-8.579490075503031 A 127.92505789872018 127.92505789872018 0 0 1 86.89885392007659,-6.895773687773723 L 86.20676455396587,-3.976696383330336 L 93.82538252479628,-5.767411384255954 L 87.82163974155755,-10.787876760364906 L 87.12955037544683,-7.868799455921518 A 128.92505789872018 128.92505789872018 0 0 0 78.74120463501282,-9.565677583933649"/><text text-anchor="middle" pointer-events="none" font-size="8px" fill="#000000" x="55.5245129902401" y="-7.832947821826622" font-family="sans-serif">twowheeler</text></g><g class="relationship" transform="translate(31.56930757158056 275.9419370584227) rotate(308.09279896616215)"><path class="outline" fill="#A5ABB6" stroke="none" d="M 21.40063509461097,12.933012701892217 L 21.90063509461097,12.06698729810778 A 55.48391791707016 55.48391791707016 0 0 0 25.65800826922073,14.048542538336271 L 25.225728309831883,14.950281988904322 A 56.48391791707016 56.48391791707016 0 0 1 21.40063509461097,12.933012701892217 Z M 70.74818308192647,16.40912931375084 L 70.374526476523,15.481562204998937 A 55.48391791707016 55.48391791707016 0 0 0 74.25106452506913,13.744649109438871 L 72.92049137545642,11.055862190858356 L 80.74666286002578,11.088109580105959 L 76.02516205788608,17.329698334212893 L 74.69458890827337,14.640911415632377 A 56.48391791707016 56.48391791707016 0 0 1 70.74818308192647,16.40912931375084"/><text text-anchor="middle" pointer-events="none" font-size="8px" fill="#000000" x="47.849411255591164" y="22.97169731866846" font-family="sans-serif">twowheeler</text></g><g class="relationship" transform="translate(-13.379160674940465 166.6748316730958) rotate(427.6395363843544)"><path class="outline" fill="#A5ABB6" stroke="none" d="M 24.018736134675446,6.953439040707552 L 24.277555179777966,5.987513214418485 A 127.92505789872018 127.92505789872018 0 0 0 45.916795999757234,9.831187337204184 L 45.82713256165949,10.827159459237976 A 128.92505789872018 128.92505789872018 0 0 1 24.018736134675446,6.953439040707552 Z M 65.21798214169594,11.108404699637163 L 65.15724153967862,10.110251114628028 A 127.92505789872018 127.92505789872018 0 0 0 86.89885392007659,6.895773687773723 L 86.20676455396587,3.976696383330336 L 93.82538252479628,5.767411384255954 L 87.82163974155755,10.787876760364906 L 87.12955037544683,7.868799455921518 A 128.92505789872018 128.92505789872018 0 0 1 65.21798214169594,11.108404699637163"/><text text-anchor="middle" pointer-events="none" font-size="8px" fill="#000000" x="55.52451299024009" y="13.832947821826622" font-family="sans-serif">trek</text></g><g class="relationship" transform="translate(31.56930757158056 275.9419370584227) rotate(308.09279896616215)"><path class="outline" fill="#A5ABB6" stroke="none" d="M 25 0.5 L 37.07075088243172 0.5 L 37.07075088243172 -0.5 L 25 -0.5 Z M 59.08246963243172 0.5 L 71.15322051486343 0.5 L 71.15322051486343 3.5 L 78.15322051486343 0 L 71.15322051486343 -3.5 L 71.15322051486343 -0.5 L 59.08246963243172 -0.5 Z"/><text text-anchor="middle" pointer-events="none" font-size="8px" fill="#000000" x="48.07661025743172" y="3" font-family="sans-serif">road</text></g><g class="relationship" transform="translate(31.56930757158056 275.9419370584227) rotate(308.09279896616215)"><path class="outline" fill="#A5ABB6" stroke="none" d="M 21.40063509461097,-12.933012701892217 L 21.90063509461097,-12.06698729810778 A 55.48391791707016 55.48391791707016 0 0 1 38.36268323245284,-18.34171780505524 L 38.15938268620171,-19.32083418623472 A 56.48391791707016 56.48391791707016 0 0 0 21.40063509461097,-12.933012701892217 Z M 57.56123033719618,-19.942600602049446 L 57.42103757833557,-18.95247637228681 A 55.48391791707016 55.48391791707016 0 0 1 74.25106452506913,-13.744649109438871 L 72.92049137545642,-11.055862190858356 L 80.74666286002578,-11.088109580105959 L 76.02516205788608,-17.329698334212893 L 74.69458890827337,-14.640911415632377 A 56.48391791707016 56.48391791707016 0 0 0 57.56123033719618,-19.942600602049446"/><text text-anchor="middle" pointer-events="none" font-size="8px" fill="#000000" x="47.849411255591164" y="-16.97169731866846" font-family="sans-serif">trek</text></g><g class="relationship" transform="translate(31.56930757158056 275.9419370584227) rotate(358.84788187856134)"><path class="outline" fill="#A5ABB6" stroke="none" d="M 25 0.5 L 49.151831988934816 0.5 L 49.151831988934816 -0.5 L 25 -0.5 Z M 68.48776948893482 0.5 L 92.63960147786963 0.5 L 92.63960147786963 3.5 L 99.63960147786963 0 L 92.63960147786963 -3.5 L 92.63960147786963 -0.5 L 68.48776948893482 -0.5 Z"/><text text-anchor="middle" pointer-events="none" font-size="8px" fill="#000000" x="58.819800738934816" y="3" font-family="sans-serif">trek</text></g><g class="relationship" transform="translate(156.1837113917 273.4358211157008) rotate(293.8098899608673)"><path class="outline" fill="#A5ABB6" stroke="none" d="M 25 0.5 L 47.473758722712404 0.5 L 47.473758722712404 -0.5 L 25 -0.5 Z M 66.8096962227124 0.5 L 89.28345494542481 0.5 L 89.28345494542481 3.5 L 96.28345494542481 0 L 89.28345494542481 -3.5 L 89.28345494542481 -0.5 L 66.8096962227124 -0.5 Z"/><text text-anchor="middle" pointer-events="none" font-size="8px" fill="#000000" x="57.141727472712404" y="3" font-family="sans-serif">trek</text></g></g><g class="layer nodes"><g class="node" transform="translate(79.54058405551623,-30.125855650093932)"><circle class="outline" cx="0" cy="0" r="25" fill="#8DCC93" stroke="#5db665" stroke-width="2px"/><text text-anchor="middle" pointer-events="none" font-family="sans-serif" dy="1.5625" font-size="25" fill="#2A2C34"/><text text-anchor="middle" pointer-events="none" x="0" y="5" font-size="10px" fill="#2A2C34" font-family="sans-serif"> Darjeeling</text></g><g class="node" transform="translate(205.14623313533062,162.47480134748042)"><circle class="outline" cx="0" cy="0" r="25" fill="#ECB5C9" stroke="#da7298" stroke-width="2px"/><text text-anchor="middle" pointer-events="none" font-family="sans-serif" dy="1.5625" font-size="25" fill="#2A2C34"/><text text-anchor="middle" pointer-events="none" x="0" y="5" font-size="10px" fill="#2A2C34" font-family="sans-serif"> Sandak…</text></g><g class="node" transform="translate(95.20834256167568,194.7590563007316)"><circle class="outline" cx="0" cy="0" r="25" fill="#4C8EDA" stroke="#2870c2" stroke-width="2px"/><text text-anchor="middle" pointer-events="none" font-family="sans-serif" dy="1.5625" font-size="25" fill="#FFFFFF"/><text text-anchor="middle" pointer-events="none" x="0" y="5" font-size="10px" fill="#FFFFFF" font-family="sans-serif"> Gurdum</text></g><g class="node" transform="translate(-1.671931418820186,-65.57406447187853)"><circle class="outline" cx="0" cy="0" r="25" fill="#4C8EDA" stroke="#2870c2" stroke-width="2px"/><text text-anchor="middle" pointer-events="none" font-family="sans-serif" dy="1.5625" font-size="25" fill="#FFFFFF"/><text text-anchor="middle" pointer-events="none" x="0" y="5" font-size="10px" fill="#FFFFFF" font-family="sans-serif"> Tumbling</text></g><g class="node" transform="translate(131.5156682375713,-68.27162987265713)"><circle class="outline" cx="0" cy="0" r="25" fill="#4C8EDA" stroke="#2870c2" stroke-width="2px"/><text text-anchor="middle" pointer-events="none" font-family="sans-serif" dy="1.5625" font-size="25" fill="#FFFFFF"/><text text-anchor="middle" pointer-events="none" x="0" y="5" font-size="10px" fill="#FFFFFF" font-family="sans-serif"> Gairibus</text></g><g class="node" transform="translate(146.478936474341,55.4580317301231)"><circle class="outline" cx="0" cy="0" r="25" fill="#4C8EDA" stroke="#2870c2" stroke-width="2px"/><text text-anchor="middle" pointer-events="none" font-family="sans-serif" dy="1.5625" font-size="25" fill="#FFFFFF"/><text text-anchor="middle" pointer-events="none" x="0" y="5" font-size="10px" fill="#FFFFFF" font-family="sans-serif"> BhikeBh…</text></g><g class="node" transform="translate(16.086697201781025,50.698239563168485)"><circle class="outline" cx="0" cy="0" r="25" fill="#8DCC93" stroke="#5db665" stroke-width="2px"/><text text-anchor="middle" pointer-events="none" font-family="sans-serif" dy="1.5625" font-size="25" fill="#2A2C34"/><text text-anchor="middle" pointer-events="none" x="0" y="5" font-size="10px" fill="#2A2C34" font-family="sans-serif"> Rimbik</text></g><g class="node" transform="translate(-13.379160674940465,166.6748316730958)"><circle class="outline" cx="0" cy="0" r="25" fill="#4C8EDA" stroke="#2870c2" stroke-width="2px"/><text text-anchor="middle" pointer-events="none" font-family="sans-serif" dy="1.5625" font-size="25" fill="#FFFFFF"/><text text-anchor="middle" pointer-events="none" x="0" y="5" font-size="10px" fill="#FFFFFF" font-family="sans-serif"> Sirikhola</text></g><g class="node" transform="translate(31.56930757158056,275.9419370584227)"><circle class="outline" cx="0" cy="0" r="25" fill="#4C8EDA" stroke="#2870c2" stroke-width="2px"/><text text-anchor="middle" pointer-events="none" font-family="sans-serif" dy="1.5625" font-size="25" fill="#FFFFFF"/><text text-anchor="middle" pointer-events="none" x="0" y="5" font-size="10px" fill="#FFFFFF" font-family="sans-serif"> Rammam</text></g><g class="node" transform="translate(156.1837113917,273.4358211157008)"><circle class="outline" cx="0" cy="0" r="25" fill="#ECB5C9" stroke="#da7298" stroke-width="2px"/><text text-anchor="middle" pointer-events="none" font-family="sans-serif" dy="1.5625" font-size="25" fill="#2A2C34"/><text text-anchor="middle" pointer-events="none" x="0" y="5" font-size="10px" fill="#2A2C34" font-family="sans-serif"> Sabargr…</text></g></g></svg>