<svg xmlns="http://www.w3.org/2000/svg" width="1421.50439453125" height="998.3919677734375" viewBox="-642.3300170898438 -374.5043640136719 1421.50439453125 998.3919677734375"><title>Neo4j Graph Visualization</title><desc>Created using Neo4j (http://www.neo4j.com/)</desc><g class="layer relationships"><g class="relationship" transform="translate(263.839830741676 45.242381726025535) rotate(188.02356378764165)"><path class="outline" fill="#A5ABB6" stroke="none" d="M 25 0.5 L 82.80191775347278 0.5 L 82.80191775347278 -0.5 L 25 -0.5 Z M 117.24723025347278 0.5 L 175.04914800694556 0.5 L 175.04914800694556 3.5 L 182.04914800694556 0 L 175.04914800694556 -3.5 L 175.04914800694556 -0.5 L 117.24723025347278 -0.5 Z"/><text text-anchor="middle" pointer-events="none" font-size="8px" fill="#000000" x="100.02457400347278" y="3" transform="rotate(180 100.02457400347278 0)" font-family="sans-serif">ORIGIN</text></g><g class="relationship" transform="translate(263.839830741676 45.242381726025535) rotate(344.3212063766341)"><path class="outline" fill="#A5ABB6" stroke="none" d="M 25 0.5 L 45.55302334510404 0.5 L 45.55302334510404 -0.5 L 25 -0.5 Z M 104.74052334510404 0.5 L 125.29354669020807 0.5 L 125.29354669020807 3.5 L 132.29354669020807 0 L 125.29354669020807 -3.5 L 125.29354669020807 -0.5 L 104.74052334510404 -0.5 Z"/><text text-anchor="middle" pointer-events="none" font-size="8px" fill="#000000" x="75.14677334510404" y="3" font-family="sans-serif">DESTINATION</text></g><g class="relationship" transform="translate(569.3533460257522 89.05257531063481) rotate(209.25935873916126)"><path class="outline" fill="#A5ABB6" stroke="none" d="M 25 0.5 L 67.57956444203778 0.5 L 67.57956444203778 -0.5 L 25 -0.5 Z M 102.02487694203778 0.5 L 144.60444138407556 0.5 L 144.60444138407556 3.5 L 151.60444138407556 0 L 144.60444138407556 -3.5 L 144.60444138407556 -0.5 L 102.02487694203778 -0.5 Z"/><text text-anchor="middle" pointer-events="none" font-size="8px" fill="#000000" x="84.80222069203778" y="3" transform="rotate(180 84.80222069203778 0)" font-family="sans-serif">ORIGIN</text></g><g class="relationship" transform="translate(569.3533460257522 89.05257531063481) rotate(405.8162369401168)"><path class="outline" fill="#A5ABB6" stroke="none" d="M 25 0.5 L 48.930044954848384 0.5 L 48.930044954848384 -0.5 L 25 -0.5 Z M 108.11754495484838 0.5 L 132.04758990969677 0.5 L 132.04758990969677 3.5 L 139.04758990969677 0 L 132.04758990969677 -3.5 L 132.04758990969677 -0.5 L 108.11754495484838 -0.5 Z"/><text text-anchor="middle" pointer-events="none" font-size="8px" fill="#000000" x="78.52379495484838" y="3" font-family="sans-serif">DESTINATION</text></g><g class="relationship" transform="translate(140.24711421543327 -175.50613896941) rotate(472.9986604756605)"><path class="outline" fill="#A5ABB6" stroke="none" d="M 25 0.5 L 83.48462908890221 0.5 L 83.48462908890221 -0.5 L 25 -0.5 Z M 117.92994158890221 0.5 L 176.41457067780442 0.5 L 176.41457067780442 3.5 L 183.41457067780442 0 L 176.41457067780442 -3.5 L 176.41457067780442 -0.5 L 117.92994158890221 -0.5 Z"/><text text-anchor="middle" pointer-events="none" font-size="8px" fill="#000000" x="100.70728533890221" y="3" transform="rotate(180 100.70728533890221 0)" font-family="sans-serif">ORIGIN</text></g><g class="relationship" transform="translate(140.24711421543327 -175.50613896941) rotate(261.0535179588459)"><path class="outline" fill="#A5ABB6" stroke="none" d="M 25 0.5 L 39.89485688863742 0.5 L 39.89485688863742 -0.5 L 25 -0.5 Z M 99.08235688863742 0.5 L 113.97721377727484 0.5 L 113.97721377727484 3.5 L 120.97721377727484 0 L 113.97721377727484 -3.5 L 113.97721377727484 -0.5 L 99.08235688863742 -0.5 Z"/><text text-anchor="middle" pointer-events="none" font-size="8px" fill="#000000" x="69.48860688863742" y="3" transform="rotate(180 69.48860688863742 0)" font-family="sans-serif">DESTINATION</text></g><g class="relationship" transform="translate(325.59860633888724 117.0669592330254) rotate(200.68428823634872)"><path class="outline" fill="#A5ABB6" stroke="none" d="M 25 0.5 L 121.8585285011282 0.5 L 121.8585285011282 -0.5 L 25 -0.5 Z M 156.3038410011282 0.5 L 253.1623695022564 0.5 L 253.1623695022564 3.5 L 260.1623695022564 0 L 253.1623695022564 -3.5 L 253.1623695022564 -0.5 L 156.3038410011282 -0.5 Z"/><text text-anchor="middle" pointer-events="none" font-size="8px" fill="#000000" x="139.0811847511282" y="3" transform="rotate(180 139.0811847511282 0)" font-family="sans-serif">ORIGIN</text></g><g class="relationship" transform="translate(325.59860633888724 117.0669592330254) rotate(379.60923881798425)"><path class="outline" fill="#A5ABB6" stroke="none" d="M 25 0.5 L 91.5058653693302 0.5 L 91.5058653693302 -0.5 L 25 -0.5 Z M 150.6933653693302 0.5 L 217.1992307386604 0.5 L 217.1992307386604 3.5 L 224.1992307386604 0 L 217.1992307386604 -3.5 L 217.1992307386604 -0.5 L 150.6933653693302 -0.5 Z"/><text text-anchor="middle" pointer-events="none" font-size="8px" fill="#000000" x="121.0996153693302" y="3" font-family="sans-serif">DESTINATION</text></g><g class="relationship" transform="translate(650.5828387605686 312.83375728533247) rotate(231.17545091990087)"><path class="outline" fill="#A5ABB6" stroke="none" d="M 25 0.5 L 51.24440405642805 0.5 L 51.24440405642805 -0.5 L 25 -0.5 Z M 85.68971655642805 0.5 L 111.9341206128561 0.5 L 111.9341206128561 3.5 L 118.9341206128561 0 L 111.9341206128561 -3.5 L 111.9341206128561 -0.5 L 85.68971655642805 -0.5 Z"/><text text-anchor="middle" pointer-events="none" font-size="8px" fill="#000000" x="68.46706030642805" y="3" transform="rotate(180 68.46706030642805 0)" font-family="sans-serif">ORIGIN</text></g><g class="relationship" transform="translate(650.5828387605686 312.83375728533247) rotate(287.32267655476926)"><path class="outline" fill="#A5ABB6" stroke="none" d="M 25 0.5 L 25.609729038533338 0.5 L 25.609729038533338 -0.5 L 25 -0.5 Z M 78.57457278853335 0.5 L 79.18430182706668 0.5 L 79.18430182706668 3.5 L 86.18430182706668 0 L 79.18430182706668 -3.5 L 79.18430182706668 -0.5 L 78.57457278853335 -0.5 Z"/><text text-anchor="middle" pointer-events="none" font-size="8px" fill="#000000" x="52.09215091353334" y="3" font-family="sans-serif">DESTINAT…</text></g><g class="relationship" transform="translate(700.2736676013119 91.59057360465692) rotate(502.05487340557056)"><path class="outline" fill="#A5ABB6" stroke="none" d="M 25 0.5 L 67.99693976060011 0.5 L 67.99693976060011 -0.5 L 25 -0.5 Z M 102.44225226060011 0.5 L 145.43919202120023 0.5 L 145.43919202120023 3.5 L 152.43919202120023 0 L 145.43919202120023 -3.5 L 145.43919202120023 -0.5 L 102.44225226060011 -0.5 Z"/><text text-anchor="middle" pointer-events="none" font-size="8px" fill="#000000" x="85.21959601060011" y="3" transform="rotate(180 85.21959601060011 0)" font-family="sans-serif">ORIGIN</text></g><g class="relationship" transform="translate(700.2736676013119 91.59057360465692) rotate(288.7192925872797)"><path class="outline" fill="#A5ABB6" stroke="none" d="M 25 0.5 L 44.64981132308165 0.5 L 44.64981132308165 -0.5 L 25 -0.5 Z M 103.83731132308165 0.5 L 123.4871226461633 0.5 L 123.4871226461633 3.5 L 130.4871226461633 0 L 123.4871226461633 -3.5 L 123.4871226461633 -0.5 L 103.83731132308165 -0.5 Z"/><text text-anchor="middle" pointer-events="none" font-size="8px" fill="#000000" x="74.24356132308165" y="3" font-family="sans-serif">DESTINATION</text></g><g class="relationship" transform="translate(224.43737050041156 0.11922286719580757) rotate(534.4054827276159)"><path class="outline" fill="#A5ABB6" stroke="none" d="M 25 0.5 L 62.483593033922375 0.5 L 62.483593033922375 -0.5 L 25 -0.5 Z M 96.92890553392238 0.5 L 134.41249856784475 0.5 L 134.41249856784475 3.5 L 141.41249856784475 0 L 134.41249856784475 -3.5 L 134.41249856784475 -0.5 L 96.92890553392238 -0.5 Z"/><text text-anchor="middle" pointer-events="none" font-size="8px" fill="#000000" x="79.70624928392238" y="3" transform="rotate(180 79.70624928392238 0)" font-family="sans-serif">ORIGIN</text></g><g class="relationship" transform="translate(224.43737050041156 0.11922286719580757) rotate(360.78518791440234)"><path class="outline" fill="#A5ABB6" stroke="none" d="M 25 0.5 L 62.33691230945121 0.5 L 62.33691230945121 -0.5 L 25 -0.5 Z M 121.52441230945121 0.5 L 158.86132461890242 0.5 L 158.86132461890242 3.5 L 165.86132461890242 0 L 158.86132461890242 -3.5 L 158.86132461890242 -0.5 L 121.52441230945121 -0.5 Z"/><text text-anchor="middle" pointer-events="none" font-size="8px" fill="#000000" x="91.93066230945121" y="3" font-family="sans-serif">DESTINATION</text></g><g class="relationship" transform="translate(150.09147954414718 -116.10937340843093) rotate(484.57114655378973)"><path class="outline" fill="#A5ABB6" stroke="none" d="M 25 0.5 L 59.70495327012401 0.5 L 59.70495327012401 -0.5 L 25 -0.5 Z M 94.15026577012401 0.5 L 128.85521904024802 0.5 L 128.85521904024802 3.5 L 135.85521904024802 0 L 128.85521904024802 -3.5 L 128.85521904024802 -0.5 L 94.15026577012401 -0.5 Z"/><text text-anchor="middle" pointer-events="none" font-size="8px" fill="#000000" x="76.92760952012401" y="3" transform="rotate(180 76.92760952012401 0)" font-family="sans-serif">ORIGIN</text></g><g class="relationship" transform="translate(150.09147954414718 -116.10937340843093) rotate(311.1262253188489)"><path class="outline" fill="#A5ABB6" stroke="none" d="M 25 0.5 L 59.675358076146594 0.5 L 59.675358076146594 -0.5 L 25 -0.5 Z M 118.8628580761466 0.5 L 153.5382161522932 0.5 L 153.5382161522932 3.5 L 160.5382161522932 0 L 153.5382161522932 -3.5 L 153.5382161522932 -0.5 L 118.8628580761466 -0.5 Z"/><text text-anchor="middle" pointer-events="none" font-size="8px" fill="#000000" x="89.2691080761466" y="3" font-family="sans-serif">DESTINATION</text></g><g class="relationship" transform="translate(177.8160554873148 214.53566208477162) rotate(239.01869881940496)"><path class="outline" fill="#A5ABB6" stroke="none" d="M 25 0.5 L 94.8641299116653 0.5 L 94.8641299116653 -0.5 L 25 -0.5 Z M 129.30944241166532 0.5 L 199.1735723233306 0.5 L 199.1735723233306 3.5 L 206.1735723233306 0 L 199.1735723233306 -3.5 L 199.1735723233306 -0.5 L 129.30944241166532 -0.5 Z"/><text text-anchor="middle" pointer-events="none" font-size="8px" fill="#000000" x="112.0867861616653" y="3" transform="rotate(180 112.0867861616653 0)" font-family="sans-serif">ORIGIN</text></g><g class="relationship" transform="translate(177.8160554873148 214.53566208477162) rotate(394.1445544623949)"><path class="outline" fill="#A5ABB6" stroke="none" d="M 25 0.5 L 25.120140388901433 0.5 L 25.120140388901433 -0.5 L 25 -0.5 Z M 68.45607788890143 0.5 L 68.57621827780287 0.5 L 68.57621827780287 3.5 L 75.57621827780287 0 L 68.57621827780287 -3.5 L 68.57621827780287 -0.5 L 68.45607788890143 -0.5 Z"/><text text-anchor="middle" pointer-events="none" font-size="8px" fill="#000000" x="46.78810913890143" y="3" font-family="sans-serif">DESTIN…</text></g><g class="relationship" transform="translate(87.60533907946395 -146.79000899836697) rotate(460.0078877861494)"><path class="outline" fill="#A5ABB6" stroke="none" d="M 25 0.5 L 62.103844039456234 0.5 L 62.103844039456234 -0.5 L 25 -0.5 Z M 96.54915653945623 0.5 L 133.65300057891247 0.5 L 133.65300057891247 3.5 L 140.65300057891247 0 L 133.65300057891247 -3.5 L 133.65300057891247 -0.5 L 96.54915653945623 -0.5 Z"/><text text-anchor="middle" pointer-events="none" font-size="8px" fill="#000000" x="79.32650028945623" y="3" transform="rotate(180 79.32650028945623 0)" font-family="sans-serif">ORIGIN</text></g><g class="relationship" transform="translate(87.60533907946395 -146.79000899836697) rotate(279.82334818355645)"><path class="outline" fill="#A5ABB6" stroke="none" d="M 25 0.5 L 54.65142439236763 0.5 L 54.65142439236763 -0.5 L 25 -0.5 Z M 113.83892439236763 0.5 L 143.49034878473526 0.5 L 143.49034878473526 3.5 L 150.49034878473526 0 L 143.49034878473526 -3.5 L 143.49034878473526 -0.5 L 113.83892439236763 -0.5 Z"/><text text-anchor="middle" pointer-events="none" font-size="8px" fill="#000000" x="84.24517439236763" y="3" font-family="sans-serif">DESTINATION</text></g><g class="relationship" transform="translate(36.44346946653533 -178.0639549117011) rotate(443.43475985938954)"><path class="outline" fill="#A5ABB6" stroke="none" d="M 25 0.5 L 77.12215124585116 0.5 L 77.12215124585116 -0.5 L 25 -0.5 Z M 111.56746374585116 0.5 L 163.6896149917023 0.5 L 163.6896149917023 3.5 L 170.6896149917023 0 L 163.6896149917023 -3.5 L 163.6896149917023 -0.5 L 111.56746374585116 -0.5 Z"/><text text-anchor="middle" pointer-events="none" font-size="8px" fill="#000000" x="94.34480749585116" y="3" font-family="sans-serif">ORIGIN</text></g><g class="relationship" transform="translate(36.44346946653533 -178.0639549117011) rotate(299.7946679504797)"><path class="outline" fill="#A5ABB6" stroke="none" d="M 25 0.5 L 48.51579937040762 0.5 L 48.51579937040762 -0.5 L 25 -0.5 Z M 107.70329937040762 0.5 L 131.21909874081524 0.5 L 131.21909874081524 3.5 L 138.21909874081524 0 L 131.21909874081524 -3.5 L 131.21909874081524 -0.5 L 107.70329937040762 -0.5 Z"/><text text-anchor="middle" pointer-events="none" font-size="8px" fill="#000000" x="78.10954937040762" y="3" font-family="sans-serif">DESTINATION</text></g><g class="relationship" transform="translate(283.20697251019715 -11.4203609743574) rotate(532.9468811453564)"><path class="outline" fill="#A5ABB6" stroke="none" d="M 25 0.5 L 92.32754069604 0.5 L 92.32754069604 -0.5 L 25 -0.5 Z M 126.77285319604 0.5 L 194.10039389208 0.5 L 194.10039389208 3.5 L 201.10039389208 0 L 194.10039389208 -3.5 L 194.10039389208 -0.5 L 126.77285319604 -0.5 Z"/><text text-anchor="middle" pointer-events="none" font-size="8px" fill="#000000" x="109.55019694604" y="3" transform="rotate(180 109.55019694604 0)" font-family="sans-serif">ORIGIN</text></g><g class="relationship" transform="translate(283.20697251019715 -11.4203609743574) rotate(366.1173576747095)"><path class="outline" fill="#A5ABB6" stroke="none" d="M 25 0.5 L 33.321337411078645 0.5 L 33.321337411078645 -0.5 L 25 -0.5 Z M 92.50883741107864 0.5 L 100.83017482215729 0.5 L 100.83017482215729 3.5 L 107.83017482215729 0 L 100.83017482215729 -3.5 L 100.83017482215729 -0.5 L 92.50883741107864 -0.5 Z"/><text text-anchor="middle" pointer-events="none" font-size="8px" fill="#000000" x="62.915087411078645" y="3" font-family="sans-serif">DESTINATION</text></g><g class="relationship" transform="translate(118.04374842545073 212.53664915205752) rotate(253.2022295136511)"><path class="outline" fill="#A5ABB6" stroke="none" d="M 25 0.5 L 81.74676811925397 0.5 L 81.74676811925397 -0.5 L 25 -0.5 Z M 116.19208061925397 0.5 L 172.93884873850794 0.5 L 172.93884873850794 3.5 L 179.93884873850794 0 L 172.93884873850794 -3.5 L 172.93884873850794 -0.5 L 116.19208061925397 -0.5 Z"/><text text-anchor="middle" pointer-events="none" font-size="8px" fill="#000000" x="98.96942436925397" y="3" transform="rotate(180 98.96942436925397 0)" font-family="sans-serif">ORIGIN</text></g><g class="relationship" transform="translate(118.04374842545073 212.53664915205752) rotate(382.2304741536251)"><path class="outline" fill="#A5ABB6" stroke="none" d="M 25 0.5 L 44.15391379843102 0.5 L 44.15391379843102 -0.5 L 25 -0.5 Z M 103.34141379843102 0.5 L 122.49532759686204 0.5 L 122.49532759686204 3.5 L 129.49532759686204 0 L 122.49532759686204 -3.5 L 122.49532759686204 -0.5 L 103.34141379843102 -0.5 Z"/><text text-anchor="middle" pointer-events="none" font-size="8px" fill="#000000" x="73.74766379843102" y="3" font-family="sans-serif">DESTINATION</text></g><g class="relationship" transform="translate(243.90563568631563 -56.5648200144251) rotate(518.5002496198475)"><path class="outline" fill="#A5ABB6" stroke="none" d="M 25 0.5 L 78.7422428304889 0.5 L 78.7422428304889 -0.5 L 25 -0.5 Z M 113.1875553304889 0.5 L 166.9297981609778 0.5 L 166.9297981609778 3.5 L 173.9297981609778 0 L 166.9297981609778 -3.5 L 166.9297981609778 -0.5 L 113.1875553304889 -0.5 Z"/><text text-anchor="middle" pointer-events="none" font-size="8px" fill="#000000" x="95.9648990804889" y="3" transform="rotate(180 95.9648990804889 0)" font-family="sans-serif">ORIGIN</text></g><g class="relationship" transform="translate(243.90563568631563 -56.5648200144251) rotate(379.0867394137324)"><path class="outline" fill="#A5ABB6" stroke="none" d="M 25 0.5 L 57.578563835357926 0.5 L 57.578563835357926 -0.5 L 25 -0.5 Z M 116.76606383535793 0.5 L 149.34462767071585 0.5 L 149.34462767071585 3.5 L 156.34462767071585 0 L 149.34462767071585 -3.5 L 149.34462767071585 -0.5 L 116.76606383535793 -0.5 Z"/><text text-anchor="middle" pointer-events="none" font-size="8px" fill="#000000" x="87.17231383535793" y="3" font-family="sans-serif">DESTINATION</text></g><g class="relationship" transform="translate(151.6739189656236 160.74178736737147) rotate(237.2568584210194)"><path class="outline" fill="#A5ABB6" stroke="none" d="M 25 0.5 L 65.11657376014537 0.5 L 65.11657376014537 -0.5 L 25 -0.5 Z M 99.56188626014537 0.5 L 139.67846002029074 0.5 L 139.67846002029074 3.5 L 146.67846002029074 0 L 139.67846002029074 -3.5 L 139.67846002029074 -0.5 L 99.56188626014537 -0.5 Z"/><text text-anchor="middle" pointer-events="none" font-size="8px" fill="#000000" x="82.33923001014537" y="3" transform="rotate(180 82.33923001014537 0)" font-family="sans-serif">ORIGIN</text></g><g class="relationship" transform="translate(151.6739189656236 160.74178736737147) rotate(405.2254309973041)"><path class="outline" fill="#A5ABB6" stroke="none" d="M 25 0.5 L 44.55672542069047 0.5 L 44.55672542069047 -0.5 L 25 -0.5 Z M 103.74422542069047 0.5 L 123.30095084138094 0.5 L 123.30095084138094 3.5 L 130.30095084138094 0 L 123.30095084138094 -3.5 L 123.30095084138094 -0.5 L 103.74422542069047 -0.5 Z"/><text text-anchor="middle" pointer-events="none" font-size="8px" fill="#000000" x="74.15047542069047" y="3" font-family="sans-serif">DESTINATION</text></g><g class="relationship" transform="translate(209.15581365964522 -125.65555069730193) rotate(496.63420197478035)"><path class="outline" fill="#A5ABB6" stroke="none" d="M 25 0.5 L 82.67585872859586 0.5 L 82.67585872859586 -0.5 L 25 -0.5 Z M 117.12117122859586 0.5 L 174.7970299571917 0.5 L 174.7970299571917 3.5 L 181.7970299571917 0 L 174.7970299571917 -3.5 L 174.7970299571917 -0.5 L 117.12117122859586 -0.5 Z"/><text text-anchor="middle" pointer-events="none" font-size="8px" fill="#000000" x="99.89851497859586" y="3" transform="rotate(180 99.89851497859586 0)" font-family="sans-serif">ORIGIN</text></g><g class="relationship" transform="translate(209.15581365964522 -125.65555069730193) rotate(295.8073318390539)"><path class="outline" fill="#A5ABB6" stroke="none" d="M 25 0.5 L 39.22554917280293 0.5 L 39.22554917280293 -0.5 L 25 -0.5 Z M 98.41304917280293 0.5 L 112.63859834560586 0.5 L 112.63859834560586 3.5 L 119.63859834560586 0 L 112.63859834560586 -3.5 L 112.63859834560586 -0.5 L 98.41304917280293 -0.5 Z"/><text text-anchor="middle" pointer-events="none" font-size="8px" fill="#000000" x="68.81929917280293" y="3" font-family="sans-serif">DESTINATION</text></g><g class="relationship" transform="translate(91.8591844589695 158.74721775001507) rotate(256.93702671437154)"><path class="outline" fill="#A5ABB6" stroke="none" d="M 25 0.5 L 52.37126565184924 0.5 L 52.37126565184924 -0.5 L 25 -0.5 Z M 86.81657815184924 0.5 L 114.18784380369848 0.5 L 114.18784380369848 3.5 L 121.18784380369848 0 L 114.18784380369848 -3.5 L 114.18784380369848 -0.5 L 86.81657815184924 -0.5 Z"/><text text-anchor="middle" pointer-events="none" font-size="8px" fill="#000000" x="69.59392190184924" y="3" transform="rotate(180 69.59392190184924 0)" font-family="sans-serif">ORIGIN</text></g><g class="relationship" transform="translate(91.8591844589695 158.74721775001507) rotate(393.55921319513413)"><path class="outline" fill="#A5ABB6" stroke="none" d="M 25 0.5 L 68.4261922405008 0.5 L 68.4261922405008 -0.5 L 25 -0.5 Z M 127.6136922405008 0.5 L 171.0398844810016 0.5 L 171.0398844810016 3.5 L 178.0398844810016 0 L 171.0398844810016 -3.5 L 171.0398844810016 -0.5 L 127.6136922405008 -0.5 Z"/><text text-anchor="middle" pointer-events="none" font-size="8px" fill="#000000" x="98.0199422405008" y="3" font-family="sans-serif">DESTINATION</text></g><g class="relationship" transform="translate(306.71224620576 -105.61423795150536) rotate(513.8042224914514)"><path class="outline" fill="#A5ABB6" stroke="none" d="M 25 0.5 L 117.41242674418936 0.5 L 117.41242674418936 -0.5 L 25 -0.5 Z M 151.85773924418936 0.5 L 244.27016598837872 0.5 L 244.27016598837872 3.5 L 251.27016598837872 0 L 244.27016598837872 -3.5 L 244.27016598837872 -0.5 L 151.85773924418936 -0.5 Z"/><text text-anchor="middle" pointer-events="none" font-size="8px" fill="#000000" x="134.63508299418936" y="3" transform="rotate(180 134.63508299418936 0)" font-family="sans-serif">ORIGIN</text></g><g class="relationship" transform="translate(306.71224620576 -105.61423795150536) rotate(340.407043501604)"><path class="outline" fill="#A5ABB6" stroke="none" d="M 25 0.5 L 88.9294412000795 0.5 L 88.9294412000795 -0.5 L 25 -0.5 Z M 148.1169412000795 0.5 L 212.046382400159 0.5 L 212.046382400159 3.5 L 219.046382400159 0 L 212.046382400159 -3.5 L 212.046382400159 -0.5 L 148.1169412000795 -0.5 Z"/><text text-anchor="middle" pointer-events="none" font-size="8px" fill="#000000" x="118.5231912000795" y="3" font-family="sans-serif">DESTINATION</text></g><g class="relationship" transform="translate(689.9232305086044 -188.90356954379843) rotate(539.4573701173399)"><path class="outline" fill="#A5ABB6" stroke="none" d="M 25 0.5 L 55.92838564912225 0.5 L 55.92838564912225 -0.5 L 25 -0.5 Z M 90.37369814912225 0.5 L 121.3020837982445 0.5 L 121.3020837982445 3.5 L 128.3020837982445 0 L 121.3020837982445 -3.5 L 121.3020837982445 -0.5 L 90.37369814912225 -0.5 Z"/><text text-anchor="middle" pointer-events="none" font-size="8px" fill="#000000" x="73.15104189912225" y="3" transform="rotate(180 73.15104189912225 0)" font-family="sans-serif">ORIGIN</text></g><g class="relationship" transform="translate(689.9232305086044 -188.90356954379843) rotate(425.66618343995833)"><path class="outline" fill="#A5ABB6" stroke="none" d="M 25 0.5 L 40.01739509912156 0.5 L 40.01739509912156 -0.5 L 25 -0.5 Z M 99.20489509912156 0.5 L 114.22229019824312 0.5 L 114.22229019824312 3.5 L 121.22229019824312 0 L 114.22229019824312 -3.5 L 114.22229019824312 -0.5 L 99.20489509912156 -0.5 Z"/><text text-anchor="middle" pointer-events="none" font-size="8px" fill="#000000" x="69.61114509912156" y="3" font-family="sans-serif">DESTINATION</text></g><g class="relationship" transform="translate(662.177293585735 -135.72297368965155) rotate(202.3926141147266)"><path class="outline" fill="#A5ABB6" stroke="none" d="M 25 0.5 L 47.17153070824125 0.5 L 47.17153070824125 -0.5 L 25 -0.5 Z M 81.61684320824125 0.5 L 103.7883739164825 0.5 L 103.7883739164825 3.5 L 110.7883739164825 0 L 103.7883739164825 -3.5 L 103.7883739164825 -0.5 L 81.61684320824125 -0.5 Z"/><text text-anchor="middle" pointer-events="none" font-size="8px" fill="#000000" x="64.39418695824125" y="3" transform="rotate(180 64.39418695824125 0)" font-family="sans-serif">ORIGIN</text></g><g class="relationship" transform="translate(662.177293585735 -135.72297368965155) rotate(402.29290789664105)"><path class="outline" fill="#A5ABB6" stroke="none" d="M 25 0.5 L 26.38674329209752 0.5 L 26.38674329209752 -0.5 L 25 -0.5 Z M 85.57424329209752 0.5 L 86.96098658419504 0.5 L 86.96098658419504 3.5 L 93.96098658419504 0 L 86.96098658419504 -3.5 L 86.96098658419504 -0.5 L 85.57424329209752 -0.5 Z"/><text text-anchor="middle" pointer-events="none" font-size="8px" fill="#000000" x="55.98049329209752" y="3" font-family="sans-serif">DESTINATION</text></g><g class="relationship" transform="translate(181.98682471106648 109.13414837288104) rotate(216.99318883263118)"><path class="outline" fill="#A5ABB6" stroke="none" d="M 25 0.5 L 56.38276444027031 0.5 L 56.38276444027031 -0.5 L 25 -0.5 Z M 90.82807694027031 0.5 L 122.21084138054061 0.5 L 122.21084138054061 3.5 L 129.21084138054061 0 L 122.21084138054061 -3.5 L 122.21084138054061 -0.5 L 90.82807694027031 -0.5 Z"/><text text-anchor="middle" pointer-events="none" font-size="8px" fill="#000000" x="73.60542069027031" y="3" transform="rotate(180 73.60542069027031 0)" font-family="sans-serif">ORIGIN</text></g><g class="relationship" transform="translate(181.98682471106648 109.13414837288104) rotate(423.9635643180049)"><path class="outline" fill="#A5ABB6" stroke="none" d="M 25 0.5 L 56.97330083964371 0.5 L 56.97330083964371 -0.5 L 25 -0.5 Z M 116.16080083964371 0.5 L 148.13410167928743 0.5 L 148.13410167928743 3.5 L 155.13410167928743 0 L 148.13410167928743 -3.5 L 148.13410167928743 -0.5 L 116.16080083964371 -0.5 Z"/><text text-anchor="middle" pointer-events="none" font-size="8px" fill="#000000" x="86.56705083964371" y="3" font-family="sans-serif">DESTINATION</text></g><g class="relationship" transform="translate(241.76909115936104 113.40508074125528) rotate(207.9476352758582)"><path class="outline" fill="#A5ABB6" stroke="none" d="M 25 0.5 L 82.82979013831083 0.5 L 82.82979013831083 -0.5 L 25 -0.5 Z M 117.27510263831083 0.5 L 175.10489277662165 0.5 L 175.10489277662165 3.5 L 182.10489277662165 0 L 175.10489277662165 -3.5 L 175.10489277662165 -0.5 L 117.27510263831083 -0.5 Z"/><text text-anchor="middle" pointer-events="none" font-size="8px" fill="#000000" x="100.05244638831083" y="3" transform="rotate(180 100.05244638831083 0)" font-family="sans-serif">ORIGIN</text></g><g class="relationship" transform="translate(241.76909115936104 113.40508074125528) rotate(443.0223531196143)"><path class="outline" fill="#A5ABB6" stroke="none" d="M 25 0.5 L 46.28529978289059 0.5 L 46.28529978289059 -0.5 L 25 -0.5 Z M 105.47279978289059 0.5 L 126.75809956578118 0.5 L 126.75809956578118 3.5 L 133.75809956578118 0 L 126.75809956578118 -3.5 L 126.75809956578118 -0.5 L 105.47279978289059 -0.5 Z"/><text text-anchor="middle" pointer-events="none" font-size="8px" fill="#000000" x="75.87904978289059" y="3" font-family="sans-serif">DESTINATION</text></g><g class="relationship" transform="translate(-29.385921663823787 -146.82907105987192) rotate(421.60625458442524)"><path class="outline" fill="#A5ABB6" stroke="none" d="M 25 0.5 L 72.01996576474815 0.5 L 72.01996576474815 -0.5 L 25 -0.5 Z M 106.46527826474815 0.5 L 153.4852440294963 0.5 L 153.4852440294963 3.5 L 160.4852440294963 0 L 153.4852440294963 -3.5 L 153.4852440294963 -0.5 L 106.46527826474815 -0.5 Z"/><text text-anchor="middle" pointer-events="none" font-size="8px" fill="#000000" x="89.24262201474815" y="3" font-family="sans-serif">ORIGIN</text></g><g class="relationship" transform="translate(-29.385921663823787 -146.82907105987192) rotate(206.60192343510352)"><path class="outline" fill="#A5ABB6" stroke="none" d="M 25 0.5 L 41.26675112332299 0.5 L 41.26675112332299 -0.5 L 25 -0.5 Z M 100.45425112332299 0.5 L 116.72100224664598 0.5 L 116.72100224664598 3.5 L 123.72100224664598 0 L 116.72100224664598 -3.5 L 116.72100224664598 -0.5 L 100.45425112332299 -0.5 Z"/><text text-anchor="middle" pointer-events="none" font-size="8px" fill="#000000" x="70.86050112332299" y="3" transform="rotate(180 70.86050112332299 0)" font-family="sans-serif">DESTINATION</text></g><g class="relationship" transform="translate(-223.03436732189064 -345.50435855089245) rotate(425.32817827209635)"><path class="outline" fill="#A5ABB6" stroke="none" d="M 25 0.5 L 51.95131194085103 0.5 L 51.95131194085103 -0.5 L 25 -0.5 Z M 86.39662444085103 0.5 L 113.34793638170206 0.5 L 113.34793638170206 3.5 L 120.34793638170206 0 L 113.34793638170206 -3.5 L 113.34793638170206 -0.5 L 86.39662444085103 -0.5 Z"/><text text-anchor="middle" pointer-events="none" font-size="8px" fill="#000000" x="69.17396819085103" y="3" font-family="sans-serif">ORIGIN</text></g><g class="relationship" transform="translate(-223.03436732189064 -345.50435855089245) rotate(489.7282566973338)"><path class="outline" fill="#A5ABB6" stroke="none" d="M 25 0.5 L 39.309960527146245 0.5 L 39.309960527146245 -0.5 L 25 -0.5 Z M 98.49746052714625 0.5 L 112.80742105429249 0.5 L 112.80742105429249 3.5 L 119.80742105429249 0 L 112.80742105429249 -3.5 L 112.80742105429249 -0.5 L 98.49746052714625 -0.5 Z"/><text text-anchor="middle" pointer-events="none" font-size="8px" fill="#000000" x="68.90371052714625" y="3" transform="rotate(180 68.90371052714625 0)" font-family="sans-serif">DESTINATION</text></g><g class="relationship" transform="translate(-60.64001147550341 -95.72996436298112) rotate(403.17303414935276)"><path class="outline" fill="#A5ABB6" stroke="none" d="M 25 0.5 L 61.17715860292002 0.5 L 61.17715860292002 -0.5 L 25 -0.5 Z M 95.62247110292002 0.5 L 131.79962970584003 0.5 L 131.79962970584003 3.5 L 138.79962970584003 0 L 131.79962970584003 -3.5 L 131.79962970584003 -0.5 L 95.62247110292002 -0.5 Z"/><text text-anchor="middle" pointer-events="none" font-size="8px" fill="#000000" x="78.39981485292002" y="3" font-family="sans-serif">ORIGIN</text></g><g class="relationship" transform="translate(-60.64001147550341 -95.72996436298112) rotate(229.16325124143486)"><path class="outline" fill="#A5ABB6" stroke="none" d="M 25 0.5 L 44.68745210201851 0.5 L 44.68745210201851 -0.5 L 25 -0.5 Z M 103.87495210201851 0.5 L 123.56240420403702 0.5 L 123.56240420403702 3.5 L 130.56240420403702 0 L 123.56240420403702 -3.5 L 123.56240420403702 -0.5 L 103.87495210201851 -0.5 Z"/><text text-anchor="middle" pointer-events="none" font-size="8px" fill="#000000" x="74.28120210201851" y="3" transform="rotate(180 74.28120210201851 0)" font-family="sans-serif">DESTINATION</text></g><g class="relationship" transform="translate(89.04227162372419 -206.63503799534843) rotate(457.71943007868595)"><path class="outline" fill="#A5ABB6" stroke="none" d="M 25 0.5 L 91.78564040303789 0.5 L 91.78564040303789 -0.5 L 25 -0.5 Z M 126.23095290303789 0.5 L 193.01659330607578 0.5 L 193.01659330607578 3.5 L 200.01659330607578 0 L 193.01659330607578 -3.5 L 193.01659330607578 -0.5 L 126.23095290303789 -0.5 Z"/><text text-anchor="middle" pointer-events="none" font-size="8px" fill="#000000" x="109.00829665303789" y="3" transform="rotate(180 109.00829665303789 0)" font-family="sans-serif">ORIGIN</text></g><g class="relationship" transform="translate(89.04227162372419 -206.63503799534843) rotate(284.14853348160267)"><path class="outline" fill="#A5ABB6" stroke="none" d="M 25 0.5 L 25.21108945574433 0.5 L 25.21108945574433 -0.5 L 25 -0.5 Z M 84.39858945574433 0.5 L 84.60967891148866 0.5 L 84.60967891148866 3.5 L 91.60967891148866 0 L 84.60967891148866 -3.5 L 84.60967891148866 -0.5 L 84.39858945574433 -0.5 Z"/><text text-anchor="middle" pointer-events="none" font-size="8px" fill="#000000" x="54.80483945574433" y="3" font-family="sans-serif">DESTINATION</text></g><g class="relationship" transform="translate(211.38483809659408 164.855083599888) rotate(224.22845201841744)"><path class="outline" fill="#A5ABB6" stroke="none" d="M 25 0.5 L 85.73484852754677 0.5 L 85.73484852754677 -0.5 L 25 -0.5 Z M 120.18016102754677 0.5 L 180.91500955509355 0.5 L 180.91500955509355 3.5 L 187.91500955509355 0 L 180.91500955509355 -3.5 L 180.91500955509355 -0.5 L 120.18016102754677 -0.5 Z"/><text text-anchor="middle" pointer-events="none" font-size="8px" fill="#000000" x="102.95750477754677" y="3" transform="rotate(180 102.95750477754677 0)" font-family="sans-serif">ORIGIN</text></g><g class="relationship" transform="translate(211.38483809659408 164.855083599888) rotate(424.92013267713094)"><path class="outline" fill="#A5ABB6" stroke="none" d="M 25 0.5 L 25.496394901144015 0.5 L 25.496394901144015 -0.5 L 25 -0.5 Z M 84.68389490114401 0.5 L 85.18028980228803 0.5 L 85.18028980228803 3.5 L 92.18028980228803 0 L 85.18028980228803 -3.5 L 85.18028980228803 -0.5 L 84.68389490114401 -0.5 Z"/><text text-anchor="middle" pointer-events="none" font-size="8px" fill="#000000" x="55.090144901144015" y="3" font-family="sans-serif">DESTINATION</text></g><g class="relationship" transform="translate(-122.65748135321698 125.07816027634264) rotate(329.0709021070717)"><path class="outline" fill="#A5ABB6" stroke="none" d="M 25 0.5 L 85.05618267255491 0.5 L 85.05618267255491 -0.5 L 25 -0.5 Z M 119.50149517255491 0.5 L 179.55767784510982 0.5 L 179.55767784510982 3.5 L 186.55767784510982 0 L 179.55767784510982 -3.5 L 179.55767784510982 -0.5 L 119.50149517255491 -0.5 Z"/><text text-anchor="middle" pointer-events="none" font-size="8px" fill="#000000" x="102.27883892255491" y="3" font-family="sans-serif">ORIGIN</text></g><g class="relationship" transform="translate(-122.65748135321698 125.07816027634264) rotate(515.6436355408193)"><path class="outline" fill="#A5ABB6" stroke="none" d="M 25 0.5 L 85.55581178092763 0.5 L 85.55581178092763 -0.5 L 25 -0.5 Z M 144.74331178092763 0.5 L 205.29912356185525 0.5 L 205.29912356185525 3.5 L 212.29912356185525 0 L 205.29912356185525 -3.5 L 205.29912356185525 -0.5 L 144.74331178092763 -0.5 Z"/><text text-anchor="middle" pointer-events="none" font-size="8px" fill="#000000" x="115.14956178092763" y="3" transform="rotate(180 115.14956178092763 0)" font-family="sans-serif">DESTINATION</text></g><g class="relationship" transform="translate(-337.04193127727916 -2.0471077782348663) rotate(450.4569965825711)"><path class="outline" fill="#A5ABB6" stroke="none" d="M 25 0.5 L 91.77591076779565 0.5 L 91.77591076779565 -0.5 L 25 -0.5 Z M 126.22122326779565 0.5 L 192.9971340355913 0.5 L 192.9971340355913 3.5 L 199.9971340355913 0 L 192.9971340355913 -3.5 L 192.9971340355913 -0.5 L 126.22122326779565 -0.5 Z"/><text text-anchor="middle" pointer-events="none" font-size="8px" fill="#000000" x="108.99856701779565" y="3" transform="rotate(180 108.99856701779565 0)" font-family="sans-serif">ORIGIN</text></g><g class="relationship" transform="translate(-337.04193127727916 -2.0471077782348663) rotate(275.2814327378508)"><path class="outline" fill="#A5ABB6" stroke="none" d="M 25 0.5 L 83.44506457851881 0.5 L 83.44506457851881 -0.5 L 25 -0.5 Z M 142.6325645785188 0.5 L 201.07762915703762 0.5 L 201.07762915703762 3.5 L 208.07762915703762 0 L 201.07762915703762 -3.5 L 201.07762915703762 -0.5 L 142.6325645785188 -0.5 Z"/><text text-anchor="middle" pointer-events="none" font-size="8px" fill="#000000" x="113.03881457851881" y="3" font-family="sans-serif">DESTINATION</text></g><g class="relationship" transform="translate(-531.1271833954612 283.6639528599444) rotate(342.4750512234641)"><path class="outline" fill="#A5ABB6" stroke="none" d="M 25 0.5 L 80.10238126553384 0.5 L 80.10238126553384 -0.5 L 25 -0.5 Z M 114.54769376553384 0.5 L 169.65007503106767 0.5 L 169.65007503106767 3.5 L 176.65007503106767 0 L 169.65007503106767 -3.5 L 169.65007503106767 -0.5 L 114.54769376553384 -0.5 Z"/><text text-anchor="middle" pointer-events="none" font-size="8px" fill="#000000" x="97.32503751553384" y="3" font-family="sans-serif">ORIGIN</text></g><g class="relationship" transform="translate(-531.1271833954612 283.6639528599444) rotate(234.82200131364004)"><path class="outline" fill="#A5ABB6" stroke="none" d="M 25 0.5 L 38.24821638118367 0.5 L 38.24821638118367 -0.5 L 25 -0.5 Z M 97.43571638118367 0.5 L 110.68393276236733 0.5 L 110.68393276236733 3.5 L 117.68393276236733 0 L 110.68393276236733 -3.5 L 110.68393276236733 -0.5 L 97.43571638118367 -0.5 Z"/><text text-anchor="middle" pointer-events="none" font-size="8px" fill="#000000" x="67.84196638118367" y="3" transform="rotate(180 67.84196638118367 0)" font-family="sans-serif">DESTINATION</text></g><g class="relationship" transform="translate(-486.49256911391586 240.32274247378456) rotate(353.28688233008484)"><path class="outline" fill="#A5ABB6" stroke="none" d="M 25 0.5 L 53.61503868752422 0.5 L 53.61503868752422 -0.5 L 25 -0.5 Z M 88.06035118752422 0.5 L 116.67538987504844 0.5 L 116.67538987504844 3.5 L 123.67538987504844 0 L 116.67538987504844 -3.5 L 116.67538987504844 -0.5 L 88.06035118752422 -0.5 Z"/><text text-anchor="middle" pointer-events="none" font-size="8px" fill="#000000" x="70.83769493752422" y="3" font-family="sans-serif">ORIGIN</text></g><g class="relationship" transform="translate(-486.49256911391586 240.32274247378456) rotate(210.01834771618496)"><path class="outline" fill="#A5ABB6" stroke="none" d="M 25 0.5 L 40.1494407842991 0.5 L 40.1494407842991 -0.5 L 25 -0.5 Z M 99.3369407842991 0.5 L 114.4863815685982 0.5 L 114.4863815685982 3.5 L 121.4863815685982 0 L 114.4863815685982 -3.5 L 114.4863815685982 -0.5 L 99.3369407842991 -0.5 Z"/><text text-anchor="middle" pointer-events="none" font-size="8px" fill="#000000" x="69.7431907842991" y="3" transform="rotate(180 69.7431907842991 0)" font-family="sans-serif">DESTINATION</text></g><g class="relationship" transform="translate(-314.6669915612323 79.23875659585764) rotate(459.54719353051746)"><path class="outline" fill="#A5ABB6" stroke="none" d="M 25 0.5 L 52.13857775291211 0.5 L 52.13857775291211 -0.5 L 25 -0.5 Z M 86.58389025291211 0.5 L 113.72246800582423 0.5 L 113.72246800582423 3.5 L 120.72246800582423 0 L 113.72246800582423 -3.5 L 113.72246800582423 -0.5 L 86.58389025291211 -0.5 Z"/><text text-anchor="middle" pointer-events="none" font-size="8px" fill="#000000" x="69.36123400291211" y="3" transform="rotate(180 69.36123400291211 0)" font-family="sans-serif">ORIGIN</text></g><g class="relationship" transform="translate(-314.6669915612323 79.23875659585764) rotate(261.5324547035607)"><path class="outline" fill="#A5ABB6" stroke="none" d="M 25 0.5 L 56.26171696286892 0.5 L 56.26171696286892 -0.5 L 25 -0.5 Z M 115.44921696286892 0.5 L 146.71093392573783 0.5 L 146.71093392573783 3.5 L 153.71093392573783 0 L 146.71093392573783 -3.5 L 146.71093392573783 -0.5 L 115.44921696286892 -0.5 Z"/><text text-anchor="middle" pointer-events="none" font-size="8px" fill="#000000" x="85.85546696286892" y="3" transform="rotate(180 85.85546696286892 0)" font-family="sans-serif">DESTINATION</text></g><g class="relationship" transform="translate(-444.5298880099759 197.6320999786274) rotate(373.46720986882787)"><path class="outline" fill="#A5ABB6" stroke="none" d="M 25 0.5 L 33.61822393692065 0.5 L 33.61822393692065 -0.5 L 25 -0.5 Z M 68.06353643692066 0.5 L 76.6817603738413 0.5 L 76.6817603738413 3.5 L 83.6817603738413 0 L 76.6817603738413 -3.5 L 76.6817603738413 -0.5 L 68.06353643692066 -0.5 Z"/><text text-anchor="middle" pointer-events="none" font-size="8px" fill="#000000" x="50.84088018692065" y="3" font-family="sans-serif">ORIGIN</text></g><g class="relationship" transform="translate(-444.5298880099759 197.6320999786274) rotate(190.27272009478833)"><path class="outline" fill="#A5ABB6" stroke="none" d="M 25 0.5 L 52.68129283271976 0.5 L 52.68129283271976 -0.5 L 25 -0.5 Z M 111.86879283271976 0.5 L 139.55008566543952 0.5 L 139.55008566543952 3.5 L 146.55008566543952 0 L 139.55008566543952 -3.5 L 139.55008566543952 -0.5 L 111.86879283271976 -0.5 Z"/><text text-anchor="middle" pointer-events="none" font-size="8px" fill="#000000" x="82.27504283271976" y="3" transform="rotate(180 82.27504283271976 0)" font-family="sans-serif">DESTINATION</text></g><g class="relationship" transform="translate(-473.1415040349546 298.5405525366001) rotate(330.6256811780916)"><path class="outline" fill="#A5ABB6" stroke="none" d="M 25 0.5 L 56.33712722697389 0.5 L 56.33712722697389 -0.5 L 25 -0.5 Z M 90.78243972697389 0.5 L 122.11956695394778 0.5 L 122.11956695394778 3.5 L 129.11956695394778 0 L 122.11956695394778 -3.5 L 122.11956695394778 -0.5 L 90.78243972697389 -0.5 Z"/><text text-anchor="middle" pointer-events="none" font-size="8px" fill="#000000" x="73.55978347697389" y="3" font-family="sans-serif">ORIGIN</text></g><g class="relationship" transform="translate(-473.1415040349546 298.5405525366001) rotate(223.16867197974312)"><path class="outline" fill="#A5ABB6" stroke="none" d="M 25 0.5 L 63.012312386366375 0.5 L 63.012312386366375 -0.5 L 25 -0.5 Z M 122.19981238636637 0.5 L 160.21212477273275 0.5 L 160.21212477273275 3.5 L 167.21212477273275 0 L 160.21212477273275 -3.5 L 160.21212477273275 -0.5 L 122.19981238636637 -0.5 Z"/><text text-anchor="middle" pointer-events="none" font-size="8px" fill="#000000" x="92.60606238636637" y="3" transform="rotate(180 92.60606238636637 0)" font-family="sans-serif">DESTINATION</text></g><g class="relationship" transform="translate(-460.3593988803524 139.8183441165009) rotate(394.3730496907012)"><path class="outline" fill="#A5ABB6" stroke="none" d="M 25 0.5 L 52.893746523769494 0.5 L 52.893746523769494 -0.5 L 25 -0.5 Z M 87.3390590237695 0.5 L 115.23280554753899 0.5 L 115.23280554753899 3.5 L 122.23280554753899 0 L 115.23280554753899 -3.5 L 115.23280554753899 -0.5 L 87.3390590237695 -0.5 Z"/><text text-anchor="middle" pointer-events="none" font-size="8px" fill="#000000" x="70.1164027737695" y="3" font-family="sans-serif">ORIGIN</text></g><g class="relationship" transform="translate(-460.3593988803524 139.8183441165009) rotate(529.91003230558)"><path class="outline" fill="#A5ABB6" stroke="none" d="M 25 0.5 L 44.59308305519272 0.5 L 44.59308305519272 -0.5 L 25 -0.5 Z M 103.78058305519272 0.5 L 123.37366611038544 0.5 L 123.37366611038544 3.5 L 130.37366611038544 0 L 123.37366611038544 -3.5 L 123.37366611038544 -0.5 L 103.78058305519272 -0.5 Z"/><text text-anchor="middle" pointer-events="none" font-size="8px" fill="#000000" x="74.18683305519272" y="3" transform="rotate(180 74.18683305519272 0)" font-family="sans-serif">DESTINATION</text></g><g class="relationship" transform="translate(-476.4736356331121 82.1319520982458) rotate(405.65303757725417)"><path class="outline" fill="#A5ABB6" stroke="none" d="M 25 0.5 L 77.72998789594837 0.5 L 77.72998789594837 -0.5 L 25 -0.5 Z M 112.17530039594837 0.5 L 164.90528829189674 0.5 L 164.90528829189674 3.5 L 171.90528829189674 0 L 164.90528829189674 -3.5 L 164.90528829189674 -0.5 L 112.17530039594837 -0.5 Z"/><text text-anchor="middle" pointer-events="none" font-size="8px" fill="#000000" x="94.95264414594837" y="3" font-family="sans-serif">ORIGIN</text></g><g class="relationship" transform="translate(-476.4736356331121 82.1319520982458) rotate(508.1841520640589)"><path class="outline" fill="#A5ABB6" stroke="none" d="M 25 0.5 L 47.433992648888506 0.5 L 47.433992648888506 -0.5 L 25 -0.5 Z M 106.6214926488885 0.5 L 129.055485297777 0.5 L 129.055485297777 3.5 L 136.055485297777 0 L 129.055485297777 -3.5 L 129.055485297777 -0.5 L 106.6214926488885 -0.5 Z"/><text text-anchor="middle" pointer-events="none" font-size="8px" fill="#000000" x="77.0277426488885" y="3" transform="rotate(180 77.0277426488885 0)" font-family="sans-serif">DESTINATION</text></g><g class="relationship" transform="translate(-375.1034396042687 411.12470567548036) rotate(280.90846053061887)"><path class="outline" fill="#A5ABB6" stroke="none" d="M 25 0.5 L 75.09969715625789 0.5 L 75.09969715625789 -0.5 L 25 -0.5 Z M 109.54500965625789 0.5 L 159.64470681251578 0.5 L 159.64470681251578 3.5 L 166.64470681251578 0 L 159.64470681251578 -3.5 L 159.64470681251578 -0.5 L 109.54500965625789 -0.5 Z"/><text text-anchor="middle" pointer-events="none" font-size="8px" fill="#000000" x="92.32235340625789" y="3" font-family="sans-serif">ORIGIN</text></g><g class="relationship" transform="translate(-375.1034396042687 411.12470567548036) rotate(432.6501815339437)"><path class="outline" fill="#A5ABB6" stroke="none" d="M 25 0.5 L 38.206363859779216 0.5 L 38.206363859779216 -0.5 L 25 -0.5 Z M 97.39386385977922 0.5 L 110.60022771955843 0.5 L 110.60022771955843 3.5 L 117.60022771955843 0 L 110.60022771955843 -3.5 L 110.60022771955843 -0.5 L 97.39386385977922 -0.5 Z"/><text text-anchor="middle" pointer-events="none" font-size="8px" fill="#000000" x="67.80011385977922" y="3" font-family="sans-serif">DESTINATION</text></g><g class="relationship" transform="translate(-273.9885836664602 416.71512528102915) rotate(251.49663962816248)"><path class="outline" fill="#A5ABB6" stroke="none" d="M 25 0.5 L 81.44502555080517 0.5 L 81.44502555080517 -0.5 L 25 -0.5 Z M 115.89033805080517 0.5 L 172.33536360161034 0.5 L 172.33536360161034 3.5 L 179.33536360161034 0 L 172.33536360161034 -3.5 L 172.33536360161034 -0.5 L 115.89033805080517 -0.5 Z"/><text text-anchor="middle" pointer-events="none" font-size="8px" fill="#000000" x="98.66768180080517" y="3" transform="rotate(180 98.66768180080517 0)" font-family="sans-serif">ORIGIN</text></g><g class="relationship" transform="translate(-273.9885836664602 416.71512528102915) rotate(429.4444568755999)"><path class="outline" fill="#A5ABB6" stroke="none" d="M 25 0.5 L 62.05010372290714 0.5 L 62.05010372290714 -0.5 L 25 -0.5 Z M 121.23760372290714 0.5 L 158.28770744581428 0.5 L 158.28770744581428 3.5 L 165.28770744581428 0 L 158.28770744581428 -3.5 L 158.28770744581428 -0.5 L 121.23760372290714 -0.5 Z"/><text text-anchor="middle" pointer-events="none" font-size="8px" fill="#000000" x="91.64385372290714" y="3" font-family="sans-serif">DESTINATION</text></g><g class="relationship" transform="translate(-394.0706892959824 59.20921039595621) rotate(431.3586079586251)"><path class="outline" fill="#A5ABB6" stroke="none" d="M 25 0.5 L 65.67688881815519 0.5 L 65.67688881815519 -0.5 L 25 -0.5 Z M 100.12220131815519 0.5 L 140.79909013631038 0.5 L 140.79909013631038 3.5 L 147.79909013631038 0 L 140.79909013631038 -3.5 L 140.79909013631038 -0.5 L 100.12220131815519 -0.5 Z"/><text text-anchor="middle" pointer-events="none" font-size="8px" fill="#000000" x="82.89954506815519" y="3" font-family="sans-serif">ORIGIN</text></g><g class="relationship" transform="translate(-394.0706892959824 59.20921039595621) rotate(243.6541360525501)"><path class="outline" fill="#A5ABB6" stroke="none" d="M 25 0.5 L 56.63285799648223 0.5 L 56.63285799648223 -0.5 L 25 -0.5 Z M 115.82035799648223 0.5 L 147.45321599296446 0.5 L 147.45321599296446 3.5 L 154.45321599296446 0 L 147.45321599296446 -3.5 L 147.45321599296446 -0.5 L 115.82035799648223 -0.5 Z"/><text text-anchor="middle" pointer-events="none" font-size="8px" fill="#000000" x="86.22660799648223" y="3" transform="rotate(180 86.22660799648223 0)" font-family="sans-serif">DESTINATION</text></g><g class="relationship" transform="translate(-418.55771596956697 369.7390139973895) rotate(298.50524538019727)"><path class="outline" fill="#A5ABB6" stroke="none" d="M 25 0.5 L 62.80066181295753 0.5 L 62.80066181295753 -0.5 L 25 -0.5 Z M 97.24597431295753 0.5 L 135.04663612591506 0.5 L 135.04663612591506 3.5 L 142.04663612591506 0 L 135.04663612591506 -3.5 L 135.04663612591506 -0.5 L 97.24597431295753 -0.5 Z"/><text text-anchor="middle" pointer-events="none" font-size="8px" fill="#000000" x="80.02331806295753" y="3" font-family="sans-serif">ORIGIN</text></g><g class="relationship" transform="translate(-418.55771596956697 369.7390139973895) rotate(468.08166272539603)"><path class="outline" fill="#A5ABB6" stroke="none" d="M 25 0.5 L 49.98905783556599 0.5 L 49.98905783556599 -0.5 L 25 -0.5 Z M 109.17655783556599 0.5 L 134.16561567113197 0.5 L 134.16561567113197 3.5 L 141.16561567113197 0 L 134.16561567113197 -3.5 L 134.16561567113197 -0.5 L 109.17655783556599 -0.5 Z"/><text text-anchor="middle" pointer-events="none" font-size="8px" fill="#000000" x="79.58280783556599" y="3" transform="rotate(180 79.58280783556599 0)" font-family="sans-serif">DESTINATION</text></g><g class="relationship" transform="translate(-205.4972925609305 379.42992119053775) rotate(229.56640409087476)"><path class="outline" fill="#A5ABB6" stroke="none" d="M 25 0.5 L 82.07270418377226 0.5 L 82.07270418377226 -0.5 L 25 -0.5 Z M 116.51801668377226 0.5 L 173.59072086754452 0.5 L 173.59072086754452 3.5 L 180.59072086754452 0 L 173.59072086754452 -3.5 L 173.59072086754452 -0.5 L 116.51801668377226 -0.5 Z"/><text text-anchor="middle" pointer-events="none" font-size="8px" fill="#000000" x="99.29536043377226" y="3" transform="rotate(180 99.29536043377226 0)" font-family="sans-serif">ORIGIN</text></g><g class="relationship" transform="translate(-205.4972925609305 379.42992119053775) rotate(411.34625539697157)"><path class="outline" fill="#A5ABB6" stroke="none" d="M 25 0.5 L 69.41944626744638 0.5 L 69.41944626744638 -0.5 L 25 -0.5 Z M 128.60694626744638 0.5 L 173.02639253489275 0.5 L 173.02639253489275 3.5 L 180.02639253489275 0 L 173.02639253489275 -3.5 L 173.02639253489275 -0.5 L 128.60694626744638 -0.5 Z"/><text text-anchor="middle" pointer-events="none" font-size="8px" fill="#000000" x="99.01319626744638" y="3" font-family="sans-serif">DESTINATION</text></g><g class="relationship" transform="translate(-544.4122042146545 225.2880818154448) rotate(359.34639671969785)"><path class="outline" fill="#A5ABB6" stroke="none" d="M 25 0.5 L 82.0718788132346 0.5 L 82.0718788132346 -0.5 L 25 -0.5 Z M 116.5171913132346 0.5 L 173.5890701264692 0.5 L 173.5890701264692 3.5 L 180.5890701264692 0 L 173.5890701264692 -3.5 L 173.5890701264692 -0.5 L 116.5171913132346 -0.5 Z"/><text text-anchor="middle" pointer-events="none" font-size="8px" fill="#000000" x="99.2945350632346" y="3" font-family="sans-serif">ORIGIN</text></g><g class="relationship" transform="translate(-544.4122042146545 225.2880818154448) rotate(220.20439755199158)"><path class="outline" fill="#A5ABB6" stroke="none" d="M 25 0.5 L 26.3936548966754 0.5 L 26.3936548966754 -0.5 L 25 -0.5 Z M 56.8428736466754 0.5 L 58.2365285433508 0.5 L 58.2365285433508 3.5 L 65.2365285433508 0 L 58.2365285433508 -3.5 L 58.2365285433508 -0.5 L 56.8428736466754 -0.5 Z"/><text text-anchor="middle" pointer-events="none" font-size="8px" fill="#000000" x="41.6182642716754" y="3" transform="rotate(180 41.6182642716754 0)" font-family="sans-serif">DES…</text></g><g class="relationship" transform="translate(-230.54098579096578 151.67319136722438) rotate(506.65094028597554)"><path class="outline" fill="#A5ABB6" stroke="none" d="M 25 0.5 L 44.09880572651163 0.5 L 44.09880572651163 -0.5 L 25 -0.5 Z M 78.54411822651163 0.5 L 97.64292395302326 0.5 L 97.64292395302326 3.5 L 104.64292395302326 0 L 97.64292395302326 -3.5 L 97.64292395302326 -0.5 L 78.54411822651163 -0.5 Z"/><text text-anchor="middle" pointer-events="none" font-size="8px" fill="#000000" x="61.32146197651163" y="3" transform="rotate(180 61.32146197651163 0)" font-family="sans-serif">ORIGIN</text></g><g class="relationship" transform="translate(-230.54098579096578 151.67319136722438) rotate(304.14921887383514)"><path class="outline" fill="#A5ABB6" stroke="none" d="M 25 0.5 L 37.165421364038096 0.5 L 37.165421364038096 -0.5 L 25 -0.5 Z M 96.3529213640381 0.5 L 108.51834272807619 0.5 L 108.51834272807619 3.5 L 115.51834272807619 0 L 108.51834272807619 -3.5 L 108.51834272807619 -0.5 L 96.3529213640381 -0.5 Z"/><text text-anchor="middle" pointer-events="none" font-size="8px" fill="#000000" x="66.7591713640381" y="3" font-family="sans-serif">DESTINATION</text></g><g class="relationship" transform="translate(-502.39385568959926 182.5061550672979) rotate(373.88691550337785)"><path class="outline" fill="#A5ABB6" stroke="none" d="M 25 0.5 L 63.51826750175397 0.5 L 63.51826750175397 -0.5 L 25 -0.5 Z M 97.96358000175397 0.5 L 136.48184750350794 0.5 L 136.48184750350794 3.5 L 143.48184750350794 0 L 136.48184750350794 -3.5 L 136.48184750350794 -0.5 L 97.96358000175397 -0.5 Z"/><text text-anchor="middle" pointer-events="none" font-size="8px" fill="#000000" x="80.74092375175397" y="3" font-family="sans-serif">ORIGIN</text></g><g class="relationship" transform="translate(-502.39385568959926 182.5061550672979) rotate(187.93726930038156)"><path class="outline" fill="#A5ABB6" stroke="none" d="M 25 0.5 L 26.022200890422198 0.5 L 26.022200890422198 -0.5 L 25 -0.5 Z M 78.9870446404222 0.5 L 80.0092455308444 0.5 L 80.0092455308444 3.5 L 87.0092455308444 0 L 80.0092455308444 -3.5 L 80.0092455308444 -0.5 L 78.9870446404222 -0.5 Z"/><text text-anchor="middle" pointer-events="none" font-size="8px" fill="#000000" x="52.5046227654222" y="3" transform="rotate(180 52.5046227654222 0)" font-family="sans-serif">DESTINAT…</text></g><g class="relationship" transform="translate(-252.91387567615877 342.66559325751535) rotate(234.333743027597)"><path class="outline" fill="#A5ABB6" stroke="none" d="M 25 0.5 L 52.959481750971534 0.5 L 52.959481750971534 -0.5 L 25 -0.5 Z M 87.40479425097153 0.5 L 115.36427600194307 0.5 L 115.36427600194307 3.5 L 122.36427600194307 0 L 115.36427600194307 -3.5 L 115.36427600194307 -0.5 L 87.40479425097153 -0.5 Z"/><text text-anchor="middle" pointer-events="none" font-size="8px" fill="#000000" x="70.18213800097153" y="3" transform="rotate(180 70.18213800097153 0)" font-family="sans-serif">ORIGIN</text></g><g class="relationship" transform="translate(-252.91387567615877 342.66559325751535) rotate(418.5819870345943)"><path class="outline" fill="#A5ABB6" stroke="none" d="M 25 0.5 L 58.53420553358079 0.5 L 58.53420553358079 -0.5 L 25 -0.5 Z M 117.72170553358079 0.5 L 151.25591106716158 0.5 L 151.25591106716158 3.5 L 158.25591106716158 0 L 151.25591106716158 -3.5 L 151.25591106716158 -0.5 L 117.72170553358079 -0.5 Z"/><text text-anchor="middle" pointer-events="none" font-size="8px" fill="#000000" x="88.12795553358079" y="3" font-family="sans-serif">DESTINATION</text></g><g class="relationship" transform="translate(-185.47027715562197 257.16212194178746) rotate(192.57788014372795)"><path class="outline" fill="#A5ABB6" stroke="none" d="M 25 0.5 L 57.846037995680405 0.5 L 57.846037995680405 -0.5 L 25 -0.5 Z M 92.2913504956804 0.5 L 125.13738849136081 0.5 L 125.13738849136081 3.5 L 132.1373884913608 0 L 125.13738849136081 -3.5 L 125.13738849136081 -0.5 L 92.2913504956804 -0.5 Z"/><text text-anchor="middle" pointer-events="none" font-size="8px" fill="#000000" x="75.0686942456804" y="3" transform="rotate(180 75.0686942456804 0)" font-family="sans-serif">ORIGIN</text></g><g class="relationship" transform="translate(-185.47027715562197 257.16212194178746) rotate(393.98416080160575)"><path class="outline" fill="#A5ABB6" stroke="none" d="M 25 0.5 L 55.618917494584366 0.5 L 55.618917494584366 -0.5 L 25 -0.5 Z M 114.80641749458437 0.5 L 145.42533498916873 0.5 L 145.42533498916873 3.5 L 152.42533498916873 0 L 145.42533498916873 -3.5 L 145.42533498916873 -0.5 L 114.80641749458437 -0.5 Z"/><text text-anchor="middle" pointer-events="none" font-size="8px" fill="#000000" x="85.21266749458437" y="3" font-family="sans-serif">DESTINATION</text></g><g class="relationship" transform="translate(-518.4055149958003 124.77784206918751) rotate(388.66411391639144)"><path class="outline" fill="#A5ABB6" stroke="none" d="M 25 0.5 L 81.60207177160491 0.5 L 81.60207177160491 -0.5 L 25 -0.5 Z M 116.04738427160491 0.5 L 172.64945604320982 0.5 L 172.64945604320982 3.5 L 179.64945604320982 0 L 172.64945604320982 -3.5 L 172.64945604320982 -0.5 L 116.04738427160491 -0.5 Z"/><text text-anchor="middle" pointer-events="none" font-size="8px" fill="#000000" x="98.82472802160491" y="3" font-family="sans-serif">ORIGIN</text></g><g class="relationship" transform="translate(-518.4055149958003 124.77784206918751) rotate(516.0010229321177)"><path class="outline" fill="#A5ABB6" stroke="none" d="M 25 0.5 L 26.785530398349238 0.5 L 26.785530398349238 -0.5 L 25 -0.5 Z M 70.12146789834924 0.5 L 71.90699829669848 0.5 L 71.90699829669848 3.5 L 78.90699829669848 0 L 71.90699829669848 -3.5 L 71.90699829669848 -0.5 L 70.12146789834924 -0.5 Z"/><text text-anchor="middle" pointer-events="none" font-size="8px" fill="#000000" x="48.45349914834924" y="3" transform="rotate(180 48.45349914834924 0)" font-family="sans-serif">DESTIN…</text></g><g class="relationship" transform="translate(-176.92708198872768 318.8799412205126) rotate(210.6482436364081)"><path class="outline" fill="#A5ABB6" stroke="none" d="M 25 0.5 L 73.37647351240356 0.5 L 73.37647351240356 -0.5 L 25 -0.5 Z M 107.82178601240356 0.5 L 156.19825952480713 0.5 L 156.19825952480713 3.5 L 163.19825952480713 0 L 156.19825952480713 -3.5 L 156.19825952480713 -0.5 L 107.82178601240356 -0.5 Z"/><text text-anchor="middle" pointer-events="none" font-size="8px" fill="#000000" x="90.59912976240356" y="3" transform="rotate(180 90.59912976240356 0)" font-family="sans-serif">ORIGIN</text></g><g class="relationship" transform="translate(-176.92708198872768 318.8799412205126) rotate(401.6695288773789)"><path class="outline" fill="#A5ABB6" stroke="none" d="M 25 0.5 L 66.01704511092365 0.5 L 66.01704511092365 -0.5 L 25 -0.5 Z M 125.20454511092365 0.5 L 166.2215902218473 0.5 L 166.2215902218473 3.5 L 173.2215902218473 0 L 166.2215902218473 -3.5 L 166.2215902218473 -0.5 L 125.20454511092365 -0.5 Z"/><text text-anchor="middle" pointer-events="none" font-size="8px" fill="#000000" x="95.61079511092365" y="3" font-family="sans-serif">DESTINATION</text></g><g class="relationship" transform="translate(-322.8363062792671 381.88048296509305) rotate(264.2514173817766)"><path class="outline" fill="#A5ABB6" stroke="none" d="M 25 0.5 L 59.14781946717814 0.5 L 59.14781946717814 -0.5 L 25 -0.5 Z M 93.59313196717814 0.5 L 127.74095143435628 0.5 L 127.74095143435628 3.5 L 134.74095143435628 0 L 127.74095143435628 -3.5 L 127.74095143435628 -0.5 L 93.59313196717814 -0.5 Z"/><text text-anchor="middle" pointer-events="none" font-size="8px" fill="#000000" x="76.37047571717814" y="3" transform="rotate(180 76.37047571717814 0)" font-family="sans-serif">ORIGIN</text></g><g class="relationship" transform="translate(-322.8363062792671 381.88048296509305) rotate(453.37205317091957)"><path class="outline" fill="#A5ABB6" stroke="none" d="M 25 0.5 L 49.7278478032615 0.5 L 49.7278478032615 -0.5 L 25 -0.5 Z M 108.9153478032615 0.5 L 133.643195606523 0.5 L 133.643195606523 3.5 L 140.643195606523 0 L 133.643195606523 -3.5 L 133.643195606523 -0.5 L 108.9153478032615 -0.5 Z"/><text text-anchor="middle" pointer-events="none" font-size="8px" fill="#000000" x="79.3215978032615" y="3" transform="rotate(180 79.3215978032615 0)" font-family="sans-serif">DESTINATION</text></g><g class="relationship" transform="translate(-250.77343489777363 -1.1936615611290151) rotate(471.4498265127795)"><path class="outline" fill="#A5ABB6" stroke="none" d="M 25 0.5 L 99.68528557901905 0.5 L 99.68528557901905 -0.5 L 25 -0.5 Z M 134.13059807901905 0.5 L 208.8158836580381 0.5 L 208.8158836580381 3.5 L 215.8158836580381 0 L 208.8158836580381 -3.5 L 208.8158836580381 -0.5 L 134.13059807901905 -0.5 Z"/><text text-anchor="middle" pointer-events="none" font-size="8px" fill="#000000" x="116.90794182901905" y="3" transform="rotate(180 116.90794182901905 0)" font-family="sans-serif">ORIGIN</text></g><g class="relationship" transform="translate(-250.77343489777363 -1.1936615611290151) rotate(292.61540877756767)"><path class="outline" fill="#A5ABB6" stroke="none" d="M 25 0.5 L 81.86101264688709 0.5 L 81.86101264688709 -0.5 L 25 -0.5 Z M 141.0485126468871 0.5 L 197.90952529377418 0.5 L 197.90952529377418 3.5 L 204.90952529377418 0 L 197.90952529377418 -3.5 L 197.90952529377418 -0.5 L 141.0485126468871 -0.5 Z"/><text text-anchor="middle" pointer-events="none" font-size="8px" fill="#000000" x="111.45476264688709" y="3" font-family="sans-serif">DESTINATION</text></g></g><g class="layer nodes"><g class="node" transform="translate(415.2807732589622,2.7347264171204837)"><circle class="outline" cx="0" cy="0" r="25" fill="#F16667" stroke="#eb2728" stroke-width="2px"/><text text-anchor="middle" pointer-events="none" font-family="sans-serif" dy="1.5625" font-size="25" fill="#FFFFFF"/><text text-anchor="middle" pointer-events="none" x="0" y="5" font-size="10px" fill="#FFFFFF" font-family="sans-serif"> SMF</text></g><g class="node" transform="translate(683.6882677764173,206.69243855200946)"><circle class="outline" cx="0" cy="0" r="25" fill="#F16667" stroke="#eb2728" stroke-width="2px"/><text text-anchor="middle" pointer-events="none" font-family="sans-serif" dy="1.5625" font-size="25" fill="#FFFFFF"/><text text-anchor="middle" pointer-events="none" x="0" y="5" font-size="10px" fill="#FFFFFF" font-family="sans-serif"> DEN</text></g><g class="node" transform="translate(117.54593023768643,-319.70739828493987)"><circle class="outline" cx="0" cy="0" r="25" fill="#F16667" stroke="#eb2728" stroke-width="2px"/><text text-anchor="middle" pointer-events="none" font-family="sans-serif" dy="1.5625" font-size="25" fill="#FFFFFF"/><text text-anchor="middle" pointer-events="none" x="0" y="5" font-size="10px" fill="#FFFFFF" font-family="sans-serif"> FAT</text></g><g class="node" transform="translate(560.3451164411474,200.69908580857984)"><circle class="outline" cx="0" cy="0" r="25" fill="#F16667" stroke="#eb2728" stroke-width="2px"/><text text-anchor="middle" pointer-events="none" font-family="sans-serif" dy="1.5625" font-size="25" fill="#FFFFFF"/><text text-anchor="middle" pointer-events="none" x="0" y="5" font-size="10px" fill="#FFFFFF" font-family="sans-serif"> LAS</text></g><g class="node" transform="translate(750.1744478262048,-55.671632822280614)"><circle class="outline" cx="0" cy="0" r="25" fill="#F16667" stroke="#eb2728" stroke-width="2px"/><text text-anchor="middle" pointer-events="none" font-family="sans-serif" dy="1.5625" font-size="25" fill="#FFFFFF"/><text text-anchor="middle" pointer-events="none" x="0" y="5" font-size="10px" fill="#FFFFFF" font-family="sans-serif"> IAD</text></g><g class="node" transform="translate(272.12369298933294,-255.8683392555053)"><circle class="outline" cx="0" cy="0" r="25" fill="#F16667" stroke="#eb2728" stroke-width="2px"/><text text-anchor="middle" pointer-events="none" font-family="sans-serif" dy="1.5625" font-size="25" fill="#FFFFFF"/><text text-anchor="middle" pointer-events="none" x="0" y="5" font-size="10px" fill="#FFFFFF" font-family="sans-serif"> TUS</text></g><g class="node" transform="translate(261.05535953698427,270.98735775807205)"><circle class="outline" cx="0" cy="0" r="25" fill="#F16667" stroke="#eb2728" stroke-width="2px"/><text text-anchor="middle" pointer-events="none" font-family="sans-serif" dy="1.5625" font-size="25" fill="#FFFFFF"/><text text-anchor="middle" pointer-events="none" x="0" y="5" font-size="10px" fill="#FFFFFF" font-family="sans-serif"> ABQ</text></g><g class="node" transform="translate(536.6280217778361,-187.4517165642739)"><circle class="outline" cx="0" cy="0" r="25" fill="#F16667" stroke="#eb2728" stroke-width="2px"/><text text-anchor="middle" pointer-events="none" font-family="sans-serif" dy="1.5625" font-size="25" fill="#FFFFFF"/><text text-anchor="middle" pointer-events="none" x="0" y="5" font-size="10px" fill="#FFFFFF" font-family="sans-serif"> BOS</text></g><g class="node" transform="translate(-162.36320037045925,-213.42471548970437)"><circle class="outline" cx="0" cy="0" r="25" fill="#F16667" stroke="#eb2728" stroke-width="2px"/><text text-anchor="middle" pointer-events="none" font-family="sans-serif" dy="1.5625" font-size="25" fill="#FFFFFF"/><text text-anchor="middle" pointer-events="none" x="0" y="5" font-size="10px" fill="#FFFFFF" font-family="sans-serif"> EWR</text></g><g class="node" transform="translate(-315.58762306558185,-234.13522439048853)"><circle class="outline" cx="0" cy="0" r="25" fill="#F16667" stroke="#eb2728" stroke-width="2px"/><text text-anchor="middle" pointer-events="none" font-family="sans-serif" dy="1.5625" font-size="25" fill="#FFFFFF"/><text text-anchor="middle" pointer-events="none" x="0" y="5" font-size="10px" fill="#FFFFFF" font-family="sans-serif"> ORD</text></g><g class="node" transform="translate(-338.8365107731306,222.94286935110952)"><circle class="outline" cx="0" cy="0" r="25" fill="#F16667" stroke="#eb2728" stroke-width="2px"/><text text-anchor="middle" pointer-events="none" font-family="sans-serif" dy="1.5625" font-size="25" fill="#FFFFFF"/><text text-anchor="middle" pointer-events="none" x="0" y="5" font-size="10px" fill="#FFFFFF" font-family="sans-serif"> IAH</text></g><g class="node" transform="translate(-613.3300358319216,167.03893101709423)"><circle class="outline" cx="0" cy="0" r="25" fill="#F16667" stroke="#eb2728" stroke-width="2px"/><text text-anchor="middle" pointer-events="none" font-family="sans-serif" dy="1.5625" font-size="25" fill="#FFFFFF"/><text text-anchor="middle" pointer-events="none" x="0" y="5" font-size="10px" fill="#FFFFFF" font-family="sans-serif"> CRP</text></g><g class="node" transform="translate(-340.9820278732183,-97.52412629675726)"><circle class="outline" cx="0" cy="0" r="25" fill="#F16667" stroke="#eb2728" stroke-width="2px"/><text text-anchor="middle" pointer-events="none" font-family="sans-serif" dy="1.5625" font-size="25" fill="#FFFFFF"/><text text-anchor="middle" pointer-events="none" x="0" y="5" font-size="10px" fill="#FFFFFF" font-family="sans-serif"> ORF</text></g><g class="node" transform="translate(-332.57934974764163,547.2368900218328)"><circle class="outline" cx="0" cy="0" r="25" fill="#F16667" stroke="#eb2728" stroke-width="2px"/><text text-anchor="middle" pointer-events="none" font-family="sans-serif" dy="1.5625" font-size="25" fill="#FFFFFF"/><text text-anchor="middle" pointer-events="none" x="0" y="5" font-size="10px" fill="#FFFFFF" font-family="sans-serif"> MCO</text></g><g class="node" transform="translate(-207.17567029747983,594.8876433979736)"><circle class="outline" cx="0" cy="0" r="25" fill="#F16667" stroke="#eb2728" stroke-width="2px"/><text text-anchor="middle" pointer-events="none" font-family="sans-serif" dy="1.5625" font-size="25" fill="#FFFFFF"/><text text-anchor="middle" pointer-events="none" x="0" y="5" font-size="10px" fill="#FFFFFF" font-family="sans-serif"> TUL</text></g><g class="node" transform="translate(-473.70999253512946,-101.60446473710185)"><circle class="outline" cx="0" cy="0" r="25" fill="#F16667" stroke="#eb2728" stroke-width="2px"/><text text-anchor="middle" pointer-events="none" font-family="sans-serif" dy="1.5625" font-size="25" fill="#FFFFFF"/><text text-anchor="middle" pointer-events="none" x="0" y="5" font-size="10px" fill="#FFFFFF" font-family="sans-serif"> AUS</text></g><g class="node" transform="translate(-470.13090452389326,527.698559621281)"><circle class="outline" cx="0" cy="0" r="25" fill="#F16667" stroke="#eb2728" stroke-width="2px"/><text text-anchor="middle" pointer-events="none" font-family="sans-serif" dy="1.5625" font-size="25" fill="#FFFFFF"/><text text-anchor="middle" pointer-events="none" x="0" y="5" font-size="10px" fill="#FFFFFF" font-family="sans-serif"> SFO</text></g><g class="node" transform="translate(-77.43526459884733,539.5421900212259)"><circle class="outline" cx="0" cy="0" r="25" fill="#F16667" stroke="#eb2728" stroke-width="2px"/><text text-anchor="middle" pointer-events="none" font-family="sans-serif" dy="1.5625" font-size="25" fill="#FFFFFF"/><text text-anchor="middle" pointer-events="none" x="0" y="5" font-size="10px" fill="#FFFFFF" font-family="sans-serif"> FLL</text></g><g class="node" transform="translate(-151.6609975968412,35.38324293856672)"><circle class="outline" cx="0" cy="0" r="25" fill="#F16667" stroke="#eb2728" stroke-width="2px"/><text text-anchor="middle" pointer-events="none" font-family="sans-serif" dy="1.5625" font-size="25" fill="#FFFFFF"/><text text-anchor="middle" pointer-events="none" x="0" y="5" font-size="10px" fill="#FFFFFF" font-family="sans-serif"> DFW</text></g><g class="node" transform="translate(-157.38661000606498,499.05379759099685)"><circle class="outline" cx="0" cy="0" r="25" fill="#F16667" stroke="#eb2728" stroke-width="2px"/><text text-anchor="middle" pointer-events="none" font-family="sans-serif" dy="1.5625" font-size="25" fill="#FFFFFF"/><text text-anchor="middle" pointer-events="none" x="0" y="5" font-size="10px" fill="#FFFFFF" font-family="sans-serif"> MFE</text></g><g class="node" transform="translate(-38.350586144572034,356.3364432796818)"><circle class="outline" cx="0" cy="0" r="25" fill="#F16667" stroke="#eb2728" stroke-width="2px"/><text text-anchor="middle" pointer-events="none" font-family="sans-serif" dy="1.5625" font-size="25" fill="#FFFFFF"/><text text-anchor="middle" pointer-events="none" x="0" y="5" font-size="10px" fill="#FFFFFF" font-family="sans-serif"> BWI</text></g><g class="node" transform="translate(-28.857167531338494,450.66423187254514)"><circle class="outline" cx="0" cy="0" r="25" fill="#F16667" stroke="#eb2728" stroke-width="2px"/><text text-anchor="middle" pointer-events="none" font-family="sans-serif" dy="1.5625" font-size="25" fill="#FFFFFF"/><text text-anchor="middle" pointer-events="none" x="0" y="5" font-size="10px" fill="#FFFFFF" font-family="sans-serif"> LGA</text></g><g class="node" transform="translate(58.817539046490026,16.34238867315222)"><circle class="outline" cx="0" cy="0" r="25" fill="#F16667" stroke="#eb2728" stroke-width="2px"/><text text-anchor="middle" pointer-events="none" font-family="sans-serif" dy="1.5625" font-size="25" fill="#FFFFFF"/><text text-anchor="middle" pointer-events="none" x="0" y="5" font-size="10px" fill="#FFFFFF" font-family="sans-serif"> LAX</text></g><g class="node" transform="translate(263.839830741676,45.242381726025535)"><circle class="outline" cx="0" cy="0" r="25" fill="#D9C8AE" stroke="#c0a378" stroke-width="2px"/><text text-anchor="middle" pointer-events="none" font-family="sans-serif" dy="1.5625" font-size="25" fill="#2A2C34"/><text text-anchor="middle" pointer-events="none" x="0" y="5" font-size="10px" fill="#2A2C34" font-family="sans-serif"> 11/4/2015</text></g><g class="node" transform="translate(569.3533460257522,89.05257531063481)"><circle class="outline" cx="0" cy="0" r="25" fill="#D9C8AE" stroke="#c0a378" stroke-width="2px"/><text text-anchor="middle" pointer-events="none" font-family="sans-serif" dy="1.5625" font-size="25" fill="#2A2C34"/><text text-anchor="middle" pointer-events="none" x="0" y="5" font-size="10px" fill="#2A2C34" font-family="sans-serif"> 11/30/20…</text></g><g class="node" transform="translate(140.24711421543327,-175.50613896941)"><circle class="outline" cx="0" cy="0" r="25" fill="#D9C8AE" stroke="#c0a378" stroke-width="2px"/><text text-anchor="middle" pointer-events="none" font-family="sans-serif" dy="1.5625" font-size="25" fill="#2A2C34"/><text text-anchor="middle" pointer-events="none" x="0" y="5" font-size="10px" fill="#2A2C34" font-family="sans-serif"> 11/4/2015</text></g><g class="node" transform="translate(325.59860633888724,117.0669592330254)"><circle class="outline" cx="0" cy="0" r="25" fill="#D9C8AE" stroke="#c0a378" stroke-width="2px"/><text text-anchor="middle" pointer-events="none" font-family="sans-serif" dy="1.5625" font-size="25" fill="#2A2C34"/><text text-anchor="middle" pointer-events="none" x="0" y="5" font-size="10px" fill="#2A2C34" font-family="sans-serif"> 11/29/20…</text></g><g class="node" transform="translate(650.5828387605686,312.83375728533247)"><circle class="outline" cx="0" cy="0" r="25" fill="#D9C8AE" stroke="#c0a378" stroke-width="2px"/><text text-anchor="middle" pointer-events="none" font-family="sans-serif" dy="1.5625" font-size="25" fill="#2A2C34"/><text text-anchor="middle" pointer-events="none" x="0" y="5" font-size="10px" fill="#2A2C34" font-family="sans-serif"> 11/29/20…</text></g><g class="node" transform="translate(700.2736676013119,91.59057360465692)"><circle class="outline" cx="0" cy="0" r="25" fill="#D9C8AE" stroke="#c0a378" stroke-width="2px"/><text text-anchor="middle" pointer-events="none" font-family="sans-serif" dy="1.5625" font-size="25" fill="#2A2C34"/><text text-anchor="middle" pointer-events="none" x="0" y="5" font-size="10px" fill="#2A2C34" font-family="sans-serif"> 11/29/20…</text></g><g class="node" transform="translate(224.43737050041156,0.11922286719580757)"><circle class="outline" cx="0" cy="0" r="25" fill="#D9C8AE" stroke="#c0a378" stroke-width="2px"/><text text-anchor="middle" pointer-events="none" font-family="sans-serif" dy="1.5625" font-size="25" fill="#2A2C34"/><text text-anchor="middle" pointer-events="none" x="0" y="5" font-size="10px" fill="#2A2C34" font-family="sans-serif"> 11/2/2015</text></g><g class="node" transform="translate(150.09147954414718,-116.10937340843093)"><circle class="outline" cx="0" cy="0" r="25" fill="#D9C8AE" stroke="#c0a378" stroke-width="2px"/><text text-anchor="middle" pointer-events="none" font-family="sans-serif" dy="1.5625" font-size="25" fill="#2A2C34"/><text text-anchor="middle" pointer-events="none" x="0" y="5" font-size="10px" fill="#2A2C34" font-family="sans-serif"> 11/1/2015</text></g><g class="node" transform="translate(177.8160554873148,214.53566208477162)"><circle class="outline" cx="0" cy="0" r="25" fill="#D9C8AE" stroke="#c0a378" stroke-width="2px"/><text text-anchor="middle" pointer-events="none" font-family="sans-serif" dy="1.5625" font-size="25" fill="#2A2C34"/><text text-anchor="middle" pointer-events="none" x="0" y="5" font-size="10px" fill="#2A2C34" font-family="sans-serif"> 11/2/2015</text></g><g class="node" transform="translate(87.60533907946395,-146.79000899836697)"><circle class="outline" cx="0" cy="0" r="25" fill="#D9C8AE" stroke="#c0a378" stroke-width="2px"/><text text-anchor="middle" pointer-events="none" font-family="sans-serif" dy="1.5625" font-size="25" fill="#2A2C34"/><text text-anchor="middle" pointer-events="none" x="0" y="5" font-size="10px" fill="#2A2C34" font-family="sans-serif"> 11/3/2015</text></g><g class="node" transform="translate(36.44346946653533,-178.0639549117011)"><circle class="outline" cx="0" cy="0" r="25" fill="#D9C8AE" stroke="#c0a378" stroke-width="2px"/><text text-anchor="middle" pointer-events="none" font-family="sans-serif" dy="1.5625" font-size="25" fill="#2A2C34"/><text text-anchor="middle" pointer-events="none" x="0" y="5" font-size="10px" fill="#2A2C34" font-family="sans-serif"> 11/1/2015</text></g><g class="node" transform="translate(283.20697251019715,-11.4203609743574)"><circle class="outline" cx="0" cy="0" r="25" fill="#D9C8AE" stroke="#c0a378" stroke-width="2px"/><text text-anchor="middle" pointer-events="none" font-family="sans-serif" dy="1.5625" font-size="25" fill="#2A2C34"/><text text-anchor="middle" pointer-events="none" x="0" y="5" font-size="10px" fill="#2A2C34" font-family="sans-serif"> 11/1/2015</text></g><g class="node" transform="translate(118.04374842545073,212.53664915205752)"><circle class="outline" cx="0" cy="0" r="25" fill="#D9C8AE" stroke="#c0a378" stroke-width="2px"/><text text-anchor="middle" pointer-events="none" font-family="sans-serif" dy="1.5625" font-size="25" fill="#2A2C34"/><text text-anchor="middle" pointer-events="none" x="0" y="5" font-size="10px" fill="#2A2C34" font-family="sans-serif"> 11/3/2015</text></g><g class="node" transform="translate(243.90563568631563,-56.5648200144251)"><circle class="outline" cx="0" cy="0" r="25" fill="#D9C8AE" stroke="#c0a378" stroke-width="2px"/><text text-anchor="middle" pointer-events="none" font-family="sans-serif" dy="1.5625" font-size="25" fill="#2A2C34"/><text text-anchor="middle" pointer-events="none" x="0" y="5" font-size="10px" fill="#2A2C34" font-family="sans-serif"> 11/3/2015</text></g><g class="node" transform="translate(151.6739189656236,160.74178736737147)"><circle class="outline" cx="0" cy="0" r="25" fill="#D9C8AE" stroke="#c0a378" stroke-width="2px"/><text text-anchor="middle" pointer-events="none" font-family="sans-serif" dy="1.5625" font-size="25" fill="#2A2C34"/><text text-anchor="middle" pointer-events="none" x="0" y="5" font-size="10px" fill="#2A2C34" font-family="sans-serif"> 11/1/2015</text></g><g class="node" transform="translate(209.15581365964522,-125.65555069730193)"><circle class="outline" cx="0" cy="0" r="25" fill="#D9C8AE" stroke="#c0a378" stroke-width="2px"/><text text-anchor="middle" pointer-events="none" font-family="sans-serif" dy="1.5625" font-size="25" fill="#2A2C34"/><text text-anchor="middle" pointer-events="none" x="0" y="5" font-size="10px" fill="#2A2C34" font-family="sans-serif"> 11/2/2015</text></g><g class="node" transform="translate(91.8591844589695,158.74721775001507)"><circle class="outline" cx="0" cy="0" r="25" fill="#D9C8AE" stroke="#c0a378" stroke-width="2px"/><text text-anchor="middle" pointer-events="none" font-family="sans-serif" dy="1.5625" font-size="25" fill="#2A2C34"/><text text-anchor="middle" pointer-events="none" x="0" y="5" font-size="10px" fill="#2A2C34" font-family="sans-serif"> 11/1/2015</text></g><g class="node" transform="translate(306.71224620576,-105.61423795150536)"><circle class="outline" cx="0" cy="0" r="25" fill="#D9C8AE" stroke="#c0a378" stroke-width="2px"/><text text-anchor="middle" pointer-events="none" font-family="sans-serif" dy="1.5625" font-size="25" fill="#2A2C34"/><text text-anchor="middle" pointer-events="none" x="0" y="5" font-size="10px" fill="#2A2C34" font-family="sans-serif"> 11/29/20…</text></g><g class="node" transform="translate(689.9232305086044,-188.90356954379843)"><circle class="outline" cx="0" cy="0" r="25" fill="#D9C8AE" stroke="#c0a378" stroke-width="2px"/><text text-anchor="middle" pointer-events="none" font-family="sans-serif" dy="1.5625" font-size="25" fill="#2A2C34"/><text text-anchor="middle" pointer-events="none" x="0" y="5" font-size="10px" fill="#2A2C34" font-family="sans-serif"> 11/29/20…</text></g><g class="node" transform="translate(662.177293585735,-135.72297368965155)"><circle class="outline" cx="0" cy="0" r="25" fill="#D9C8AE" stroke="#c0a378" stroke-width="2px"/><text text-anchor="middle" pointer-events="none" font-family="sans-serif" dy="1.5625" font-size="25" fill="#2A2C34"/><text text-anchor="middle" pointer-events="none" x="0" y="5" font-size="10px" fill="#2A2C34" font-family="sans-serif"> 11/29/20…</text></g><g class="node" transform="translate(181.98682471106648,109.13414837288104)"><circle class="outline" cx="0" cy="0" r="25" fill="#D9C8AE" stroke="#c0a378" stroke-width="2px"/><text text-anchor="middle" pointer-events="none" font-family="sans-serif" dy="1.5625" font-size="25" fill="#2A2C34"/><text text-anchor="middle" pointer-events="none" x="0" y="5" font-size="10px" fill="#2A2C34" font-family="sans-serif"> 11/2/2015</text></g><g class="node" transform="translate(241.76909115936104,113.40508074125528)"><circle class="outline" cx="0" cy="0" r="25" fill="#D9C8AE" stroke="#c0a378" stroke-width="2px"/><text text-anchor="middle" pointer-events="none" font-family="sans-serif" dy="1.5625" font-size="25" fill="#2A2C34"/><text text-anchor="middle" pointer-events="none" x="0" y="5" font-size="10px" fill="#2A2C34" font-family="sans-serif"> 11/4/2015</text></g><g class="node" transform="translate(-29.385921663823787,-146.82907105987192)"><circle class="outline" cx="0" cy="0" r="25" fill="#D9C8AE" stroke="#c0a378" stroke-width="2px"/><text text-anchor="middle" pointer-events="none" font-family="sans-serif" dy="1.5625" font-size="25" fill="#2A2C34"/><text text-anchor="middle" pointer-events="none" x="0" y="5" font-size="10px" fill="#2A2C34" font-family="sans-serif"> 11/29/20…</text></g><g class="node" transform="translate(-223.03436732189064,-345.50435855089245)"><circle class="outline" cx="0" cy="0" r="25" fill="#D9C8AE" stroke="#c0a378" stroke-width="2px"/><text text-anchor="middle" pointer-events="none" font-family="sans-serif" dy="1.5625" font-size="25" fill="#2A2C34"/><text text-anchor="middle" pointer-events="none" x="0" y="5" font-size="10px" fill="#2A2C34" font-family="sans-serif"> 11/30/20…</text></g><g class="node" transform="translate(-60.64001147550341,-95.72996436298112)"><circle class="outline" cx="0" cy="0" r="25" fill="#D9C8AE" stroke="#c0a378" stroke-width="2px"/><text text-anchor="middle" pointer-events="none" font-family="sans-serif" dy="1.5625" font-size="25" fill="#2A2C34"/><text text-anchor="middle" pointer-events="none" x="0" y="5" font-size="10px" fill="#2A2C34" font-family="sans-serif"> 11/30/20…</text></g><g class="node" transform="translate(89.04227162372419,-206.63503799534843)"><circle class="outline" cx="0" cy="0" r="25" fill="#D9C8AE" stroke="#c0a378" stroke-width="2px"/><text text-anchor="middle" pointer-events="none" font-family="sans-serif" dy="1.5625" font-size="25" fill="#2A2C34"/><text text-anchor="middle" pointer-events="none" x="0" y="5" font-size="10px" fill="#2A2C34" font-family="sans-serif"> 11/2/2015</text></g><g class="node" transform="translate(211.38483809659408,164.855083599888)"><circle class="outline" cx="0" cy="0" r="25" fill="#D9C8AE" stroke="#c0a378" stroke-width="2px"/><text text-anchor="middle" pointer-events="none" font-family="sans-serif" dy="1.5625" font-size="25" fill="#2A2C34"/><text text-anchor="middle" pointer-events="none" x="0" y="5" font-size="10px" fill="#2A2C34" font-family="sans-serif"> 11/3/2015</text></g><g class="node" transform="translate(-122.65748135321698,125.07816027634264)"><circle class="outline" cx="0" cy="0" r="25" fill="#D9C8AE" stroke="#c0a378" stroke-width="2px"/><text text-anchor="middle" pointer-events="none" font-family="sans-serif" dy="1.5625" font-size="25" fill="#2A2C34"/><text text-anchor="middle" pointer-events="none" x="0" y="5" font-size="10px" fill="#2A2C34" font-family="sans-serif"> 11/30/20…</text></g><g class="node" transform="translate(-337.04193127727916,-2.0471077782348663)"><circle class="outline" cx="0" cy="0" r="25" fill="#D9C8AE" stroke="#c0a378" stroke-width="2px"/><text text-anchor="middle" pointer-events="none" font-family="sans-serif" dy="1.5625" font-size="25" fill="#2A2C34"/><text text-anchor="middle" pointer-events="none" x="0" y="5" font-size="10px" fill="#2A2C34" font-family="sans-serif"> 11/29/20…</text></g><g class="node" transform="translate(-531.1271833954612,283.6639528599444)"><circle class="outline" cx="0" cy="0" r="25" fill="#D9C8AE" stroke="#c0a378" stroke-width="2px"/><text text-anchor="middle" pointer-events="none" font-family="sans-serif" dy="1.5625" font-size="25" fill="#2A2C34"/><text text-anchor="middle" pointer-events="none" x="0" y="5" font-size="10px" fill="#2A2C34" font-family="sans-serif"> 11/13/20…</text></g><g class="node" transform="translate(-486.49256911391586,240.32274247378456)"><circle class="outline" cx="0" cy="0" r="25" fill="#D9C8AE" stroke="#c0a378" stroke-width="2px"/><text text-anchor="middle" pointer-events="none" font-family="sans-serif" dy="1.5625" font-size="25" fill="#2A2C34"/><text text-anchor="middle" pointer-events="none" x="0" y="5" font-size="10px" fill="#2A2C34" font-family="sans-serif"> 11/12/20…</text></g><g class="node" transform="translate(-314.6669915612323,79.23875659585764)"><circle class="outline" cx="0" cy="0" r="25" fill="#D9C8AE" stroke="#c0a378" stroke-width="2px"/><text text-anchor="middle" pointer-events="none" font-family="sans-serif" dy="1.5625" font-size="25" fill="#2A2C34"/><text text-anchor="middle" pointer-events="none" x="0" y="5" font-size="10px" fill="#2A2C34" font-family="sans-serif"> 11/29/20…</text></g><g class="node" transform="translate(-444.5298880099759,197.6320999786274)"><circle class="outline" cx="0" cy="0" r="25" fill="#D9C8AE" stroke="#c0a378" stroke-width="2px"/><text text-anchor="middle" pointer-events="none" font-family="sans-serif" dy="1.5625" font-size="25" fill="#2A2C34"/><text text-anchor="middle" pointer-events="none" x="0" y="5" font-size="10px" fill="#2A2C34" font-family="sans-serif"> 11/2/2015</text></g><g class="node" transform="translate(-473.1415040349546,298.5405525366001)"><circle class="outline" cx="0" cy="0" r="25" fill="#D9C8AE" stroke="#c0a378" stroke-width="2px"/><text text-anchor="middle" pointer-events="none" font-family="sans-serif" dy="1.5625" font-size="25" fill="#2A2C34"/><text text-anchor="middle" pointer-events="none" x="0" y="5" font-size="10px" fill="#2A2C34" font-family="sans-serif"> 11/5/2015</text></g><g class="node" transform="translate(-460.3593988803524,139.8183441165009)"><circle class="outline" cx="0" cy="0" r="25" fill="#D9C8AE" stroke="#c0a378" stroke-width="2px"/><text text-anchor="middle" pointer-events="none" font-family="sans-serif" dy="1.5625" font-size="25" fill="#2A2C34"/><text text-anchor="middle" pointer-events="none" x="0" y="5" font-size="10px" fill="#2A2C34" font-family="sans-serif"> 11/9/2015</text></g><g class="node" transform="translate(-476.4736356331121,82.1319520982458)"><circle class="outline" cx="0" cy="0" r="25" fill="#D9C8AE" stroke="#c0a378" stroke-width="2px"/><text text-anchor="middle" pointer-events="none" font-family="sans-serif" dy="1.5625" font-size="25" fill="#2A2C34"/><text text-anchor="middle" pointer-events="none" x="0" y="5" font-size="10px" fill="#2A2C34" font-family="sans-serif"> 11/6/2015</text></g><g class="node" transform="translate(-375.1034396042687,411.12470567548036)"><circle class="outline" cx="0" cy="0" r="25" fill="#D9C8AE" stroke="#c0a378" stroke-width="2px"/><text text-anchor="middle" pointer-events="none" font-family="sans-serif" dy="1.5625" font-size="25" fill="#2A2C34"/><text text-anchor="middle" pointer-events="none" x="0" y="5" font-size="10px" fill="#2A2C34" font-family="sans-serif"> 11/30/20…</text></g><g class="node" transform="translate(-273.9885836664602,416.71512528102915)"><circle class="outline" cx="0" cy="0" r="25" fill="#D9C8AE" stroke="#c0a378" stroke-width="2px"/><text text-anchor="middle" pointer-events="none" font-family="sans-serif" dy="1.5625" font-size="25" fill="#2A2C34"/><text text-anchor="middle" pointer-events="none" x="0" y="5" font-size="10px" fill="#2A2C34" font-family="sans-serif"> 11/29/20…</text></g><g class="node" transform="translate(-394.0706892959824,59.20921039595621)"><circle class="outline" cx="0" cy="0" r="25" fill="#D9C8AE" stroke="#c0a378" stroke-width="2px"/><text text-anchor="middle" pointer-events="none" font-family="sans-serif" dy="1.5625" font-size="25" fill="#2A2C34"/><text text-anchor="middle" pointer-events="none" x="0" y="5" font-size="10px" fill="#2A2C34" font-family="sans-serif"> 11/23/20…</text></g><g class="node" transform="translate(-418.55771596956697,369.7390139973895)"><circle class="outline" cx="0" cy="0" r="25" fill="#D9C8AE" stroke="#c0a378" stroke-width="2px"/><text text-anchor="middle" pointer-events="none" font-family="sans-serif" dy="1.5625" font-size="25" fill="#2A2C34"/><text text-anchor="middle" pointer-events="none" x="0" y="5" font-size="10px" fill="#2A2C34" font-family="sans-serif"> 11/29/20…</text></g><g class="node" transform="translate(-205.4972925609305,379.42992119053775)"><circle class="outline" cx="0" cy="0" r="25" fill="#D9C8AE" stroke="#c0a378" stroke-width="2px"/><text text-anchor="middle" pointer-events="none" font-family="sans-serif" dy="1.5625" font-size="25" fill="#2A2C34"/><text text-anchor="middle" pointer-events="none" x="0" y="5" font-size="10px" fill="#2A2C34" font-family="sans-serif"> 11/29/20…</text></g><g class="node" transform="translate(-544.4122042146545,225.2880818154448)"><circle class="outline" cx="0" cy="0" r="25" fill="#D9C8AE" stroke="#c0a378" stroke-width="2px"/><text text-anchor="middle" pointer-events="none" font-family="sans-serif" dy="1.5625" font-size="25" fill="#2A2C34"/><text text-anchor="middle" pointer-events="none" x="0" y="5" font-size="10px" fill="#2A2C34" font-family="sans-serif"> 11/16/20…</text></g><g class="node" transform="translate(-230.54098579096578,151.67319136722438)"><circle class="outline" cx="0" cy="0" r="25" fill="#D9C8AE" stroke="#c0a378" stroke-width="2px"/><text text-anchor="middle" pointer-events="none" font-family="sans-serif" dy="1.5625" font-size="25" fill="#2A2C34"/><text text-anchor="middle" pointer-events="none" x="0" y="5" font-size="10px" fill="#2A2C34" font-family="sans-serif"> 11/30/20…</text></g><g class="node" transform="translate(-502.39385568959926,182.5061550672979)"><circle class="outline" cx="0" cy="0" r="25" fill="#D9C8AE" stroke="#c0a378" stroke-width="2px"/><text text-anchor="middle" pointer-events="none" font-family="sans-serif" dy="1.5625" font-size="25" fill="#2A2C34"/><text text-anchor="middle" pointer-events="none" x="0" y="5" font-size="10px" fill="#2A2C34" font-family="sans-serif"> 11/29/20…</text></g><g class="node" transform="translate(-252.91387567615877,342.66559325751535)"><circle class="outline" cx="0" cy="0" r="25" fill="#D9C8AE" stroke="#c0a378" stroke-width="2px"/><text text-anchor="middle" pointer-events="none" font-family="sans-serif" dy="1.5625" font-size="25" fill="#2A2C34"/><text text-anchor="middle" pointer-events="none" x="0" y="5" font-size="10px" fill="#2A2C34" font-family="sans-serif"> 11/29/20…</text></g><g class="node" transform="translate(-185.47027715562197,257.16212194178746)"><circle class="outline" cx="0" cy="0" r="25" fill="#D9C8AE" stroke="#c0a378" stroke-width="2px"/><text text-anchor="middle" pointer-events="none" font-family="sans-serif" dy="1.5625" font-size="25" fill="#2A2C34"/><text text-anchor="middle" pointer-events="none" x="0" y="5" font-size="10px" fill="#2A2C34" font-family="sans-serif"> 11/29/20…</text></g><g class="node" transform="translate(-518.4055149958003,124.77784206918751)"><circle class="outline" cx="0" cy="0" r="25" fill="#D9C8AE" stroke="#c0a378" stroke-width="2px"/><text text-anchor="middle" pointer-events="none" font-family="sans-serif" dy="1.5625" font-size="25" fill="#2A2C34"/><text text-anchor="middle" pointer-events="none" x="0" y="5" font-size="10px" fill="#2A2C34" font-family="sans-serif"> 11/19/20…</text></g><g class="node" transform="translate(-176.92708198872768,318.8799412205126)"><circle class="outline" cx="0" cy="0" r="25" fill="#D9C8AE" stroke="#c0a378" stroke-width="2px"/><text text-anchor="middle" pointer-events="none" font-family="sans-serif" dy="1.5625" font-size="25" fill="#2A2C34"/><text text-anchor="middle" pointer-events="none" x="0" y="5" font-size="10px" fill="#2A2C34" font-family="sans-serif"> 11/30/20…</text></g><g class="node" transform="translate(-322.8363062792671,381.88048296509305)"><circle class="outline" cx="0" cy="0" r="25" fill="#D9C8AE" stroke="#c0a378" stroke-width="2px"/><text text-anchor="middle" pointer-events="none" font-family="sans-serif" dy="1.5625" font-size="25" fill="#2A2C34"/><text text-anchor="middle" pointer-events="none" x="0" y="5" font-size="10px" fill="#2A2C34" font-family="sans-serif"> 11/30/20…</text></g><g class="node" transform="translate(-250.77343489777363,-1.1936615611290151)"><circle class="outline" cx="0" cy="0" r="25" fill="#D9C8AE" stroke="#c0a378" stroke-width="2px"/><text text-anchor="middle" pointer-events="none" font-family="sans-serif" dy="1.5625" font-size="25" fill="#2A2C34"/><text text-anchor="middle" pointer-events="none" x="0" y="5" font-size="10px" fill="#2A2C34" font-family="sans-serif"> 11/30/20…</text></g></g></svg>