<svg xmlns="http://www.w3.org/2000/svg" width="861.5400390625" height="273.8353271484375" viewBox="-393.60137939453125 43.02400207519531 861.5400390625 273.8353271484375"><title>Neo4j Graph Visualization</title><desc>Created using Neo4j (http://www.neo4j.com/)</desc><g class="layer relationships"><g class="relationship" transform="translate(-99.48400539765794 172.62380698555145) rotate(538.2628766259255)"><path class="outline" fill="#A5ABB6" stroke="none" d="M 25 0.5 L 111.8969714174253 0.5 L 111.8969714174253 -0.5 L 25 -0.5 Z M 146.3422839174253 0.5 L 233.2392553348506 0.5 L 233.2392553348506 3.5 L 240.2392553348506 0 L 233.2392553348506 -3.5 L 233.2392553348506 -0.5 L 146.3422839174253 -0.5 Z"/><text text-anchor="middle" pointer-events="none" font-size="8px" fill="#000000" x="129.1196276674253" y="3" transform="rotate(180 129.1196276674253 0)" font-family="sans-serif">ORIGIN</text></g><g class="relationship" transform="translate(-99.48400539765794 172.62380698555145) rotate(360.81255490712925)"><path class="outline" fill="#A5ABB6" stroke="none" d="M 25 0.5 L 86.58262387833703 0.5 L 86.58262387833703 -0.5 L 25 -0.5 Z M 145.77012387833702 0.5 L 207.35274775667406 0.5 L 207.35274775667406 3.5 L 214.35274775667406 0 L 207.35274775667406 -3.5 L 207.35274775667406 -0.5 L 145.77012387833702 -0.5 Z"/><text text-anchor="middle" pointer-events="none" font-size="8px" fill="#000000" x="116.17637387833703" y="3" font-family="sans-serif">DESTINATION</text></g><g class="relationship" transform="translate(256.83375571617484 188.47239948864285) rotate(186.07662903444276)"><path class="outline" fill="#A5ABB6" stroke="none" d="M 25 0.5 L 38.10241092072166 0.5 L 38.10241092072166 -0.5 L 25 -0.5 Z M 72.54772342072167 0.5 L 85.65013434144332 0.5 L 85.65013434144332 3.5 L 92.65013434144332 0 L 85.65013434144332 -3.5 L 85.65013434144332 -0.5 L 72.54772342072167 -0.5 Z"/><text text-anchor="middle" pointer-events="none" font-size="8px" fill="#000000" x="55.32506717072166" y="3" transform="rotate(180 55.32506717072166 0)" font-family="sans-serif">ORIGIN</text></g><g class="relationship" transform="translate(256.83375571617484 188.47239948864285) rotate(359.09153691831466)"><path class="outline" fill="#A5ABB6" stroke="none" d="M 25 0.5 L 57.97012982272996 0.5 L 57.97012982272996 -0.5 L 25 -0.5 Z M 117.15762982272996 0.5 L 150.12775964545992 0.5 L 150.12775964545992 3.5 L 157.12775964545992 0 L 150.12775964545992 -3.5 L 150.12775964545992 -0.5 L 117.15762982272996 -0.5 Z"/><text text-anchor="middle" pointer-events="none" font-size="8px" fill="#000000" x="87.56387982272996" y="3" font-family="sans-serif">DESTINATION</text></g><g class="relationship" transform="translate(243.00057219893523 246.79571424352386) rotate(214.45489298192365)"><path class="outline" fill="#A5ABB6" stroke="none" d="M 25 0.5 L 41.82853293873591 0.5 L 41.82853293873591 -0.5 L 25 -0.5 Z M 76.27384543873592 0.5 L 93.10237837747182 0.5 L 93.10237837747182 3.5 L 100.10237837747182 0 L 93.10237837747182 -3.5 L 93.10237837747182 -0.5 L 76.27384543873592 -0.5 Z"/><text text-anchor="middle" pointer-events="none" font-size="8px" fill="#000000" x="59.05118918873591" y="3" transform="rotate(180 59.05118918873591 0)" font-family="sans-serif">ORIGIN</text></g><g class="relationship" transform="translate(243.00057219893523 246.79571424352386) rotate(342.6512206643896)"><path class="outline" fill="#A5ABB6" stroke="none" d="M 25 0.5 L 69.54457135429982 0.5 L 69.54457135429982 -0.5 L 25 -0.5 Z M 128.73207135429982 0.5 L 173.27664270859964 0.5 L 173.27664270859964 3.5 L 180.27664270859964 0 L 173.27664270859964 -3.5 L 173.27664270859964 -0.5 L 128.73207135429982 -0.5 Z"/><text text-anchor="middle" pointer-events="none" font-size="8px" fill="#000000" x="99.13832135429982" y="3" font-family="sans-serif">DESTINATION</text></g><g class="relationship" transform="translate(284.5011689952345 72.02400336678784) rotate(504.2874912503521)"><path class="outline" fill="#A5ABB6" stroke="none" d="M 25 0.5 L 68.356355612608 0.5 L 68.356355612608 -0.5 L 25 -0.5 Z M 102.801668112608 0.5 L 146.158023725216 0.5 L 146.158023725216 3.5 L 153.158023725216 0 L 146.158023725216 -3.5 L 146.158023725216 -0.5 L 102.801668112608 -0.5 Z"/><text text-anchor="middle" pointer-events="none" font-size="8px" fill="#000000" x="85.579011862608" y="3" transform="rotate(180 85.579011862608 0)" font-family="sans-serif">ORIGIN</text></g><g class="relationship" transform="translate(284.5011689952345 72.02400336678784) rotate(396.3277429842833)"><path class="outline" fill="#A5ABB6" stroke="none" d="M 25 0.5 L 62.753749907422105 0.5 L 62.753749907422105 -0.5 L 25 -0.5 Z M 121.9412499074221 0.5 L 159.6949998148442 0.5 L 159.6949998148442 3.5 L 166.6949998148442 0 L 159.6949998148442 -3.5 L 159.6949998148442 -0.5 L 121.9412499074221 -0.5 Z"/><text text-anchor="middle" pointer-events="none" font-size="8px" fill="#000000" x="92.3474999074221" y="3" font-family="sans-serif">DESTINATION</text></g><g class="relationship" transform="translate(286.60454813124056 287.8593316846094) rotate(217.30991270170824)"><path class="outline" fill="#A5ABB6" stroke="none" d="M 25 0.5 L 71.53637302900681 0.5 L 71.53637302900681 -0.5 L 25 -0.5 Z M 105.98168552900681 0.5 L 152.51805855801362 0.5 L 152.51805855801362 3.5 L 159.51805855801362 0 L 152.51805855801362 -3.5 L 152.51805855801362 -0.5 L 105.98168552900681 -0.5 Z"/><text text-anchor="middle" pointer-events="none" font-size="8px" fill="#000000" x="88.75902927900681" y="3" transform="rotate(180 88.75902927900681 0)" font-family="sans-serif">ORIGIN</text></g><g class="relationship" transform="translate(286.60454813124056 287.8593316846094) rotate(326.123243981245)"><path class="outline" fill="#A5ABB6" stroke="none" d="M 25 0.5 L 58.64740436717001 0.5 L 58.64740436717001 -0.5 L 25 -0.5 Z M 117.83490436717001 0.5 L 151.48230873434002 0.5 L 151.48230873434002 3.5 L 158.48230873434002 0 L 151.48230873434002 -3.5 L 151.48230873434002 -0.5 L 117.83490436717001 -0.5 Z"/><text text-anchor="middle" pointer-events="none" font-size="8px" fill="#000000" x="88.24115436717001" y="3" font-family="sans-serif">DESTINATION</text></g><g class="relationship" transform="translate(270.6946145703101 130.42684221721456) rotate(520.7904238381718)"><path class="outline" fill="#A5ABB6" stroke="none" d="M 25 0.5 L 48.559869030624085 0.5 L 48.559869030624085 -0.5 L 25 -0.5 Z M 83.00518153062409 0.5 L 106.56505056124817 0.5 L 106.56505056124817 3.5 L 113.56505056124817 0 L 106.56505056124817 -3.5 L 106.56505056124817 -0.5 L 83.00518153062409 -0.5 Z"/><text text-anchor="middle" pointer-events="none" font-size="8px" fill="#000000" x="65.78252528062409" y="3" transform="rotate(180 65.78252528062409 0)" font-family="sans-serif">ORIGIN</text></g><g class="relationship" transform="translate(270.6946145703101 130.42684221721456) rotate(378.1514606897608)"><path class="outline" fill="#A5ABB6" stroke="none" d="M 25 0.5 L 55.43370656164393 0.5 L 55.43370656164393 -0.5 L 25 -0.5 Z M 114.62120656164393 0.5 L 145.05491312328786 0.5 L 145.05491312328786 3.5 L 152.05491312328786 0 L 145.05491312328786 -3.5 L 145.05491312328786 -0.5 L 114.62120656164393 -0.5 Z"/><text text-anchor="middle" pointer-events="none" font-size="8px" fill="#000000" x="85.02745656164393" y="3" font-family="sans-serif">DESTINATION</text></g><g class="relationship" transform="translate(227.20025327232543 89.34965734437877) rotate(495.2262204693776)"><path class="outline" fill="#A5ABB6" stroke="none" d="M 25 0.5 L 40.80461936269007 0.5 L 40.80461936269007 -0.5 L 25 -0.5 Z M 75.24993186269006 0.5 L 91.05455122538014 0.5 L 91.05455122538014 3.5 L 98.05455122538014 0 L 91.05455122538014 -3.5 L 91.05455122538014 -0.5 L 75.24993186269006 -0.5 Z"/><text text-anchor="middle" pointer-events="none" font-size="8px" fill="#000000" x="58.02727561269007" y="3" transform="rotate(180 58.02727561269007 0)" font-family="sans-serif">ORIGIN</text></g><g class="relationship" transform="translate(227.20025327232543 89.34965734437877) rotate(384.4418000356075)"><path class="outline" fill="#A5ABB6" stroke="none" d="M 25 0.5 L 83.19719152629841 0.5 L 83.19719152629841 -0.5 L 25 -0.5 Z M 142.3846915262984 0.5 L 200.58188305259682 0.5 L 200.58188305259682 3.5 L 207.58188305259682 0 L 200.58188305259682 -3.5 L 200.58188305259682 -0.5 L 142.3846915262984 -0.5 Z"/><text text-anchor="middle" pointer-events="none" font-size="8px" fill="#000000" x="112.79094152629841" y="3" font-family="sans-serif">DESTINATION</text></g><g class="relationship" transform="translate(314.2812843787542 171.45371608805124) rotate(538.5011040064649)"><path class="outline" fill="#A5ABB6" stroke="none" d="M 25 0.5 L 66.52550312445686 0.5 L 66.52550312445686 -0.5 L 25 -0.5 Z M 100.97081562445686 0.5 L 142.49631874891372 0.5 L 142.49631874891372 3.5 L 149.49631874891372 0 L 142.49631874891372 -3.5 L 142.49631874891372 -0.5 L 100.97081562445686 -0.5 Z"/><text text-anchor="middle" pointer-events="none" font-size="8px" fill="#000000" x="83.74815937445686" y="3" transform="rotate(180 83.74815937445686 0)" font-family="sans-serif">ORIGIN</text></g><g class="relationship" transform="translate(314.2812843787542 171.45371608805124) rotate(366.46739095302496)"><path class="outline" fill="#A5ABB6" stroke="none" d="M 25 0.5 L 29.634111308396882 0.5 L 29.634111308396882 -0.5 L 25 -0.5 Z M 88.82161130839688 0.5 L 93.45572261679376 0.5 L 93.45572261679376 3.5 L 100.45572261679376 0 L 93.45572261679376 -3.5 L 93.45572261679376 -0.5 L 88.82161130839688 -0.5 Z"/><text text-anchor="middle" pointer-events="none" font-size="8px" fill="#000000" x="59.22786130839688" y="3" font-family="sans-serif">DESTINATION</text></g><g class="relationship" transform="translate(300.40022228380786 229.6183575874823) rotate(198.46118635295215)"><path class="outline" fill="#A5ABB6" stroke="none" d="M 25 0.5 L 63.91047570193615 0.5 L 63.91047570193615 -0.5 L 25 -0.5 Z M 98.35578820193615 0.5 L 137.2662639038723 0.5 L 137.2662639038723 3.5 L 144.2662639038723 0 L 137.2662639038723 -3.5 L 137.2662639038723 -0.5 L 98.35578820193615 -0.5 Z"/><text text-anchor="middle" pointer-events="none" font-size="8px" fill="#000000" x="81.13313195193615" y="3" transform="rotate(180 81.13313195193615 0)" font-family="sans-serif">ORIGIN</text></g><g class="relationship" transform="translate(300.40022228380786 229.6183575874823) rotate(342.3674551757847)"><path class="outline" fill="#A5ABB6" stroke="none" d="M 25 0.5 L 39.59023334696187 0.5 L 39.59023334696187 -0.5 L 25 -0.5 Z M 98.77773334696187 0.5 L 113.36796669392373 0.5 L 113.36796669392373 3.5 L 120.36796669392373 0 L 113.36796669392373 -3.5 L 113.36796669392373 -0.5 L 98.77773334696187 -0.5 Z"/><text text-anchor="middle" pointer-events="none" font-size="8px" fill="#000000" x="69.18398334696187" y="3" font-family="sans-serif">DESTINATION</text></g><g class="relationship" transform="translate(328.05648943931544 113.08698495669604) rotate(521.5119487026391)"><path class="outline" fill="#A5ABB6" stroke="none" d="M 25 0.5 L 78.50437832241045 0.5 L 78.50437832241045 -0.5 L 25 -0.5 Z M 112.94969082241045 0.5 L 166.4540691448209 0.5 L 166.4540691448209 3.5 L 173.4540691448209 0 L 166.4540691448209 -3.5 L 166.4540691448209 -0.5 L 112.94969082241045 -0.5 Z"/><text text-anchor="middle" pointer-events="none" font-size="8px" fill="#000000" x="95.72703457241045" y="3" transform="rotate(180 95.72703457241045 0)" font-family="sans-serif">ORIGIN</text></g><g class="relationship" transform="translate(328.05648943931544 113.08698495669604) rotate(393.17775928841553)"><path class="outline" fill="#A5ABB6" stroke="none" d="M 25 0.5 L 33.14591920406278 0.5 L 33.14591920406278 -0.5 L 25 -0.5 Z M 92.33341920406278 0.5 L 100.47933840812556 0.5 L 100.47933840812556 3.5 L 107.47933840812556 0 L 100.47933840812556 -3.5 L 100.47933840812556 -0.5 L 92.33341920406278 -0.5 Z"/><text text-anchor="middle" pointer-events="none" font-size="8px" fill="#000000" x="62.73966920406278" y="3" font-family="sans-serif">DESTINATION</text></g></g><g class="layer nodes"><g class="node" transform="translate(-364.60136441104675,180.66423734418296)"><circle class="outline" cx="0" cy="0" r="25" fill="#F16667" stroke="#eb2728" stroke-width="2px"/><text text-anchor="middle" pointer-events="none" font-family="sans-serif" dy="1.5625" font-size="25" fill="#FFFFFF"/><text text-anchor="middle" pointer-events="none" x="0" y="5" font-size="10px" fill="#FFFFFF" font-family="sans-serif"> LAX</text></g><g class="node" transform="translate(438.93862216954005,185.5847624829865)"><circle class="outline" cx="0" cy="0" r="25" fill="#F16667" stroke="#eb2728" stroke-width="2px"/><text text-anchor="middle" pointer-events="none" font-family="sans-serif" dy="1.5625" font-size="25" fill="#FFFFFF"/><text text-anchor="middle" pointer-events="none" x="0" y="5" font-size="10px" fill="#FFFFFF" font-family="sans-serif"> CRP</text></g><g class="node" transform="translate(-99.48400539765794,172.62380698555145)"><circle class="outline" cx="0" cy="0" r="25" fill="#D9C8AE" stroke="#c0a378" stroke-width="2px"/><text text-anchor="middle" pointer-events="none" font-family="sans-serif" dy="1.5625" font-size="25" fill="#2A2C34"/><text text-anchor="middle" pointer-events="none" x="0" y="5" font-size="10px" fill="#2A2C34" font-family="sans-serif"> 11/30/20…</text></g><g class="node" transform="translate(139.84467317800642,176.01813606452663)"><circle class="outline" cx="0" cy="0" r="25" fill="#F16667" stroke="#eb2728" stroke-width="2px"/><text text-anchor="middle" pointer-events="none" font-family="sans-serif" dy="1.5625" font-size="25" fill="#FFFFFF"/><text text-anchor="middle" pointer-events="none" x="0" y="5" font-size="10px" fill="#FFFFFF" font-family="sans-serif"> IAH</text></g><g class="node" transform="translate(256.83375571617484,188.47239948864285)"><circle class="outline" cx="0" cy="0" r="25" fill="#D9C8AE" stroke="#c0a378" stroke-width="2px"/><text text-anchor="middle" pointer-events="none" font-family="sans-serif" dy="1.5625" font-size="25" fill="#2A2C34"/><text text-anchor="middle" pointer-events="none" x="0" y="5" font-size="10px" fill="#2A2C34" font-family="sans-serif"> 11/2/2015</text></g><g class="node" transform="translate(243.00057219893523,246.79571424352386)"><circle class="outline" cx="0" cy="0" r="25" fill="#D9C8AE" stroke="#c0a378" stroke-width="2px"/><text text-anchor="middle" pointer-events="none" font-family="sans-serif" dy="1.5625" font-size="25" fill="#2A2C34"/><text text-anchor="middle" pointer-events="none" x="0" y="5" font-size="10px" fill="#2A2C34" font-family="sans-serif"> 11/12/20…</text></g><g class="node" transform="translate(284.5011689952345,72.02400336678784)"><circle class="outline" cx="0" cy="0" r="25" fill="#D9C8AE" stroke="#c0a378" stroke-width="2px"/><text text-anchor="middle" pointer-events="none" font-family="sans-serif" dy="1.5625" font-size="25" fill="#2A2C34"/><text text-anchor="middle" pointer-events="none" x="0" y="5" font-size="10px" fill="#2A2C34" font-family="sans-serif"> 11/9/2015</text></g><g class="node" transform="translate(286.60454813124056,287.8593316846094)"><circle class="outline" cx="0" cy="0" r="25" fill="#D9C8AE" stroke="#c0a378" stroke-width="2px"/><text text-anchor="middle" pointer-events="none" font-family="sans-serif" dy="1.5625" font-size="25" fill="#2A2C34"/><text text-anchor="middle" pointer-events="none" x="0" y="5" font-size="10px" fill="#2A2C34" font-family="sans-serif"> 11/13/20…</text></g><g class="node" transform="translate(270.6946145703101,130.42684221721456)"><circle class="outline" cx="0" cy="0" r="25" fill="#D9C8AE" stroke="#c0a378" stroke-width="2px"/><text text-anchor="middle" pointer-events="none" font-family="sans-serif" dy="1.5625" font-size="25" fill="#2A2C34"/><text text-anchor="middle" pointer-events="none" x="0" y="5" font-size="10px" fill="#2A2C34" font-family="sans-serif"> 11/6/2015</text></g><g class="node" transform="translate(227.20025327232543,89.34965734437877)"><circle class="outline" cx="0" cy="0" r="25" fill="#D9C8AE" stroke="#c0a378" stroke-width="2px"/><text text-anchor="middle" pointer-events="none" font-family="sans-serif" dy="1.5625" font-size="25" fill="#2A2C34"/><text text-anchor="middle" pointer-events="none" x="0" y="5" font-size="10px" fill="#2A2C34" font-family="sans-serif"> 11/19/20…</text></g><g class="node" transform="translate(314.2812843787542,171.45371608805124)"><circle class="outline" cx="0" cy="0" r="25" fill="#D9C8AE" stroke="#c0a378" stroke-width="2px"/><text text-anchor="middle" pointer-events="none" font-family="sans-serif" dy="1.5625" font-size="25" fill="#2A2C34"/><text text-anchor="middle" pointer-events="none" x="0" y="5" font-size="10px" fill="#2A2C34" font-family="sans-serif"> 11/5/2015</text></g><g class="node" transform="translate(300.40022228380786,229.6183575874823)"><circle class="outline" cx="0" cy="0" r="25" fill="#D9C8AE" stroke="#c0a378" stroke-width="2px"/><text text-anchor="middle" pointer-events="none" font-family="sans-serif" dy="1.5625" font-size="25" fill="#2A2C34"/><text text-anchor="middle" pointer-events="none" x="0" y="5" font-size="10px" fill="#2A2C34" font-family="sans-serif"> 11/16/20…</text></g><g class="node" transform="translate(328.05648943931544,113.08698495669604)"><circle class="outline" cx="0" cy="0" r="25" fill="#D9C8AE" stroke="#c0a378" stroke-width="2px"/><text text-anchor="middle" pointer-events="none" font-family="sans-serif" dy="1.5625" font-size="25" fill="#2A2C34"/><text text-anchor="middle" pointer-events="none" x="0" y="5" font-size="10px" fill="#2A2C34" font-family="sans-serif"> 11/29/20…</text></g></g></svg>