<svg xmlns="http://www.w3.org/2000/svg" width="268.8121032714844" height="289.1191101074219" viewBox="-30.97236442565918 -40.30734634399414 268.8121032714844 289.1191101074219"><title>Neo4j Graph Visualization</title><desc>Created using Neo4j (http://www.neo4j.com/)</desc><g class="layer relationships"><g class="relationship" transform="translate(116.53914640276122 -11.307346153062994) rotate(391.62967142518085)"><path class="outline" fill="#A5ABB6" stroke="none" d="M 25 0.5 L 33.47900224226818 0.5 L 33.47900224226818 -0.5 L 25 -0.5 Z M 67.92431474226818 0.5 L 76.40331698453636 0.5 L 76.40331698453636 3.5 L 83.40331698453636 0 L 76.40331698453636 -3.5 L 76.40331698453636 -0.5 L 67.92431474226818 -0.5 Z"/><text text-anchor="middle" pointer-events="none" font-size="8px" fill="#000000" x="50.70165849226818" y="3" font-family="sans-serif">ORIGIN</text></g><g class="relationship" transform="translate(116.53914640276122 -11.307346153062994) rotate(509.83591321683036)"><path class="outline" fill="#A5ABB6" stroke="none" d="M 25 0.5 L 26.040743575325912 0.5 L 26.040743575325912 -0.5 L 25 -0.5 Z M 74.7126185753259 0.5 L 75.75336215065182 0.5 L 75.75336215065182 3.5 L 82.75336215065182 0 L 75.75336215065182 -3.5 L 75.75336215065182 -0.5 L 74.7126185753259 -0.5 Z"/><text text-anchor="middle" pointer-events="none" font-size="8px" fill="#000000" x="50.37668107532591" y="3" transform="rotate(180 50.37668107532591 0)" font-family="sans-serif">DESTINA…</text></g><g class="relationship" transform="translate(-1.9723638999678006 147.55174490549103) rotate(283.60812602525453)"><path class="outline" fill="#A5ABB6" stroke="none" d="M 25 0.5 L 33.1472925306283 0.5 L 33.1472925306283 -0.5 L 25 -0.5 Z M 67.5926050306283 0.5 L 75.7398975612566 0.5 L 75.7398975612566 3.5 L 82.7398975612566 0 L 75.7398975612566 -3.5 L 75.7398975612566 -0.5 L 67.5926050306283 -0.5 Z"/><text text-anchor="middle" pointer-events="none" font-size="8px" fill="#000000" x="50.3699487806283" y="3" font-family="sans-serif">ORIGIN</text></g><g class="relationship" transform="translate(-1.9723638999678006 147.55174490549103) rotate(401.81302829340603)"><path class="outline" fill="#A5ABB6" stroke="none" d="M 25 0.5 L 26.356215075582675 0.5 L 26.356215075582675 -0.5 L 25 -0.5 Z M 75.02809007558267 0.5 L 76.38430515116535 0.5 L 76.38430515116535 3.5 L 83.38430515116535 0 L 76.38430515116535 -3.5 L 76.38430515116535 -0.5 L 75.02809007558267 -0.5 Z"/><text text-anchor="middle" pointer-events="none" font-size="8px" fill="#000000" x="50.692152575582675" y="3" font-family="sans-serif">DESTINA…</text></g></g><g class="layer nodes"><g class="node" transform="translate(208.83974323331572,45.54227089026723)"><circle class="outline" cx="0" cy="0" r="25" fill="#F16667" stroke="#eb2728" stroke-width="2px"/><text text-anchor="middle" pointer-events="none" font-family="sans-serif" dy="1.5625" font-size="25" fill="#FFFFFF"/><text text-anchor="middle" pointer-events="none" x="0" y="5" font-size="10px" fill="#FFFFFF" font-family="sans-serif"> LAX</text></g><g class="node" transform="translate(78.80910545757311,219.8117740470407)"><circle class="outline" cx="0" cy="0" r="25" fill="#F16667" stroke="#eb2728" stroke-width="2px"/><text text-anchor="middle" pointer-events="none" font-family="sans-serif" dy="1.5625" font-size="25" fill="#FFFFFF"/><text text-anchor="middle" pointer-events="none" x="0" y="5" font-size="10px" fill="#FFFFFF" font-family="sans-serif"> CRP</text></g><g class="node" transform="translate(116.53914640276122,-11.307346153062994)"><circle class="outline" cx="0" cy="0" r="25" fill="#D9C8AE" stroke="#c0a378" stroke-width="2px"/><text text-anchor="middle" pointer-events="none" font-family="sans-serif" dy="1.5625" font-size="25" fill="#2A2C34"/><text text-anchor="middle" pointer-events="none" x="0" y="5" font-size="10px" fill="#2A2C34" font-family="sans-serif"> 11/30/20…</text></g><g class="node" transform="translate(23.376674886151008,42.83636036659002)"><circle class="outline" cx="0" cy="0" r="25" fill="#F16667" stroke="#eb2728" stroke-width="2px"/><text text-anchor="middle" pointer-events="none" font-family="sans-serif" dy="1.5625" font-size="25" fill="#FFFFFF"/><text text-anchor="middle" pointer-events="none" x="0" y="5" font-size="10px" fill="#FFFFFF" font-family="sans-serif"> IAH</text></g><g class="node" transform="translate(-1.9723638999678006,147.55174490549103)"><circle class="outline" cx="0" cy="0" r="25" fill="#D9C8AE" stroke="#c0a378" stroke-width="2px"/><text text-anchor="middle" pointer-events="none" font-family="sans-serif" dy="1.5625" font-size="25" fill="#2A2C34"/><text text-anchor="middle" pointer-events="none" x="0" y="5" font-size="10px" fill="#2A2C34" font-family="sans-serif"> 11/2/2015</text></g></g></svg>